<?xml version="1.0" encoding="UTF-8" standalone="no"?>
<svg
   xmlns:dc="http://purl.org/dc/elements/1.1/"
   xmlns:cc="http://creativecommons.org/ns#"
   xmlns:rdf="http://www.w3.org/1999/02/22-rdf-syntax-ns#"
   xmlns:svg="http://www.w3.org/2000/svg"
   xmlns="http://www.w3.org/2000/svg"
   xmlns:sodipodi="http://sodipodi.sourceforge.net/DTD/sodipodi-0.dtd"
   xmlns:inkscape="http://www.inkscape.org/namespaces/inkscape"
   version="1.1"
   id="svg833"
   xml:space="preserve"
   width="2243.8965"
   height="1422.4207"
   viewBox="0 0 2243.8965 1422.4206"
   sodipodi:docname="Leistungen_webdev.svg"
   inkscape:version="1.0.2 (e86c8708, 2021-01-15)"><metadata
     id="metadata839"><rdf:RDF><cc:Work
         rdf:about=""><dc:format>image/svg+xml</dc:format><dc:type
           rdf:resource="http://purl.org/dc/dcmitype/StillImage" /><dc:title></dc:title></cc:Work></rdf:RDF></metadata><defs
     id="defs837" /><sodipodi:namedview
     pagecolor="#ffffff"
     bordercolor="#666666"
     borderopacity="1"
     objecttolerance="10"
     gridtolerance="10"
     guidetolerance="10"
     inkscape:pageopacity="0"
     inkscape:pageshadow="2"
     inkscape:window-width="1440"
     inkscape:window-height="900"
     id="namedview835"
     showgrid="false"
     inkscape:zoom="0.13191176"
     inkscape:cx="208.34127"
     inkscape:cy="753.44806"
     inkscape:window-x="0"
     inkscape:window-y="0"
     inkscape:window-maximized="0"
     inkscape:current-layer="g841" /><g
     id="g841"
     inkscape:groupmode="layer"
     inkscape:label="ink_ext_XXXXXX"
     transform="matrix(1.3333333,0,0,-1.3333333,-2058.3255,2086.7814)"><g
       id="g1373"
       transform="scale(0.151265)"><path
         d="m 15781.1,9033 c 9.4,-23.59 17.1,-49.02 22.4,-76.21 10.1,-51.84 -0.4,-133.67 -23.8,-181.09 -2.6,-5.11 -5.1,-10.06 -7.7,-15.02 -161.5,-299.68 -584.6,-240.07 -654.3,98.06 -9.1,44.21 -3.4,108.58 12.4,157.92 3.8,11.39 7.9,22.08 12.6,31.15 21.5,43.03 48.3,79.05 78.7,108.38 173.8,166.9 464.2,112.26 559.7,-123.19 z m -1055.6,-468.5 165.1,18.58 c 13.7,1.41 27.1,-5 34.6,-16.58 9.5,-14.82 19.8,-29.35 30.7,-43.58 20.3,-26.44 42,-50.88 65.3,-72.94 10.9,-10.36 14.5,-26.08 9,-39.94 l -63.3,-161.57 c -6.9,-17.18 0.7,-36.92 17.6,-45.21 l 142.1,-70.4 c 16.2,-7.94 35.5,-2.48 45.2,12.53 l 86,134.67 c 8.1,13.28 24.1,19.43 39.6,15.33 65.3,-17.26 133.3,-24.02 201.2,-20.04 16.4,0.94 31.7,-9.73 36.6,-25.36 l 29.1,-92.73 c 5.7,-17.55 23.7,-28.44 41.9,-24.91 l 154.5,31.23 c 3.2,0.61 6.1,1.51 8.8,2.96 13.5,6.38 21.7,20.92 19.8,36.16 l -13.7,123.26 -3.4,30.03 c 25.6,14.45 50.8,31.04 74.8,49.45 32.3,24.81 61.8,52.2 87.9,81.33 10,11.09 25.6,15.1 39.4,9.52 l 130.1,-51.11 c 17.9,-6.87 38,0.82 46.3,17.94 l 53.9,108.67 15.3,31.18 c 8.5,16.98 2.8,37.76 -13.2,47.87 l -112.4,71.92 c -13.2,8.19 -19.7,23.77 -15.9,38.52 10.4,44.36 16.3,89.71 17.1,135.08 0.4,3.97 0.4,7.58 0.4,11.46 -0.1,1.31 0.1,2.58 0.2,3.85 1.4,14.54 11.5,26.65 25.5,31 l 150.5,47.63 c 1.8,0.42 3.4,1.23 4.9,1.94 14.7,7.12 23,23.58 19.9,39.89 l -30.9,153.94 c -3.7,18.59 -21,31.19 -40,29.16 l -172.1,-19.45 c -14.5,-1.82 -28.5,5.7 -35.5,18.63 -15.5,28.27 -33.5,55.83 -53.8,82.42 -10.9,14.09 -22.1,27.59 -33.9,40.5 -9.4,10.55 -12.2,25.52 -7,38.66 l 60.8,155.31 c 6.7,17.07 -0.8,36.66 -17.4,44.92 l -140.7,69.44 c -17,8.43 -37.6,2.88 -48.1,-13.32 l -68,-106.54 c -9.1,-14.31 -26.6,-20.41 -42.5,-15.08 -62.5,21.67 -128.1,33.28 -194.2,34.88 -15.6,0.12 -29.4,10.47 -34.2,25.56 l -42.8,135.62 c -5.8,18.2 -24.4,29.05 -43.1,25.44 l -153.4,-30.71 c -18.4,-3.64 -30.9,-20.99 -28.6,-39.37 l 0.7,-7.2 16,-143.21 c 1.7,-15.33 -6.2,-29.8 -19.9,-36.92 l -0.1,-0.1 c -32.9,-16.99 -64.7,-37.09 -95.2,-60.47 -16.2,-12.46 -31.5,-25.56 -46.4,-39.24 -10.2,-9.64 -24.9,-12.48 -37.9,-7.41 l -132.1,51.89 c -18,7.15 -38.6,-0.86 -47,-18.09 l -69.2,-140.11 c -2,-4.01 -3.1,-8.26 -3.6,-12.33 -1.4,-13.38 4.8,-27.12 16.6,-34.74 l 90,-57.2 c 10.9,-7.13 17.3,-19.6 16.8,-32.32 -0.2,-3.34 -0.8,-6.75 -1.8,-10.1 -27.4,-80.37 -38.4,-165.24 -32.4,-250 1.2,-14.37 -6.8,-27.79 -19.3,-34.41 -1.8,-0.93 -3.7,-1.72 -5.7,-2.35 l -121.9,-38.48 c -17.7,-5.55 -28.3,-23.53 -24.8,-41.82 l 0.7,-3.59 30,-150.07 c 4,-18.87 21.4,-31.5 40.5,-29.37"
         style="fill:#e9e9e9;fill-opacity:1;fill-rule:nonzero;stroke:none"
         id="path1375" /></g><g
       id="g1377"
       transform="scale(0.186739)"><path
         d="m 16171.7,7405.63 c -128.3,258.58 -572.5,81.56 -572.5,81.56 0,0 -218.1,-540.46 -307,-569.95 -88.8,-29.48 96.3,498.5 96.3,498.5 -179.9,-17.98 -586.7,-323.68 -586.7,-323.68 0,0 139.3,-552.32 46,-559.02 -93.4,-6.72 -98.5,495.33 -98.5,495.33 -160.6,-85.17 -280.4,-316.12 -280.4,-316.12 -134.8,-364.11 339.7,-518.41 339.7,-518.41 0,0 44.1,-192.45 -31.3,-438.24 v -0.01 c 0,0 -18.9,-46.36 -32.5,-121.49 l 46.6,9.24 c 1.4,13.25 3.1,26.15 5.5,38.66 v 0.23 l 0.1,0.55 c 1.8,7.82 4.3,18.97 7.6,32.58 v 0.05 0.07 c 8.7,30.67 14.2,53.15 17.4,69.22 v 0.15 c 25.2,95.88 64,221.99 100.3,254.02 0,0 -6.7,6.22 -14.3,19.38 4.6,-6.18 9.3,-12.62 14.3,-19.38 113.6,-154.97 517.8,-104.26 730.8,-14.6 213,89.65 103.7,133.05 -36,210.95 -139.8,77.89 -385,1.33 -466.9,26.49 -81.9,25.14 18.3,86.49 168.6,104.51 150.3,18.02 253.7,-115.31 497.4,-90.58 243.6,24.73 336.5,510.71 336.5,510.71 -154.9,-84.04 -469.1,-51.76 -491.8,2.92 -22.7,54.67 416.8,136.07 481.8,166.72 64.9,30.66 157.3,191.05 29,449.64"
         style="fill:#e9e9e9;fill-opacity:1;fill-rule:nonzero;stroke:none"
         id="path1379" /></g><g
       id="g1381"
       transform="scale(0.12655)"><path
         d="m 13048,7995.04 c -77,418.93 604.3,602.58 604.3,602.58 0,0 735.5,-445.61 866.5,-401.9 131,43.72 -554.5,503.79 -554.5,503.79 228.5,137.81 979.3,136.36 979.3,136.36 0,0 323.8,-775.66 440,-701.04 116.2,74.62 -321.7,672.18 -321.7,672.18 265,41.41 610.8,-125.47 610.8,-125.47 481.3,-310.96 57.1,-912.85 57.1,-912.85 0,0 118,-266.38 424.5,-490 v 0 c 0,0 63.2,-38.17 145.7,-114.9 l -63.2,-30.18 c -13.3,14.46 -26.8,28.13 -40.6,40.77 l -0.3,0.24 -0.6,0.55 c -9,7.74 -21.8,18.65 -37.7,31.85 l -0.1,0.08 h -0.1 c -37.3,28.6 -63.7,50.25 -81.7,66.45 l -0.1,0.16 c -114.6,90.95 -271.9,205.61 -343,211.46 0,0 2.2,13.19 -0.4,35.48 0.1,-11.3 0.3,-23.16 0.4,-35.48 2.7,-283.53 -519.6,-581.04 -850.5,-663.45 -330.9,-82.42 -240.3,65.42 -144,280.99 96.2,215.65 453.6,342 528.2,444.17 74.5,102.09 -98.2,85.97 -291.7,-25.68 -193.4,-111.58 -197.8,-360.49 -507.5,-546.74 -309.6,-186.25 -849,305.81 -849,305.81 257.3,37.69 599.9,353.61 578.3,438.24 -21.5,84.71 -612.7,-207.74 -716.5,-229 -103.8,-21.18 -354.8,86.61 -431.9,505.53"
         style="fill:#e9e9e9;fill-opacity:1;fill-rule:nonzero;stroke:none"
         id="path1383" /></g><g
       id="g1385"
       transform="scale(0.19101)"><path
         d="m 16077.9,3515.53 c 222.1,174.07 -35.4,564.26 -35.4,564.26 0,0 -560.7,101.62 -606.5,180.83 -45.9,79.21 496.3,6.7 496.3,6.7 -52.9,168.63 -426.2,497.46 -426.2,497.46 0,0 -501.1,-242.87 -526,-154.81 -25,88.06 454.7,192.4 454.7,192.4 -113.4,136.9 -358.3,205.8 -358.3,205.8 -375.3,56.86 -428.9,-427.99 -428.9,-427.99 0,0 -175.5,-80.41 -425.8,-56.9 v 0 c 0,0 -48.1,8.84 -122.7,6.96 l 18.1,-42.77 c 12.9,1.36 25.6,2.19 38,2.46 h 0.2 0.6 c 7.9,-0.16 19,-0.37 32.7,-0.79 v 0 h 0.2 c 31,-2.25 53.6,-3.09 69.6,-2.88 h 0.2 c 96.8,-5.13 225.2,-17.28 263,-45.6 0,0 4.7,7.54 15.8,17.44 -5.1,-5.55 -10.3,-11.37 -15.8,-17.44 -125.8,-139.52 2.9,-516.41 130.9,-702.53 128.1,-186.17 148,-72.98 194.9,76.28 46.8,149.21 -75.1,368.78 -67.3,452.18 7.9,83.45 86.5,-0.37 133.5,-140.68 47.1,-140.3 -60,-265.74 12,-494.11 72,-228.36 555.6,-220.88 555.6,-220.88 -111.2,131.67 -142.6,438.83 -94.7,471.39 47.8,32.57 212.9,-372.07 255.1,-428.14 42.2,-56.07 214.1,-112.77 436.2,61.36"
         style="fill:#e9e9e9;fill-opacity:1;fill-rule:nonzero;stroke:none"
         id="path1387" /></g><g
       id="g1389"
       transform="scale(0.169185)"><path
         d="m 15875.4,7657.95 c 0,0 29.4,587.09 303.8,955.15 13.5,18.02 32.6,26.12 51.4,26.12 32.3,0 64.1,-23.82 66,-62.32 0,-1.02 0,-2.05 0.1,-3.08 3.3,-104.15 -300.6,-565.33 -421.3,-915.87"
         style="fill:#f4f4f4;fill-opacity:1;fill-rule:nonzero;stroke:none"
         id="path1391" /></g><g
       id="g1393"
       transform="scale(0.173352)"><path
         d="m 15469.6,7308.73 c 0,0 241.3,730.33 715.3,1078.63 12.2,9 26.7,13.44 41,13.44 19.5,0 38.7,-8.23 51.6,-24.43 14.5,-18.29 22.5,-47.89 11,-95.76 -31,-127.66 -554.7,-586.3 -818.9,-971.88"
         style="fill:#f4f4f4;fill-opacity:1;fill-rule:nonzero;stroke:none"
         id="path1395" /></g><g
       id="g1397"
       transform="scale(0.12088)"><path
         d="m 16300,9383.4 c -314.3,303.97 -880.3,626.3 -932.5,737.5 -0.5,1.1 -1,2.2 -1.5,3.3 -24.3,54 18.1,109 69.8,109 11.2,0 22.7,-2.6 34.2,-8.2 485.2,-240.19 830,-841.6 830,-841.6"
         style="fill:#f4f4f4;fill-opacity:1;fill-rule:nonzero;stroke:none"
         id="path1399" /></g><g
       id="g1401"
       transform="scale(0.121744)"><path
         d="m 16300,9153.33 c -492.2,268.7 -1301.8,474.25 -1404.3,593.97 -38.4,44.9 -46,80.89 -40.4,108.36 7.7,37.7 42.1,63.22 79.6,63.22 4.5,0 9,-0.36 13.5,-1.1 696.3,-114.65 1351.6,-764.45 1351.6,-764.45"
         style="fill:#f4f4f4;fill-opacity:1;fill-rule:nonzero;stroke:none"
         id="path1403" /></g><g
       id="g1405"
       transform="scale(0.177342)"><path
         d="M 16300,7282.08 V 3726.03 c 0,-62.2 -44.9,-112.67 -100.3,-112.67 h -5130.6 c -55.3,0 -100.2,50.47 -100.2,112.67 v 3556.05 c 0,62.26 44.9,112.68 100.2,112.68 h 5130.6 c 55.4,0 100.3,-50.42 100.3,-112.68"
         style="fill:#b8c0c7;fill-opacity:1;fill-rule:nonzero;stroke:none"
         id="path1407" /></g><g
       id="g1409"
       transform="scale(0.174583)"><path
         d="m 16300,7603.38 v -292.94 h -5816.2 v 292.94 c 0,60.46 49,109.41 109.4,109.41 h 5597.4 c 60.4,0 109.4,-48.95 109.4,-109.41"
         style="fill:#43a1f6;fill-opacity:1;fill-rule:nonzero;stroke:none"
         id="path1411" /></g><g
       id="g1413"
       transform="scale(0.115284)"><path
         d="m 16145.8,11375.4 c 0,42.6 34.5,77.1 77.1,77.1 42.6,0 77.1,-34.5 77.1,-77.1 0,-42.6 -34.5,-77.2 -77.1,-77.2 -42.6,0 -77.1,34.6 -77.1,77.2"
         style="fill:#e9e9e9;fill-opacity:1;fill-rule:nonzero;stroke:none"
         id="path1415" /></g><g
       id="g1417"
       transform="scale(0.117434)"><path
         d="m 16148.6,11167.1 c 0,41.9 33.9,75.8 75.7,75.8 41.8,0 75.7,-33.9 75.7,-75.8 0,-41.8 -33.9,-75.7 -75.7,-75.7 -41.8,0 -75.7,33.9 -75.7,75.7"
         style="fill:#e9e9e9;fill-opacity:1;fill-rule:nonzero;stroke:none"
         id="path1419" /></g><g
       id="g1421"
       transform="scale(0.119638)"><path
         d="m 16151.3,10961.4 c 0,41 33.3,74.3 74.3,74.3 41.1,0 74.4,-33.3 74.4,-74.3 0,-41.1 -33.3,-74.3 -74.4,-74.3 -41,0 -74.3,33.2 -74.3,74.3"
         style="fill:#e9e9e9;fill-opacity:1;fill-rule:nonzero;stroke:none"
         id="path1423" /></g><g
       id="g1425"
       transform="scale(0.159761)"><path
         d="m 16060.7,8989.2 c 4.4,-10.89 7.9,-22.61 10.3,-35.15 4.7,-23.9 -0.2,-61.63 -11,-83.5 -1.1,-2.35 -2.3,-4.64 -3.5,-6.93 -74.4,-138.18 -269.6,-110.69 -301.7,45.21 -4.1,20.4 -1.6,50.08 5.8,72.83 1.7,5.25 3.6,10.18 5.7,14.37 10,19.84 22.3,36.45 36.4,49.97 80.1,76.96 214,51.76 258,-56.8 z m -486.7,-216.04 76.1,8.57 c 6.3,0.66 12.5,-2.3 16,-7.64 4.3,-6.83 9.1,-13.53 14.1,-20.1 9.4,-12.19 19.4,-23.46 30.1,-33.63 5.1,-4.78 6.7,-12.03 4.1,-18.42 l -29.1,-74.5 c -3.2,-7.92 0.3,-17.02 8.1,-20.84 l 65.5,-32.46 c 7.5,-3.67 16.4,-1.15 20.9,5.77 l 39.6,62.1 c 3.8,6.12 11.1,8.96 18.3,7.07 30.1,-7.96 61.5,-11.07 92.7,-9.25 7.6,0.43 14.7,-4.48 16.9,-11.69 l 13.4,-42.76 c 2.7,-8.09 11,-13.11 19.4,-11.48 l 71.2,14.39 c 1.5,0.29 2.8,0.7 4.1,1.37 6.2,2.94 10,9.65 9.1,16.67 l -6.3,56.84 -1.6,13.85 c 11.9,6.67 23.4,14.31 34.5,22.8 14.9,11.44 28.5,24.07 40.5,37.5 4.7,5.12 11.9,6.96 18.2,4.4 l 60,-23.58 c 8.3,-3.16 17.5,0.38 21.3,8.28 l 24.9,50.11 7.1,14.37 c 3.9,7.83 1.3,17.42 -6.1,22.07 l -51.9,33.17 c -6.1,3.78 -9,10.96 -7.3,17.76 4.9,20.46 7.6,41.37 7.9,62.29 0.2,1.82 0.2,3.49 0.2,5.29 0,0.6 0,1.18 0.1,1.77 0.6,6.7 5.3,12.29 11.8,14.29 l 69.3,21.97 c 0.8,0.18 1.6,0.56 2.3,0.89 6.7,3.28 10.6,10.87 9.2,18.4 l -14.3,70.98 c -1.7,8.57 -9.7,14.38 -18.4,13.44 l -79.4,-8.96 c -6.7,-0.84 -13.1,2.62 -16.3,8.59 -7.2,13.03 -15.5,25.74 -24.9,38 -5,6.5 -10.2,12.72 -15.6,18.68 -4.3,4.86 -5.6,11.76 -3.2,17.82 l 28,71.62 c 3.1,7.86 -0.3,16.9 -8,20.71 l -64.9,32.02 c -7.8,3.89 -17.3,1.33 -22.1,-6.15 l -31.4,-49.12 c -4.2,-6.6 -12.3,-9.41 -19.7,-6.95 -28.8,10 -59,15.34 -89.5,16.08 -7.2,0.05 -13.6,4.83 -15.7,11.79 l -19.8,62.53 c -2.7,8.39 -11.2,13.4 -19.9,11.73 l -70.7,-14.16 c -8.4,-1.67 -14.3,-9.67 -13.2,-18.15 l 0.3,-3.32 7.4,-66.03 c 0.8,-7.08 -2.8,-13.75 -9.1,-17.03 l -0.1,-0.05 c -15.2,-7.83 -29.9,-17.1 -43.9,-27.88 -7.5,-5.74 -14.5,-11.79 -21.4,-18.1 -4.7,-4.44 -11.4,-5.75 -17.5,-3.41 l -60.9,23.92 c -8.3,3.3 -17.7,-0.39 -21.7,-8.33 l -31.9,-64.61 c -0.9,-1.85 -1.4,-3.81 -1.6,-5.69 -0.7,-6.17 2.2,-12.5 7.6,-16.02 l 41.5,-26.38 c 5.1,-3.28 8,-9.03 7.8,-14.9 -0.1,-1.54 -0.3,-3.11 -0.8,-4.65 -12.7,-37.06 -17.7,-76.2 -15,-115.28 0.6,-6.62 -3.1,-12.81 -8.9,-15.87 -0.8,-0.42 -1.7,-0.79 -2.6,-1.08 l -56.2,-17.74 c -8.2,-2.56 -13,-10.86 -11.4,-19.29 l 0.3,-1.65 13.8,-69.2 c 1.8,-8.71 9.9,-14.53 18.7,-13.55"
         style="fill:#e9e9e9;fill-opacity:1;fill-rule:nonzero;stroke:none"
         id="path1427" /></g><g
       id="g1429"
       transform="scale(0.109486)"><path
         d="m 16264.7,7590.29 c 0,0 12.4,134.72 -138.2,134.72 0,0 45.6,-12.33 69.3,-37.08 0,0 -96.1,56.36 -200.7,-30.32 -104.5,-86.59 -39.5,-303.97 -71.3,-345.16 -31.8,-41.29 -155.6,-49.6 -140.5,-182.95 15.2,-133.44 392.9,-300.58 368.6,-410.92 0,0 148.1,217.57 42.2,316.94 0,0 51.6,-48.68 56.9,-106.41 0,0 14,112.8 -57.8,148.88 -63.5,31.88 -115.5,148.69 -110,169.52 5.4,20.92 181.5,342.78 181.5,342.78"
         style="fill:#151f2c;fill-opacity:1;fill-rule:nonzero;stroke:none"
         id="path1431" /></g><g
       id="g1433"
       transform="scale(0.111523)"><path
         d="m 15822.2,6816.28 c 0,0 110.3,-457.04 218.8,-548.41 65.2,-54.87 259,-180.86 259,-180.86 l -80.6,-29.23 c 0,0 -268.8,90.74 -329,161.49 -60.2,70.75 -224.9,425.3 -224.9,425.3 l 156.7,171.71"
         style="fill:#ee805f;fill-opacity:1;fill-rule:nonzero;stroke:none"
         id="path1435" /></g><g
       id="g1437"
       transform="scale(0.106407)"><path
         d="m 15494.7,6302.48 c 0.9,-1.79 2.1,-3.76 3.1,-5.64 25.4,-43.98 83.5,-151.87 147.5,-270 30.3,-56.01 62,-114.28 92.1,-169.16 51.8,-94.73 98.9,-179.03 126.4,-223.58 28.1,-45.39 48.6,-77.15 56.9,-89.94 l 0.1,-0.09 c 2.5,-3.85 3,-8.46 2.7,-13.06 -2.9,-40.04 -2.1,-79.69 1.8,-118.79 38.6,-384.09 297.6,-590 297.6,-590 l 77.1,-11.37 c 0,0 -109,403.83 -141.1,632.1 -5.4,38.63 -7.8,70.01 -5.9,90.41 5.7,59.49 -4.9,146.79 -24.9,247.07 -35.5,178.18 -100.7,396.77 -157.4,571.86 -3.7,11.18 -111.9,402.98 -111.9,402.98 -90.9,-79.51 -422.6,-112.31 -422.6,-112.31 0,0 -56.2,-136.64 58.5,-340.48"
         style="fill:#384152;fill-opacity:1;fill-rule:nonzero;stroke:none"
         id="path1439" /></g><g
       id="g1441"
       transform="scale(0.107463)"><path
         d="m 16300,4667.11 h -318.3 c 0,0 -7.6,48.48 9,85.34 15.9,35.26 38.6,36.38 2.9,91.75 20.3,-20.85 85.2,-29.41 131.3,-23.27 5.6,-9.12 36.3,-70.44 55.1,-83.93 20.8,-14.99 113.6,-9.68 120,-69.89"
         style="fill:#151f2c;fill-opacity:1;fill-rule:nonzero;stroke:none"
         id="path1443" /></g><g
       id="g1445"
       transform="scale(0.102648)"><path
         d="m 16062.1,6533.27 c 1,-1.86 2.1,-3.9 3.2,-5.85 26.3,-45.59 168.4,-307.94 234.7,-430.3 -76.9,316.32 -23.4,632.64 -23.4,632.64 l -214.5,-196.49"
         style="fill:#151f2c;fill-opacity:1;fill-rule:nonzero;stroke:none"
         id="path1447" /></g><g
       id="g1449"
       transform="scale(0.110114)"><path
         d="m 16129.5,7565.79 c 2.1,8.17 -177.3,-81.1 -186.4,-91.18 -84.2,-93.36 -60.2,-215.14 -12,-216.32 30.9,-0.73 24.9,-52.13 24.9,-52.13 l 344,145.58 c 0,0 -41.4,241.56 -170.5,214.05"
         style="fill:#151f2c;fill-opacity:1;fill-rule:nonzero;stroke:none"
         id="path1451" /></g><g
       id="g1453"
       transform="scale(0.108536)"><path
         d="m 16246.8,7074.36 c 0,0 53.2,-106.14 46.6,-192.19 0,0 -64.1,-101.17 -230.2,-126.69 0,0 142.8,318.97 183.6,318.88"
         style="fill:#43a1f6;fill-opacity:1;fill-rule:nonzero;stroke:none"
         id="path1455" /></g><g
       id="g1457"
       transform="scale(0.102793)"><path
         d="m 16298.8,6851.81 1.2,62.17 c -124,-15.57 -427.6,148.25 -427.6,148.25 0,0 -129.6,-86.28 -147.4,-332.7 -8.7,-120.24 -63.6,-628.84 -69.6,-780.7 -2.2,-55.06 -2.9,-94.36 -3.2,-110.02 v -0.2 c 0,-4.76 -2.3,-9.04 -5.3,-12.74 -25.6,-32.69 -47.8,-67.22 -67.1,-103.02 -189.2,-352.07 -90.3,-830.31 -90.3,-830.31 l 43.9,11.09 c 0,0 160,495.85 264.6,710.36 17.7,36.38 33.9,64.69 47.3,81.04 39.3,47.76 80.8,128.89 121.7,226.47 77.2,184.45 331.8,930.31 331.8,930.31"
         style="fill:#384152;fill-opacity:1;fill-rule:nonzero;stroke:none"
         id="path1459" /></g><path
       d="m 1619.42,501.54 h -34.21 c 0,0 -0.82,5.21 0.97,9.17 1.71,3.79 4.39,5.52 3.75,10.11 2.17,-2.24 5.72,-4.74 10.66,-4.08 0.61,-0.98 3.91,-6.24 5.94,-7.69 2.23,-1.61 12.2,-1.04 12.89,-7.51"
       style="fill:#151f2c;fill-opacity:1;fill-rule:nonzero;stroke:none;stroke-width:0.1"
       id="path1461" /><g
       id="g1463"
       transform="scale(0.108182)"><path
         d="m 16094.4,6709.64 c -42.5,-7.21 6.9,-41.04 -51.5,-47.32 -83.1,-9.06 -168.9,-15.35 -213.9,-33.19 -16.4,-6.56 -27.3,-14.7 -30.8,-24.96 -19.5,-58.6 -142.9,-159.36 -142.9,-159.36 -550.5,25.05 -586,270.47 -586,270.47 357.3,347.01 661.3,536.14 912.5,559.52 61.1,5.73 143.6,-1.93 182.2,-19.13 87.8,-39.1 136,-158.16 136,-158.16 0,0 -44.2,-360.32 -205.6,-387.87"
         style="fill:#43a1f6;fill-opacity:1;fill-rule:nonzero;stroke:none"
         id="path1465" /></g><g
       id="g1467"
       transform="scale(0.106475)"><path
         d="m 16300,6769.07 c -84.4,-9.2 -171.7,-15.59 -217.3,-33.72 -18.7,278.94 113,488.75 113,488.75 0,0 85.8,-349.46 104.3,-455.03"
         style="fill:#2b6eb2;fill-opacity:1;fill-rule:nonzero;stroke:none"
         id="path1469" /></g><g
       id="g1471"
       transform="scale(0.10872)"><path
         d="m 16079.3,7197.19 c 15.6,-49.03 67.7,-188.56 139.9,-134.85 -2.4,10.4 12.8,40.75 30.7,71.47 22.9,39.28 50.1,79.47 50.1,79.47 l -117.7,103.2 -7,6.17 c -30.8,-53.81 -61.1,-79.66 -87.6,-99.43 -8.1,-6.07 -11.5,-16.47 -8.4,-26.03"
         style="fill:#ee805f;fill-opacity:1;fill-rule:nonzero;stroke:none"
         id="path1473" /></g><g
       id="g1475"
       transform="scale(0.10872)"><path
         d="m 16300,7213.28 c 0,0 -27.2,-40.1 -50.1,-79.47 -73.2,45.17 -73.2,135.67 -67.6,182.67 l 117.7,-103.2"
         style="fill:#de6b4d;fill-opacity:1;fill-rule:nonzero;stroke:none"
         id="path1477" /></g><g
       id="g1479"
       transform="scale(0.110082)"><path
         d="m 16101.7,7073.03 c 0,0 -175.5,97.65 -113,206.03 62.5,108.28 81.9,193.85 196.6,136.07 114.7,-57.68 112.4,-111.55 100.3,-152.79 -12,-41.15 -136.7,-211.93 -183.9,-189.31"
         style="fill:#ee805f;fill-opacity:1;fill-rule:nonzero;stroke:none"
         id="path1481" /></g><g
       id="g1483"
       transform="scale(0.110266)"><path
         d="m 16287.9,7313.3 c -7.9,48.06 -32.3,52.6 -49.4,49.42 -64.7,107.02 -170.4,65.21 -170.4,65.21 -56.4,-70.83 -138.1,-82.89 -138.1,-82.89 0,0 20.4,-37.82 104.1,-61.31 25.6,-7.07 54.7,-2.81 82.7,6.62 -58.1,-32.37 -118.9,-44.8 -118.9,-44.8 110.4,-10.06 215.4,90.87 226.3,101.67 5.1,-15.69 14,-48.43 8.7,-72.38 -7.3,-32.55 -36.2,-91.41 -18.5,-99.03 0,0 85.6,65.48 73.5,137.49"
         style="fill:#151f2c;fill-opacity:1;fill-rule:nonzero;stroke:none"
         id="path1485" /></g><g
       id="g1487"
       transform="scale(0.121993)"><path
         d="m 16148.9,4468.94 -1181.6,576.09 151.1,309.86 1181.6,-576.02 -151.1,-309.93"
         style="fill:#43a1f6;fill-opacity:1;fill-rule:nonzero;stroke:none"
         id="path1489" /></g><g
       id="g1491"
       transform="scale(0.113892)"><path
         d="m 15636.1,5334.44 c -116.2,56.63 -198.8,161.64 -226.5,287.99 -11.2,51.28 21.2,101.94 72.4,113.27 51.4,11.24 102.1,-21.17 113.4,-72.44 15.2,-69.28 60.4,-126.79 124.1,-157.87 114.1,-55.67 252.2,-7.99 307.9,106.15 55.6,114.15 8.1,252.26 -106.1,307.93 -51.9,25.29 -110.8,30.2 -166.1,13.87 -50.3,-14.84 -103.3,13.87 -118.1,64.27 -14.9,50.4 13.9,103.26 64.3,118.18 100.8,29.77 208.6,20.81 303.2,-25.37 208.5,-101.59 295.4,-353.85 193.7,-562.29 -101.6,-208.35 -353.8,-295.28 -562.2,-193.69"
         style="fill:#43a1f6;fill-opacity:1;fill-rule:nonzero;stroke:none"
         id="path1493" /></g><g
       id="g1495"
       transform="scale(0.125918)"><path
         d="m 15762.2,4035.39 c -188.5,91.97 -267.2,320.05 -175.2,508.58 91.9,188.54 320,267.16 508.5,175.2 85.6,-41.7 152.1,-113.41 187,-201.96 17.5,-44.23 -4.1,-94.19 -48.3,-111.66 -44.2,-17.39 -94.1,4.21 -111.6,48.44 -19.2,48.45 -55.5,87.68 -102.5,110.55 -103.2,50.35 -228.1,7.31 -278.5,-95.93 -50.3,-103.24 -7.3,-228.25 96,-278.51 57.5,-28.12 123.7,-28.28 181.5,-0.56 42.9,20.57 94.3,2.46 114.8,-40.34 20.5,-42.81 2.5,-94.19 -40.4,-114.76 -105.4,-50.59 -226.2,-50.27 -331.3,0.95"
         style="fill:#43a1f6;fill-opacity:1;fill-rule:nonzero;stroke:none"
         id="path1497" /></g><g
       id="g1499"
       transform="scale(0.119356)"><path
         d="m 16225.5,4848.44 -636.2,310.17 c -18.2,8.88 -25.9,31.08 -17,49.35 l 16.1,33.18 c 9,18.26 31.2,25.88 49.4,17 l 636.2,-310.16 c 18.3,-8.88 26,-31.08 17,-49.35 l -16.1,-33.18 c -8.9,-18.26 -31.1,-25.89 -49.4,-17.01"
         style="fill:#2b6eb2;fill-opacity:1;fill-rule:nonzero;stroke:none"
         id="path1501" /></g><g
       id="g1503"
       transform="scale(0.108552)"><path
         d="m 16226.7,5950.6 c 0,0 3.7,-33.17 17.8,-50.3 14,-17.04 54.8,-58.5 55.5,-82.82 0,0 -2,-10.69 -10.8,-8.75 -8.7,1.94 -39.1,32.06 -54.7,29.85 0,0 8.3,-48.64 16.6,-62.28 8.2,-13.72 23.4,-65.31 18.4,-77.1 -5,-11.79 -87.4,56.93 -112.5,90.55 -24.9,33.63 -0.3,169.96 -0.3,169.96 l 70,-9.11"
         style="fill:#ee805f;fill-opacity:1;fill-rule:nonzero;stroke:none"
         id="path1505" /></g><g
       id="g1507"
       transform="scale(0.108064)"><path
         d="m 16132.2,7164.47 c 0,0 -209.3,11.38 -246.5,-120.02 -37.1,-131.31 69.8,-655.82 92.9,-709.95 41.9,-98.55 246.3,-379.87 246.3,-379.87 l 75.1,22.86 c 0,0 -136.3,429.75 -166.7,472.22 -47.7,66.81 61.6,657.58 -1.1,714.76"
         style="fill:#ee805f;fill-opacity:1;fill-rule:nonzero;stroke:none"
         id="path1509" /></g><g
       id="g1511"
       transform="scale(0.10786)"><path
         d="m 15874.4,6881.78 c 0.5,-3.15 198.5,-36.43 322.2,26.43 0,0 103.4,323.84 -44.4,308.36 -147.8,-15.48 -235.2,-62.03 -239,-132.76 -3.7,-70.74 -38.8,-202.03 -38.8,-202.03"
         style="fill:#43a1f6;fill-opacity:1;fill-rule:nonzero;stroke:none"
         id="path1513" /></g><g
       id="g1515"
       transform="scale(0.111383)"><path
         d="m 16220.7,6298.64 c -9.6,-0.45 -27.3,-3.59 -33.6,-8.53 -11.1,-8.53 -23.6,-23.34 1.2,-35.73 37.3,-18.5 111.7,-10.33 108.7,0.89 -9.1,35.11 -22.5,45.88 -76.3,43.37"
         style="fill:#ee805f;fill-opacity:1;fill-rule:nonzero;stroke:none"
         id="path1517" /></g><g
       id="g1519"
       transform="scale(0.129152)"><path
         d="m 16029.9,9738.52 c -8.5,-9.68 -9.6,-20.5 -5.4,-32.04 l 0.1,-0.16 c 7.7,-21.36 33.2,-45.21 62.9,-69.03 3.8,-3.05 7.2,-5.83 10.1,-8.41 0.8,-0.68 1.6,-1.35 2.3,-2.03 l 1.7,-1.58 c 27.7,-25.49 17.2,-31.34 66.9,-83.06 56.7,-58.95 95.7,-60.01 106.8,-54.64 9.4,4.58 -9.7,35.83 -30.8,70.98 -1,1.69 -2,3.4 -3.1,5.13 -2.8,4.66 -5.6,9.4 -8.5,14.1 -24.6,42.29 -18.3,62.13 -12.4,125.07 4.7,51.14 79.5,285.73 79.5,285.73 l -108.6,18.72 c 0,0 -32.6,-186.82 -68.7,-215.58 -19.2,-15.34 -40.8,-15.53 -59.3,-26.89 -1.3,-0.79 -2.6,-1.61 -3.9,-2.44 -10.5,-6.97 -21.2,-14.17 -29.6,-23.87"
         style="fill:#ee805f;fill-opacity:1;fill-rule:nonzero;stroke:none"
         id="path1521" /></g><g
       id="g1523"
       transform="scale(0.12903)"><path
         d="m 16044.9,9747.68 c -8.4,-9.68 -9.5,-20.51 -5.3,-32.07 l 0.1,-0.15 c 9.4,-21.36 34.3,-45.11 63.1,-68.87 3.7,-3.12 7,-5.98 10,-8.65 0.7,-0.67 1.5,-1.35 2.2,-2.03 l 1.8,-1.58 c 27.7,-25.51 17.2,-31.36 66.9,-83.14 56.8,-59.01 95.8,-60.06 106.9,-54.69 9.4,4.58 -9.7,35.87 -30.8,71.05 -11.1,4.03 -62.3,24.87 -101.1,74.47 -34.2,43.58 -56.9,99.56 -80.2,132 -1.3,-0.79 -2.6,-1.61 -3.9,-2.44 -10.5,-6.98 -21.2,-14.18 -29.7,-23.9"
         style="fill:#151f2c;fill-opacity:1;fill-rule:nonzero;stroke:none"
         id="path1525" /></g><g
       id="g1527"
       transform="scale(0.136545)"><path
         d="m 15989.9,9275.35 c 6.4,-31.69 51.6,-26.4 102,-14.07 50.5,12.34 38.5,-2.32 110.3,5.63 71.9,7.95 93.6,34.73 95.8,45.42 2,9.48 -33.5,12.82 -71.6,17.2 -4.8,0.54 -9.6,1.14 -14.4,1.73 -42.9,5.39 -74.4,33.13 -113.5,55.92 -37,21.58 -92.2,109.5 -92.2,109.5 l -98.5,-7.81 c 0,0 51.7,-78.52 71.7,-112.67 11.7,-20.08 11.1,-46.64 9.7,-67.14 -0.8,-11.14 -1.6,-22.54 0.7,-33.71"
         style="fill:#ee805f;fill-opacity:1;fill-rule:nonzero;stroke:none"
         id="path1529" /></g><g
       id="g1531"
       transform="scale(0.136545)"><path
         d="m 16091.9,9261.28 c 50.5,12.34 38.5,-2.32 110.3,5.63 71.9,7.95 93.6,34.73 95.8,45.42 2,9.48 -33.5,12.82 -71.6,17.2 l -0.3,-0.73 c 0,0 -43.1,-30.55 -102.9,-31.97 -48.8,-1.19 -100.4,12.78 -134,12.23 -0.8,-11.14 -1.6,-22.54 0.7,-33.71 6.4,-31.69 51.6,-26.4 102,-14.07"
         style="fill:#151f2c;fill-opacity:1;fill-rule:nonzero;stroke:none"
         id="path1533" /></g><g
       id="g1535"
       transform="scale(0.130784)"><path
         d="m 16300,10341.7 -96.1,-258.8 -125.6,-337.86 c 0,0 -34.1,-3.29 -66.7,6.09 -30,8.69 -64.5,31.41 -64.5,31.41 0,0 34.9,362.76 99.9,571.06 16.7,53.4 35.3,96.7 56,121 100.8,119.1 197,-132.9 197,-132.9"
         style="fill:#151f2c;fill-opacity:1;fill-rule:nonzero;stroke:none"
         id="path1537" /></g><g
       id="g1539"
       transform="scale(0.134563)"><path
         d="m 15747.3,10450.7 c -61.2,19.7 -235.9,-5.6 -411.3,-40 l -36.7,60.6 -379,29.6 c 0,0 -125,-277.3 -56.5,-454 10,-25.9 30,-42.6 64.1,-43.1 h 5.5 c 0,0 225.6,0.1 298.8,0.1 188.4,0 398.8,129.5 426,135 44.5,8.9 62.4,-80.2 106.9,-173.74 44.6,-93.53 418.7,-414.24 418.7,-414.24 0,0 57.5,-0.58 81.3,8.33 25.5,9.58 34.9,22.03 34.9,22.03 0,0 -414.6,824.82 -552.7,869.42"
         style="fill:#384152;fill-opacity:1;fill-rule:nonzero;stroke:none"
         id="path1541" /></g><g
       id="g1543"
       transform="scale(0.128433)"><path
         d="m 15897.8,12179.7 c -55.5,14.3 -131.7,0 -144.3,-1.2 -151.1,-14.9 -201.8,-183.4 -178.9,-314.1 21,-120.7 -40.2,-154.1 -111.1,-249.4 -142.2,-191.1 -49.3,-352.2 62.9,-393.7 67.4,-24.9 160.8,37.9 160.8,37.9 1.7,-0.6 293.7,191.4 413.5,299.6 199.3,78 -61.1,584.4 -202.9,620.9"
         style="fill:#151f2c;fill-opacity:1;fill-rule:nonzero;stroke:none"
         id="path1545" /></g><g
       id="g1547"
       transform="scale(0.125472)"><path
         d="m 16295.9,11901.4 c 4.1,-14.3 -63.6,-40.6 -115.2,-30.9 -48.5,9 -103,65.9 -91.7,71.2 18.5,8.9 31,30.8 20.8,149.6 l 9.3,-1.1 155.4,-17.7 c 0,0 0.5,-48.4 4.1,-93.8 3,-38 10.7,-53.9 17.3,-77.3"
         style="fill:#ee805f;fill-opacity:1;fill-rule:nonzero;stroke:none"
         id="path1549" /></g><g
       id="g1551"
       transform="scale(0.125307)"><path
         d="m 16295.9,12088.4 c 0,0 0.5,-48.5 4.1,-93.9 -85.9,-4.6 -137.6,69.9 -159.7,111.7 l 155.6,-17.8"
         style="fill:#de6b4d;fill-opacity:1;fill-rule:nonzero;stroke:none"
         id="path1553" /></g><g
       id="g1555"
       transform="scale(0.125966)"><path
         d="m 16242.7,11984.7 c 0,0 -201.4,-19.8 -211.8,105.8 -10.5,125.6 -43.5,207.6 84.6,225.6 128.1,18 157.2,-27.8 170.8,-68.9 13.7,-41.1 8.5,-254 -43.6,-262.5"
         style="fill:#ee805f;fill-opacity:1;fill-rule:nonzero;stroke:none"
         id="path1557" /></g><g
       id="g1559"
       transform="scale(0.125356)"><path
         d="m 16300,12396 c 0,0 -25.4,-154.2 -140.7,-190.8 -84.1,-26.7 -122.2,-9.1 -122.2,-9.1 0,0 40.5,53.7 54.9,128.3 4.2,22 19.8,40.1 41.1,47.1 59.8,19.6 132.2,73.4 166.9,24.5"
         style="fill:#151f2c;fill-opacity:1;fill-rule:nonzero;stroke:none"
         id="path1561" /></g><g
       id="g1563"
       transform="scale(0.126167)"><path
         d="m 16157.3,12283.6 c 0,0 37.9,-8.4 71.5,-57.3 18.3,-26.8 39.7,-94.1 36,-123.9 0,0 35.2,141.8 -16.2,194.5 -54.3,55.9 -91.3,-13.3 -91.3,-13.3"
         style="fill:#151f2c;fill-opacity:1;fill-rule:nonzero;stroke:none"
         id="path1565" /></g><g
       id="g1567"
       transform="scale(0.126677)"><path
         d="m 15780.3,11377.8 c 3.5,-15.1 6.6,-29.1 9,-42 4.1,-20.7 6.9,-38.6 8.9,-54.5 6.1,-49.2 4.3,-78.4 8.4,-110.3 2.3,-17.9 6.5,-36.6 15,-60.1 8.3,-22.9 225.9,-43.3 349.7,-35.1 39.3,2.6 69.3,8.1 79.9,17.3 44.2,38.4 39.8,-46 45.9,357.7 2.9,196.9 -167.1,372.3 -167.1,372.3 0,0 -13.6,-84.1 -182.2,16 -6,3.5 -72.4,-94.8 -136.4,-215.9 -70.4,-133.8 -51,-162.1 -31.1,-245.4"
         style="fill:#43a1f6;fill-opacity:1;fill-rule:nonzero;stroke:none"
         id="path1569" /></g><g
       id="g1571"
       transform="scale(0.130013)"><path
         d="m 16300,10142.7 -126.3,-339.86 c 0,0 -34.3,-3.3 -67.1,6.13 -30.2,8.74 -64.9,31.59 -64.9,31.59 0,0 35.1,364.94 100.5,574.44 l 157.8,-272.3"
         style="fill:#384152;fill-opacity:1;fill-rule:nonzero;stroke:none"
         id="path1573" /></g><g
       id="g1575"
       transform="scale(0.128115)"><path
         d="m 15949,11690.5 c 0,0 171.6,-29.1 191.7,-103 20.1,-73.8 159.3,-486.9 159.3,-486.9 0,0 -107.8,-36.8 -148.1,3.5 -40.3,40.2 -140.2,373.7 -140.2,373.7 l -62.7,212.7"
         style="fill:#43a1f6;fill-opacity:1;fill-rule:nonzero;stroke:none"
         id="path1577" /></g><g
       id="g1579"
       transform="scale(0.125718)"><path
         d="m 16228.2,12082.6 c 0,0 8.4,-20.7 30.8,-20.7 22.3,0 28.4,3.3 32.6,8.1 4.2,4.7 8.4,13.8 8.4,13.8 0,0 -37.1,7.3 -71.8,-1.2"
         style="fill:#ffffff;fill-opacity:1;fill-rule:nonzero;stroke:none"
         id="path1581" /></g><g
       id="g1583"
       transform="scale(0.125704)"><path
         d="m 15920.5,11368.7 c 6.2,-49.7 4.3,-79.1 8.5,-111.3 158.8,-0.5 371,122.6 371,122.6 l -379.5,-11.3"
         style="fill:#2b6eb2;fill-opacity:1;fill-rule:nonzero;stroke:none"
         id="path1585" /></g><g
       id="g1587"
       transform="scale(0.125704)"><path
         d="m 16300,11484.2 c 0,0 -247.3,7.3 -289,147.9 -45.8,154.4 -97.1,-63.5 -97.1,-63.5 l 27.2,-139.1 h 271.4 l 87.5,54.7"
         style="fill:#2b6eb2;fill-opacity:1;fill-rule:nonzero;stroke:none"
         id="path1589" /></g><g
       id="g1591"
       transform="scale(0.134218)"><path
         d="m 15669.8,11112.9 -12.6,31 c -13.4,33.2 -45.6,55 -81.5,55 h -230.9 v -146.5 -625.5 h 955.2 v 625.5 h -540.5 c -39.5,0 -75,23.9 -89.7,60.5"
         style="fill:#b8c0c7;fill-opacity:1;fill-rule:nonzero;stroke:none"
         id="path1593" /></g><g
       id="g1595"
       transform="scale(0.129147)"><path
         d="m 16097.2,11150.8 v 57.8 l 202.8,88.9 v -59.1 l -141.6,-58.3 141.6,-58.2 v -60 l -202.8,88.9"
         style="fill:#ffffff;fill-opacity:1;fill-rule:nonzero;stroke:none"
         id="path1597" /></g><g
       id="g1599"
       transform="scale(0.131245)"><path
         d="m 16246.8,11184.9 h 53.2 l -182.7,-381.9 h -53.2 l 182.7,381.9"
         style="fill:#ffffff;fill-opacity:1;fill-rule:nonzero;stroke:none"
         id="path1601" /></g><g
       id="g1603"
       transform="scale(0.133032)"><path
         d="m 16300,10881.3 v -56.2 l -196.9,-86.2 v 57.3 l 137.5,56.6 -137.5,56.5 v 58.2 l 196.9,-86.2"
         style="fill:#ffffff;fill-opacity:1;fill-rule:nonzero;stroke:none"
         id="path1605" /></g><g
       id="g1607"
       transform="scale(0.127227)"><path
         d="m 16104.8,11314.5 17.7,27.8 c 0,0 14,4.5 33.7,18.3 23.3,16.4 20.2,40.9 31.9,38.3 l 0.1,-53.9 -1.2,-0.2 c 50,-13.4 108.6,1.2 109.8,-11.3 3.2,-34.3 -23.4,-49.7 -45.6,-60.5 -17,-8.2 -36.3,-20.5 -67.1,-11 -22.4,7 -57.8,14.1 -57.8,14.1 l -21.5,38.4"
         style="fill:#ee805f;fill-opacity:1;fill-rule:nonzero;stroke:none"
         id="path1609" /></g><g
       id="g1611"
       transform="scale(0.125985)"><path
         d="m 16035.4,11904.1 c 0,0 -160.2,-10.5 -200.3,-73 -40,-62.4 -89.7,-379.6 -68.8,-488.6 20.8,-108.9 533.7,20.9 533.7,20.9 l -16.4,94.5 c 0,0 -295.9,-1.7 -312.8,36.8 -22.4,51.3 64.6,409.4 64.6,409.4"
         style="fill:#43a1f6;fill-opacity:1;fill-rule:nonzero;stroke:none"
         id="path1613" /></g><g
       id="g1615"
       transform="scale(0.130787)"><path
         d="m 16191.5,11342.7 c -1.3,-4 23.2,-44.4 58.3,-37.4 21.8,4.4 50.2,51.5 25.3,61.8 -41.7,17.3 -80.1,-13.7 -83.6,-24.4"
         style="fill:#ee805f;fill-opacity:1;fill-rule:nonzero;stroke:none"
         id="path1617" /></g><g
       id="g1619"
       transform="scale(0.146617)"><path
         d="m 15789,8224.94 -4.6,2.46 511,957.75 4.6,-2.47 -511,-957.74"
         style="fill:#151f2c;fill-opacity:1;fill-rule:nonzero;stroke:none"
         id="path1621" /></g><g
       id="g1623"
       transform="scale(0.16345)"><path
         d="m 16296.5,7680.42 -515.4,556.11 3.5,3.2 515.4,-556.11 -3.5,-3.2"
         style="fill:#151f2c;fill-opacity:1;fill-rule:nonzero;stroke:none"
         id="path1625" /></g><g
       id="g1627"
       transform="scale(0.166721)"><path
         d="m 16292.5,7372.13 c 7.5,-54.61 -7.5,-107.25 -37.7,-148.08 -30.2,-40.83 -75.6,-69.81 -129,-77.14 l -2259.3,-310.44 c -115.3,-15.84 -221.9,60.55 -236.9,169.76 -7.5,54.61 9.2,107.48 42.3,148.69 33,41.22 82.4,70.74 140.1,78.67 l 2259.3,310.44 c 106.6,14.65 206.1,-62.7 221.2,-171.9"
         style="fill:#e9e9e9;fill-opacity:1;fill-rule:nonzero;stroke:none"
         id="path1629" /></g><g
       id="g1631"
       transform="scale(0.166721)"><path
         d="m 16292.5,7372.13 c 7.5,-54.61 -7.5,-107.25 -37.7,-148.08 -30.2,-40.83 -75.6,-69.81 -129,-77.14 l -408.8,-56.17 -54.6,397.11 408.9,56.18 c 106.6,14.65 206.1,-62.7 221.2,-171.9"
         style="fill:#43a1f6;fill-opacity:1;fill-rule:nonzero;stroke:none"
         id="path1633" /></g><g
       id="g1635"
       transform="scale(0.165105)"><path
         d="m 16126.2,7499.32 c -33.9,-33.2 -34.6,-87.86 -1.4,-121.84 16.1,-16.46 37.7,-25.67 60.7,-25.94 22.9,-0.26 44.7,8.45 61.2,24.53 34,33.2 34.6,87.86 1.4,121.84 -33.2,33.98 -87.9,34.61 -121.9,1.41 z m 74.5,-163.8 c -5.1,-0.7 -10.2,-1.03 -15.4,-0.96 -27.6,0.32 -53.4,11.34 -72.6,31.05 -39.8,40.68 -39,106.11 1.7,145.86 40.7,39.75 106.1,38.99 145.8,-1.69 39.8,-40.68 39,-106.12 -1.6,-145.86 -16,-15.61 -36.1,-25.42 -57.9,-28.4"
         style="fill:#ffffff;fill-opacity:1;fill-rule:nonzero;stroke:none"
         id="path1637" /></g><g
       id="g1639"
       transform="scale(0.163329)"><path
         d="m 16198.2,7346.09 -12,12.29 101.8,99.44 12,-12.29 -101.8,-99.44"
         style="fill:#ffffff;fill-opacity:1;fill-rule:nonzero;stroke:none"
         id="path1641" /></g><g
       id="g1643"
       transform="scale(0.162775)"><path
         d="m 16211.9,7342.6 v 0 c -6,6.09 -5.8,15.83 0.2,21.76 l 60.2,58.76 c 6.1,5.95 15.8,5.84 21.7,-0.25 6,-6.07 5.9,-15.81 -0.2,-21.75 l -60.1,-58.77 c -6.1,-5.93 -15.9,-5.82 -21.8,0.25"
         style="fill:#ffffff;fill-opacity:1;fill-rule:nonzero;stroke:none"
         id="path1645" /></g><g
       id="g1647"
       transform="scale(0.12802)"><path
         d="m 16276.8,6790.76 h -614.7 c -12.8,0 -23.2,10.31 -23.2,23.12 v 9.76 c 0,12.81 10.4,23.2 23.2,23.2 h 614.7 c 12.8,0 23.2,-10.39 23.2,-23.2 v -9.76 c 0,-12.81 -10.4,-23.12 -23.2,-23.12"
         style="fill:#43a1f6;fill-opacity:1;fill-rule:nonzero;stroke:none"
         id="path1649" /></g><g
       id="g1651"
       transform="scale(0.12551)"><path
         d="m 16280.5,6729.8 h -309.4 c -10.8,0 -19.5,8.68 -19.5,19.52 0,10.76 8.7,19.52 19.5,19.52 h 309.4 c 10.7,0 19.5,-8.76 19.5,-19.52 0,-10.84 -8.8,-19.52 -19.5,-19.52"
         style="fill:#151f2c;fill-opacity:1;fill-rule:nonzero;stroke:none"
         id="path1653" /></g><g
       id="g1655"
       transform="scale(0.127324)"><path
         d="m 16282.1,6714.61 h -539.8 c -9.9,0 -17.9,8.09 -17.9,17.9 v 2.67 c 0,9.9 8,17.91 17.9,17.91 h 539.8 c 9.9,0 17.9,-8.01 17.9,-17.91 v -2.67 c 0,-9.81 -8,-17.9 -17.9,-17.9"
         style="fill:#151f2c;fill-opacity:1;fill-rule:nonzero;stroke:none"
         id="path1657" /></g><g
       id="g1659"
       transform="scale(0.131933)"><path
         d="M 16283.3,6480.06 H 15798 c -9.2,0 -16.7,7.5 -16.7,16.75 v 3.71 c 0,9.25 7.5,16.68 16.7,16.68 h 485.3 c 9.3,0 16.7,-7.43 16.7,-16.68 v -3.71 c 0,-9.25 -7.4,-16.75 -16.7,-16.75"
         style="fill:#151f2c;fill-opacity:1;fill-rule:nonzero;stroke:none"
         id="path1661" /></g><g
       id="g1663"
       transform="scale(0.128482)"><path
         d="m 16280.9,6574.17 h -302.2 c -10.5,0 -19.1,8.49 -19.1,19.07 0,10.51 8.6,19.07 19.1,19.07 h 302.2 c 10.5,0 19.1,-8.56 19.1,-19.07 0,-10.58 -8.6,-19.07 -19.1,-19.07"
         style="fill:#151f2c;fill-opacity:1;fill-rule:nonzero;stroke:none"
         id="path1665" /></g><g
       id="g1667"
       transform="scale(0.133899)"><path
         d="m 16277.8,6492.59 h -587.7 c -12.2,0 -22.1,9.86 -22.1,22.11 v 9.33 c 0,12.25 9.9,22.18 22.1,22.18 h 587.7 c 12.3,0 22.2,-9.93 22.2,-22.18 v -9.33 c 0,-12.25 -9.9,-22.11 -22.2,-22.11"
         style="fill:#43a1f6;fill-opacity:1;fill-rule:nonzero;stroke:none"
         id="path1669" /></g><g
       id="g1671"
       transform="scale(0.12802)"><path
         d="m 16276.8,6368.48 h -614.7 c -12.8,0 -23.2,10.31 -23.2,23.12 v 9.76 c 0,12.81 10.4,23.2 23.2,23.2 h 614.7 c 12.8,0 23.2,-10.39 23.2,-23.2 v -9.76 c 0,-12.81 -10.4,-23.12 -23.2,-23.12"
         style="fill:#43a1f6;fill-opacity:1;fill-rule:nonzero;stroke:none"
         id="path1673" /></g><g
       id="g1675"
       transform="scale(0.12551)"><path
         d="m 16280.5,6299.08 h -309.4 c -10.8,0 -19.5,8.68 -19.5,19.52 0,10.75 8.7,19.52 19.5,19.52 h 309.4 c 10.7,0 19.5,-8.77 19.5,-19.52 0,-10.84 -8.8,-19.52 -19.5,-19.52"
         style="fill:#151f2c;fill-opacity:1;fill-rule:nonzero;stroke:none"
         id="path1677" /></g><g
       id="g1679"
       transform="scale(0.127324)"><path
         d="m 16282.1,6290.02 h -539.8 c -9.9,0 -17.9,8.01 -17.9,17.91 v 2.67 c 0,9.89 8,17.9 17.9,17.9 h 539.8 c 9.9,0 17.9,-8.01 17.9,-17.9 v -2.67 c 0,-9.9 -8,-17.91 -17.9,-17.91"
         style="fill:#151f2c;fill-opacity:1;fill-rule:nonzero;stroke:none"
         id="path1681" /></g><g
       id="g1683"
       transform="scale(0.131933)"><path
         d="M 16283.3,6070.3 H 15798 c -9.2,0 -16.7,7.51 -16.7,16.75 v 3.71 c 0,9.25 7.5,16.68 16.7,16.68 h 485.3 c 9.3,0 16.7,-7.43 16.7,-16.68 v -3.71 c 0,-9.24 -7.4,-16.75 -16.7,-16.75"
         style="fill:#151f2c;fill-opacity:1;fill-rule:nonzero;stroke:none"
         id="path1685" /></g><g
       id="g1687"
       transform="scale(0.128482)"><path
         d="m 16280.9,6153.41 h -302.2 c -10.5,0 -19.1,8.48 -19.1,19.07 0,10.51 8.6,19.07 19.1,19.07 h 302.2 c 10.5,0 19.1,-8.56 19.1,-19.07 0,-10.59 -8.6,-19.07 -19.1,-19.07"
         style="fill:#151f2c;fill-opacity:1;fill-rule:nonzero;stroke:none"
         id="path1689" /></g><g
       id="g1691"
       transform="scale(0.133899)"><path
         d="m 16277.8,6088.86 h -587.7 c -12.2,0 -22.1,9.85 -22.1,22.1 v 9.34 c 0,12.24 9.9,22.18 22.1,22.18 h 587.7 c 12.3,0 22.2,-9.94 22.2,-22.18 v -9.34 c 0,-12.25 -9.9,-22.1 -22.2,-22.1"
         style="fill:#43a1f6;fill-opacity:1;fill-rule:nonzero;stroke:none"
         id="path1693" /></g><g
       id="g1695"
       transform="scale(0.152933)"><path
         d="m 16300,7479.53 -293.9,-68.39 -145.3,-264.44 -111,602.65 550.2,-269.82"
         style="fill:#384152;fill-opacity:1;fill-rule:nonzero;stroke:none"
         id="path1697" /></g><g
       id="g1699"
       transform="scale(0.151786)"><path
         d="m 16300,7276.02 -43.1,-32.69 -189.1,249.6 43.1,32.69 189.1,-249.6"
         style="fill:#384152;fill-opacity:1;fill-rule:nonzero;stroke:none"
         id="path1701" /></g><g
       id="g1703"
       transform="scale(0.151625)"><path
         d="m 16246.6,6287.57 h -728.9 c -29.5,0 -53.4,23.94 -53.4,53.42 v 728.92 c 0,29.5 23.9,53.41 53.4,53.41 h 728.9 c 29.5,0 53.4,-23.91 53.4,-53.41 v -728.92 c 0,-29.48 -23.9,-53.42 -53.4,-53.42"
         style="fill:#e9e9e9;fill-opacity:1;fill-rule:nonzero;stroke:none"
         id="path1705" /></g><g
       id="g1707"
       transform="scale(0.150766)"><path
         d="m 15659.7,6499.2 163.3,294.42 c 19,34.27 67.2,37.32 90.3,5.71 l 94.2,-128.49 c 20,-27.33 60.1,-29.51 83,-4.49 23.7,25.94 65.6,22.46 84.7,-7.06 l 101.6,-156.97 c 23.2,-35.76 -2.5,-82.91 -45.1,-82.91 h -525 c -41,0 -66.9,43.97 -47,79.79"
         style="fill:#2b6eb2;fill-opacity:1;fill-rule:nonzero;stroke:none"
         id="path1709" /></g><g
       id="g1711"
       transform="scale(0.149013)"><path
         d="m 16170,7012.76 c 0,35.9 29.1,65.01 65,65.01 35.9,0 65,-29.11 65,-65.01 0,-35.9 -29.1,-64.99 -65,-64.99 -35.9,0 -65,29.09 -65,64.99"
         style="fill:#2b6eb2;fill-opacity:1;fill-rule:nonzero;stroke:none"
         id="path1713" /></g><g
       id="g1715"
       transform="scale(0.161535)"><path
         d="m 16253.4,5880.71 -677.9,-92.49 c -27.5,-3.71 -52.7,15.48 -56.4,42.9 l -92.5,677.92 c -3.8,27.44 15.4,52.72 42.9,56.46 l 677.8,92.47 c 27.5,3.74 52.8,-15.46 56.5,-42.91 l 92.5,-677.89 c 3.7,-27.43 -15.5,-52.75 -42.9,-56.46"
         style="fill:#e9e9e9;fill-opacity:1;fill-rule:nonzero;stroke:none"
         id="path1717" /></g><g
       id="g1719"
       transform="scale(0.160536)"><path
         d="m 15700.1,5994.68 114.6,294.7 c 13.3,34.3 57.7,43.24 83.3,16.77 l 103.9,-107.59 c 22.1,-22.92 59.7,-19.87 77.8,6.36 18.8,27.14 58.2,29.2 79.7,4.17 l 114.6,-133.18 c 26,-30.27 8.1,-77.43 -31.5,-82.85 l -488.6,-66.65 c -38.1,-5.23 -67.8,32.46 -53.8,68.27"
         style="fill:#2b6eb2;fill-opacity:1;fill-rule:nonzero;stroke:none"
         id="path1721" /></g><g
       id="g1723"
       transform="scale(0.158263)"><path
         d="m 16174.1,6530.07 c -4.5,33.5 18.9,64.35 52.4,68.91 33.5,4.57 64.3,-18.87 69,-52.37 4.5,-33.49 -18.9,-64.34 -52.4,-68.91 -33.5,-4.57 -64.4,18.88 -69,52.37"
         style="fill:#2b6eb2;fill-opacity:1;fill-rule:nonzero;stroke:none"
         id="path1725" /></g><g
       id="g1727"
       transform="scale(0.14132)"><path
         d="m 16300,3564.4 h -451.9 v 387.42 H 16300 V 3564.4"
         style="fill:#43a1f6;fill-opacity:1;fill-rule:nonzero;stroke:none"
         id="path1729" /></g><g
       id="g1731"
       transform="scale(0.141452)"><path
         d="m 16300,3934.83 h -485 v 29.9 h 485 v -29.9"
         style="fill:#384152;fill-opacity:1;fill-rule:nonzero;stroke:none"
         id="path1733" /></g><g
       id="g1735"
       transform="scale(0.14132)"><path
         d="m 16300,3723.97 h -451.9 v 123.05 h 451.9 v -123.05"
         style="fill:#384152;fill-opacity:1;fill-rule:nonzero;stroke:none"
         id="path1737" /></g><g
       id="g1739"
       transform="scale(0.146331)"><path
         d="m 16272.7,3442.05 h -412 c -15.1,0 -27.4,12.23 -27.4,27.34 v 45.72 c 0,16.26 14.2,28.9 30.4,27.13 l 412,-45.72 c 13.8,-1.5 24.3,-13.26 24.3,-27.13 0,-15.11 -12.2,-27.34 -27.3,-27.34"
         style="fill:#43a1f6;fill-opacity:1;fill-rule:nonzero;stroke:none"
         id="path1741" /></g><g
       id="g1743"
       transform="scale(0.197955)"><path
         d="m 16289.7,2517.09 -8480.89,2.93 c -5.71,0 -10.35,4.65 -10.35,10.31 v 5.3 c 0,5.71 4.69,10.36 10.35,10.36 l 8480.89,-2.93 c 5.7,0 10.3,-4.65 10.3,-10.36 v -5.3 c 0,-5.66 -4.6,-10.31 -10.3,-10.31"
         style="fill:#944b34;fill-opacity:1;fill-rule:nonzero;stroke:none"
         id="path1745" /></g><g
       id="g1747"
       transform="scale(0.140406)"><path
         d="m 14591.9,7844.91 h -49.2 c -4.5,0 -8.2,3.65 -8.2,8.14 0,4.5 3.7,8.14 8.2,8.14 h 49.2 c 4.5,0 8.1,-3.64 8.1,-8.14 0,-4.49 -3.6,-8.14 -8.1,-8.14 z m 98.3,0 h -49.2 c -4.5,0 -8.2,3.65 -8.2,8.14 0,4.5 3.7,8.14 8.2,8.14 h 49.2 c 4.5,0 8.1,-3.64 8.1,-8.14 0,-4.49 -3.6,-8.14 -8.1,-8.14 z m 98.3,0 h -49.2 c -4.5,0 -8.1,3.65 -8.1,8.14 0,4.5 3.6,8.14 8.1,8.14 h 49.2 c 4.4,0 8.1,-3.64 8.1,-8.14 0,-4.49 -3.7,-8.14 -8.1,-8.14 z m 98.3,0 h -49.2 c -4.5,0 -8.1,3.65 -8.1,8.14 0,4.5 3.6,8.14 8.1,8.14 h 49.2 c 4.5,0 8.1,-3.64 8.1,-8.14 0,-4.49 -3.6,-8.14 -8.1,-8.14 z m 98.3,0 h -49.1 c -4.5,0 -8.2,3.65 -8.2,8.14 0,4.5 3.7,8.14 8.2,8.14 h 49.1 c 4.5,0 8.1,-3.64 8.1,-8.14 0,-4.49 -3.6,-8.14 -8.1,-8.14 z m 98.3,0 h -49.2 c -4.4,0 -8.1,3.65 -8.1,8.14 0,4.5 3.7,8.14 8.1,8.14 h 49.2 c 4.5,0 8.2,-3.64 8.2,-8.14 0,-4.49 -3.7,-8.14 -8.2,-8.14 z m 98.3,0 h -49.1 c -4.5,0 -8.2,3.65 -8.2,8.14 0,4.5 3.7,8.14 8.2,8.14 h 49.1 c 4.5,0 8.2,-3.64 8.2,-8.14 0,-4.49 -3.7,-8.14 -8.2,-8.14 z m 98.3,0 h -49.1 c -4.5,0 -8.1,3.65 -8.1,8.14 0,4.5 3.6,8.14 8.1,8.14 h 49.1 c 4.5,0 8.2,-3.64 8.2,-8.14 0,-4.49 -3.7,-8.14 -8.2,-8.14 z m 98.4,0 h -49.2 c -4.5,0 -8.1,3.65 -8.1,8.14 0,4.5 3.6,8.14 8.1,8.14 h 49.2 c 4.5,0 8.1,-3.64 8.1,-8.14 0,-4.49 -3.6,-8.14 -8.1,-8.14 z m 98.3,0 h -49.2 c -4.5,0 -8.1,3.65 -8.1,8.14 0,4.5 3.6,8.14 8.1,8.14 h 49.2 c 4.5,0 8.1,-3.64 8.1,-8.14 0,-4.49 -3.6,-8.14 -8.1,-8.14 z m 98.3,0 h -49.2 c -4.5,0 -8.1,3.65 -8.1,8.14 0,4.5 3.6,8.14 8.1,8.14 h 49.2 c 4.5,0 8.1,-3.64 8.1,-8.14 0,-4.49 -3.6,-8.14 -8.1,-8.14 z m 98.3,0 h -49.1 c -4.5,0 -8.2,3.65 -8.2,8.14 0,4.5 3.7,8.14 8.2,8.14 h 49.1 c 4.5,0 8.1,-3.64 8.1,-8.14 0,-4.49 -3.6,-8.14 -8.1,-8.14 z m 98.3,0 h -49.1 c -4.5,0 -8.2,3.65 -8.2,8.14 0,4.5 3.7,8.14 8.2,8.14 h 49.1 c 4.5,0 8.1,-3.64 8.1,-8.14 0,-4.49 -3.6,-8.14 -8.1,-8.14 z m 98.4,0 h -49.3 c -4.4,0 -8.1,3.65 -8.1,8.14 0,4.5 3.7,8.14 8.1,8.14 h 49.3 c 4.4,0 8.1,-3.64 8.1,-8.14 0,-4.49 -3.7,-8.14 -8.1,-8.14 z m 98.2,0 h -49.1 c -4.5,0 -8.1,3.65 -8.1,8.14 0,4.5 3.6,8.14 8.1,8.14 h 49.1 c 4.5,0 8.2,-3.64 8.2,-8.14 0,-4.49 -3.7,-8.14 -8.2,-8.14 z m 98.3,0 h -49.1 c -4.5,0 -8.1,3.65 -8.1,8.14 0,4.5 3.6,8.14 8.1,8.14 h 49.1 c 4.5,0 8.2,-3.64 8.2,-8.14 0,-4.49 -3.7,-8.14 -8.2,-8.14 z m 98.4,0 h -49.2 c -4.4,0 -8.1,3.65 -8.1,8.14 0,4.5 3.7,8.14 8.1,8.14 h 49.2 c 4.5,0 8.1,-3.64 8.1,-8.14 0,-4.49 -3.6,-8.14 -8.1,-8.14 z m -1717.7,-14.21 c -2.5,0 -5.1,1.26 -6.7,3.59 -2.5,3.71 -1.5,8.78 2.2,11.29 15,10.18 32.6,15.57 50.8,15.61 v 0 c 4.5,0 8.1,-3.63 8.1,-8.12 0.1,-4.5 -3.6,-8.14 -8.1,-8.16 -14.9,-0.03 -29.3,-4.46 -41.7,-12.8 -1.4,-0.95 -3,-1.41 -4.6,-1.41 z m 1812.2,-2.92 c -1.8,0 -3.5,0.55 -5,1.69 -11.8,9.1 -26,14.39 -40.9,15.31 -4.5,0.27 -7.9,4.13 -7.6,8.61 0.3,4.49 4.2,7.96 8.6,7.63 18.2,-1.12 35.4,-7.56 49.8,-18.64 3.6,-2.74 4.3,-7.84 1.5,-11.41 -1.6,-2.09 -4,-3.19 -6.4,-3.19 z m -1848.7,-83.07 c -4.5,0 -8.1,3.65 -8.1,8.13 v 17.19 c 0,11.84 2.2,23.35 6.6,34.24 1.7,4.17 6.4,6.18 10.6,4.48 4.1,-1.68 6.2,-6.42 4.5,-10.59 -3.6,-8.94 -5.5,-18.4 -5.5,-28.13 v -17.19 c 0,-4.48 -3.6,-8.13 -8.1,-8.13 z m 1881.2,-5 c -4.5,0 -8.1,3.65 -8.1,8.13 v 22.19 c 0,8.18 -1.4,16.22 -4,23.9 -1.4,4.26 0.9,8.88 5.2,10.31 4.2,1.44 8.8,-0.86 10.3,-5.12 3.1,-9.35 4.7,-19.14 4.7,-29.09 v -22.19 c 0,-4.48 -3.6,-8.13 -8.1,-8.13 z m -1881.2,-93.31 c -4.5,0 -8.1,3.64 -8.1,8.14 v 49.15 c 0,4.49 3.6,8.14 8.1,8.14 4.5,0 8.1,-3.65 8.1,-8.14 v -49.15 c 0,-4.5 -3.6,-8.14 -8.1,-8.14 z m 1881.2,-5 c -4.5,0 -8.1,3.64 -8.1,8.14 v 49.15 c 0,4.49 3.6,8.14 8.1,8.14 4.5,0 8.1,-3.65 8.1,-8.14 v -49.15 c 0,-4.5 -3.6,-8.14 -8.1,-8.14 z m -1881.2,-93.32 c -4.5,0 -8.1,3.65 -8.1,8.14 v 49.16 c 0,4.49 3.6,8.13 8.1,8.13 4.5,0 8.1,-3.64 8.1,-8.13 v -49.16 c 0,-4.49 -3.6,-8.14 -8.1,-8.14 z m 1881.2,-5 c -4.5,0 -8.1,3.64 -8.1,8.14 v 49.16 c 0,4.49 3.6,8.13 8.1,8.13 4.5,0 8.1,-3.64 8.1,-8.13 v -49.16 c 0,-4.5 -3.6,-8.14 -8.1,-8.14 z m -1881.2,-93.31 c -4.5,0 -8.1,3.64 -8.1,8.14 v 49.15 c 0,4.49 3.6,8.15 8.1,8.15 4.5,0 8.1,-3.66 8.1,-8.15 v -49.15 c 0,-4.5 -3.6,-8.14 -8.1,-8.14 z m 1881.2,-5 c -4.5,0 -8.1,3.64 -8.1,8.14 v 49.15 c 0,4.5 3.6,8.14 8.1,8.14 4.5,0 8.1,-3.64 8.1,-8.14 v -49.15 c 0,-4.5 -3.6,-8.14 -8.1,-8.14 z m -1881.2,-93.32 c -4.5,0 -8.1,3.65 -8.1,8.14 v 49.16 c 0,4.5 3.6,8.13 8.1,8.13 4.5,0 8.1,-3.63 8.1,-8.13 v -49.16 c 0,-4.49 -3.6,-8.14 -8.1,-8.14 z m 1881.2,-5 c -4.5,0 -8.1,3.65 -8.1,8.14 v 49.16 c 0,4.49 3.6,8.14 8.1,8.14 4.5,0 8.1,-3.65 8.1,-8.14 v -49.16 c 0,-4.49 -3.6,-8.14 -8.1,-8.14 z m -1881.2,-93.31 c -4.5,0 -8.1,3.64 -8.1,8.14 v 49.16 c 0,4.48 3.6,8.13 8.1,8.13 4.5,0 8.1,-3.65 8.1,-8.13 v -49.16 c 0,-4.5 -3.6,-8.14 -8.1,-8.14 z m 1881.2,-5 c -4.5,0 -8.1,3.64 -8.1,8.14 v 49.16 c 0,4.48 3.6,8.13 8.1,8.13 4.5,0 8.1,-3.65 8.1,-8.13 v -49.16 c 0,-4.5 -3.6,-8.14 -8.1,-8.14 z m -1881.2,-93.31 c -4.5,0 -8.1,3.64 -8.1,8.13 v 49.15 c 0,4.5 3.6,8.14 8.1,8.14 4.5,0 8.1,-3.64 8.1,-8.14 v -49.15 c 0,-4.49 -3.6,-8.13 -8.1,-8.13 z m 1881.2,-5.01 c -4.5,0 -8.1,3.65 -8.1,8.14 v 49.16 c 0,4.49 3.6,8.13 8.1,8.13 4.5,0 8.1,-3.64 8.1,-8.13 v -49.16 c 0,-4.49 -3.6,-8.14 -8.1,-8.14 z m -1881.2,-93.29 c -4.5,0 -8.1,3.63 -8.1,8.12 v 49.14 c 0,4.49 3.6,8.12 8.1,8.12 4.5,0 8.1,-3.63 8.1,-8.12 v -49.14 c 0,-4.49 -3.6,-8.12 -8.1,-8.12 z m 1881.2,-4.99 c -4.5,0 -8.1,3.64 -8.1,8.12 v 49.14 c 0,4.49 3.6,8.13 8.1,8.13 4.5,0 8.1,-3.64 8.1,-8.13 v -49.14 c 0,-4.48 -3.6,-8.12 -8.1,-8.12 z m -1881.2,-93.37 c -4.5,0 -8.1,3.71 -8.1,8.19 v 49.14 c 0,4.49 3.6,8.12 8.1,8.12 4.5,0 8.1,-3.63 8.1,-8.12 v -49.14 c 0,-4.48 -3.6,-8.19 -8.1,-8.19 z m 1881.2,-4.99 c -4.5,0 -8.1,3.64 -8.1,8.13 v 49.21 c 0,4.49 3.6,8.12 8.1,8.12 4.5,0 8.1,-3.63 8.1,-8.12 v -49.21 c 0,-4.49 -3.6,-8.13 -8.1,-8.13 z m -1881.2,-93.3 c -4.5,0 -8.1,3.64 -8.1,8.12 v 49.15 c 0,4.48 3.6,8.19 8.1,8.19 4.5,0 8.1,-3.71 8.1,-8.19 V 6868 c 0,-4.48 -3.6,-8.12 -8.1,-8.12 z m 1881.2,-4.98 c -4.5,0 -8.1,3.63 -8.1,8.12 v 49.14 c 0,4.49 3.6,8.19 8.1,8.19 4.5,0 8.1,-3.7 8.1,-8.19 v -49.14 c 0,-4.49 -3.6,-8.12 -8.1,-8.12 z M 14443,6771.71 c -1.7,0 -3.5,0.57 -4.9,1.71 -14.4,11.11 -25.1,26.14 -30.9,43.31 -1.4,4.27 0.9,8.9 5.2,10.32 4.2,1.43 8.8,-0.85 10.3,-5.13 4.7,-14.17 13.4,-26.42 25.3,-35.61 3.6,-2.7 4.2,-7.83 1.5,-11.39 -1.6,-2.07 -4,-3.21 -6.5,-3.21 z m 1812.5,-2.92 c -2.7,0 -5.2,1.28 -6.8,3.56 -2.5,3.78 -1.5,8.83 2.2,11.33 12.3,8.4 21.9,20.15 27.4,33.97 1.7,4.2 6.5,6.2 10.7,4.56 4.1,-1.71 6.1,-6.41 4.4,-10.61 -6.7,-16.81 -18.3,-31.13 -33.4,-41.38 -1.4,-0.93 -2.9,-1.43 -4.5,-1.43 z m -1718,-14.31 h -43.8 c -2,0 -3.9,0.07 -5.9,0.21 -4.5,0.28 -7.8,4.13 -7.5,8.62 0.3,4.49 4.1,7.97 8.6,7.62 1.6,-0.07 3.2,-0.14 4.8,-0.14 h 43.8 c 4.5,0 8.2,-3.64 8.2,-8.12 0,-4.49 -3.7,-8.19 -8.2,-8.19 z m 98.3,0 h -49.1 c -4.5,0 -8.1,3.7 -8.1,8.19 0,4.48 3.6,8.12 8.1,8.12 h 49.1 c 4.5,0 8.1,-3.64 8.1,-8.12 0,-4.49 -3.6,-8.19 -8.1,-8.19 z m 98.4,0 h -49.2 c -4.5,0 -8.2,3.7 -8.2,8.19 0,4.48 3.7,8.12 8.2,8.12 h 49.2 c 4.5,0 8.1,-3.64 8.1,-8.12 0,-4.49 -3.6,-8.19 -8.1,-8.19 z m 98.3,0 h -49.2 c -4.5,0 -8.2,3.7 -8.2,8.19 0,4.48 3.7,8.12 8.2,8.12 h 49.2 c 4.5,0 8.1,-3.64 8.1,-8.12 0,-4.49 -3.6,-8.19 -8.1,-8.19 z m 98.3,0 h -49.2 c -4.5,0 -8.1,3.7 -8.1,8.19 0,4.48 3.6,8.12 8.1,8.12 h 49.2 c 4.4,0 8.1,-3.64 8.1,-8.12 0,-4.49 -3.7,-8.19 -8.1,-8.19 z m 98.3,0 h -49.2 c -4.5,0 -8.1,3.7 -8.1,8.19 0,4.48 3.6,8.12 8.1,8.12 h 49.2 c 4.5,0 8.1,-3.64 8.1,-8.12 0,-4.49 -3.6,-8.19 -8.1,-8.19 z m 98.3,0 h -49.1 c -4.5,0 -8.2,3.7 -8.2,8.19 0,4.48 3.7,8.12 8.2,8.12 h 49.1 c 4.5,0 8.1,-3.64 8.1,-8.12 0,-4.49 -3.6,-8.19 -8.1,-8.19 z m 98.4,0 h -49.3 c -4.4,0 -8.1,3.7 -8.1,8.19 0,4.48 3.7,8.12 8.1,8.12 h 49.3 c 4.4,0 8.1,-3.64 8.1,-8.12 0,-4.49 -3.7,-8.19 -8.1,-8.19 z m 98.2,0 h -49.1 c -4.5,0 -8.2,3.7 -8.2,8.19 0,4.48 3.7,8.12 8.2,8.12 h 49.1 c 4.5,0 8.2,-3.64 8.2,-8.12 0,-4.49 -3.7,-8.19 -8.2,-8.19 z m 98.3,0 h -49.1 c -4.5,0 -8.1,3.7 -8.1,8.19 0,4.48 3.6,8.12 8.1,8.12 h 49.1 c 4.5,0 8.1,-3.64 8.1,-8.12 0,-4.49 -3.6,-8.19 -8.1,-8.19 z m 98.4,0 h -49.2 c -4.5,0 -8.1,3.7 -8.1,8.19 0,4.48 3.6,8.12 8.1,8.12 h 49.2 c 4.5,0 8.1,-3.64 8.1,-8.12 0,-4.49 -3.6,-8.19 -8.1,-8.19 z m 98.3,0 h -49.2 c -4.5,0 -8.1,3.7 -8.1,8.19 0,4.48 3.6,8.12 8.1,8.12 h 49.2 c 4.5,0 8.1,-3.64 8.1,-8.12 0,-4.49 -3.6,-8.19 -8.1,-8.19 z m 98.3,0 h -49.2 c -4.5,0 -8.1,3.7 -8.1,8.19 0,4.48 3.6,8.12 8.1,8.12 h 49.2 c 4.4,0 8.2,-3.64 8.2,-8.12 0,-4.49 -3.8,-8.19 -8.2,-8.19 z m 98.3,0 h -49.1 c -4.5,0 -8.2,3.7 -8.2,8.19 0,4.48 3.7,8.12 8.2,8.12 h 49.1 c 4.5,0 8.1,-3.64 8.1,-8.12 0,-4.49 -3.6,-8.19 -8.1,-8.19 z m 98.3,0 h -49.1 c -4.5,0 -8.2,3.7 -8.2,8.19 0,4.48 3.7,8.12 8.2,8.12 h 49.1 c 4.5,0 8.1,-3.64 8.1,-8.12 0,-4.49 -3.6,-8.19 -8.1,-8.19 z m 98.4,0 h -49.3 c -4.4,0 -8.1,3.7 -8.1,8.19 0,4.48 3.7,8.12 8.1,8.12 h 49.3 c 4.4,0 8.1,-3.64 8.1,-8.12 0,-4.49 -3.7,-8.19 -8.1,-8.19 z m 98.2,0 h -49.1 c -4.5,0 -8.1,3.7 -8.1,8.19 0,4.48 3.6,8.12 8.1,8.12 h 49.1 c 4.5,0 8.2,-3.64 8.2,-8.12 0,-4.49 -3.7,-8.19 -8.2,-8.19 z m 98.7,0 h -49.5 c -4.5,0 -8.1,3.7 -8.1,8.19 0,4.48 3.6,8.12 8.1,8.12 h 49.1 c 4.5,0 8.4,-3.64 8.4,-8.12 0,-4.49 -3.5,-8.19 -8,-8.19"
         style="fill:#151f2c;fill-opacity:1;fill-rule:nonzero;stroke:none"
         id="path1749" /></g><g
       id="g1751"
       transform="scale(0.163999)"><path
         d="m 15599.5,4849.37 h -37.1 c -3.4,0 -6.2,2.74 -6.2,6.15 0,3.42 2.6,6.16 6,6.16 h 37.3 c 3.4,0 6.2,-2.74 6.2,-6.16 0,-3.41 -2.8,-6.15 -6.2,-6.15 z m 74.6,0 h -37.3 c -3.4,0 -6.2,2.74 -6.2,6.15 0,3.42 2.8,6.16 6.2,6.16 h 37.3 c 3.4,0 6.1,-2.74 6.1,-6.16 0,-3.41 -2.7,-6.15 -6.1,-6.15 z m 74.6,0 h -37.4 c -3.4,0 -6.1,2.74 -6.1,6.15 0,3.42 2.7,6.16 6.1,6.16 h 37.4 c 3.4,0 6.1,-2.74 6.1,-6.16 0,-3.41 -2.7,-6.15 -6.1,-6.15 z m 74.5,0 h -37.3 c -3.4,0 -6.1,2.74 -6.1,6.15 0,3.42 2.7,6.16 6.1,6.16 h 37.3 c 3.4,0 6.2,-2.74 6.2,-6.16 0,-3.41 -2.8,-6.15 -6.2,-6.15 z m 74.5,0 h -37.2 c -3.4,0 -6.2,2.74 -6.2,6.15 0,3.42 2.8,6.16 6.2,6.16 h 37.2 c 3.5,0 6.3,-2.74 6.3,-6.16 0,-3.41 -2.8,-6.15 -6.3,-6.15 z m 74.6,0 h -37.2 c -3.5,0 -6.2,2.74 -6.2,6.15 0,3.42 2.7,6.16 6.2,6.16 h 37.2 c 3.4,0 6.2,-2.74 6.2,-6.16 0,-3.41 -2.8,-6.15 -6.2,-6.15 z m 74.6,0 h -37.3 c -3.4,0 -6.2,2.74 -6.2,6.15 0,3.42 2.8,6.16 6.2,6.16 h 37.3 c 3.4,0 6.1,-2.74 6.1,-6.16 0,-3.41 -2.7,-6.15 -6.1,-6.15 z m 74.6,0 h -37.3 c -3.4,0 -6.2,2.74 -6.2,6.15 0,3.42 2.8,6.16 6.2,6.16 h 37.3 c 3.4,0 6.1,-2.74 6.1,-6.16 0,-3.41 -2.7,-6.15 -6.1,-6.15 z m 74.5,0 h -37.3 c -3.4,0 -6.1,2.74 -6.1,6.15 0,3.42 2.7,6.16 6.1,6.16 h 37.3 c 3.4,0 6.2,-2.74 6.2,-6.16 0,-3.41 -2.8,-6.15 -6.2,-6.15 z m 74.6,-0.07 h -0.3 l -0.9,0.07 h -36.1 c -3.4,0 -6.2,2.74 -6.2,6.15 0,3.42 2.8,6.16 6.2,6.16 h 36.1 l 1.5,-0.06 c 3.4,-0.12 6,-2.99 5.9,-6.4 -0.2,-3.29 -2.9,-5.92 -6.2,-5.92 z m -732.6,-60.73 c -3.4,0 -6.2,2.75 -6.2,6.16 v 36.34 1.22 c 0.1,3.36 2.9,6.1 6.4,5.92 3.4,-0.19 6.1,-3.05 5.9,-6.4 v -0.74 -36.34 c 0,-3.41 -2.7,-6.16 -6.1,-6.16 z m 755.8,-0.97 c -3.4,0 -6.1,2.74 -6.1,6.15 v 37.26 c 0,3.42 2.7,6.16 6.1,6.16 3.5,0 6.2,-2.74 6.2,-6.16 v -37.26 c 0,-3.41 -2.7,-6.15 -6.2,-6.15 z M 15538,4714 c -3.4,0 -6.2,2.74 -6.2,6.16 v 37.31 c 0,3.42 2.8,6.16 6.2,6.16 3.4,0 6.1,-2.74 6.1,-6.16 v -37.31 c 0,-3.42 -2.7,-6.16 -6.1,-6.16 z m 755.8,-0.98 c -3.4,0 -6.1,2.75 -6.1,6.16 v 37.26 c 0,3.41 2.7,6.22 6.1,6.22 3.5,0 6.2,-2.81 6.2,-6.22 v -37.26 c 0,-3.41 -2.7,-6.16 -6.2,-6.16 z m -755.8,-73.59 c -3.4,0 -6.2,2.8 -6.2,6.15 v 37.32 c 0,3.42 2.8,6.16 6.2,6.16 3.4,0 6.1,-2.74 6.1,-6.16 v -37.32 c 0,-3.35 -2.7,-6.15 -6.1,-6.15 z m 755.8,-0.98 h -0.1 c -3.5,0.12 -6.1,2.99 -6,6.34 v 0.61 36.53 c 0,3.35 2.7,6.15 6.1,6.15 3.5,0 6.2,-2.8 6.2,-6.15 v -37.5 c -0.1,-3.36 -2.9,-5.98 -6.2,-5.98 z m -695.5,-23.6 h -35.9 -1.6 c -3.4,0.19 -6,3.05 -5.9,6.47 0.2,3.41 3,5.97 6.5,5.85 h 1 35.9 c 3.5,0 6.3,-2.75 6.3,-6.16 0,-3.41 -2.8,-6.16 -6.3,-6.16 z m 74.6,0 h -37.2 c -3.5,0 -6.2,2.75 -6.2,6.16 0,3.41 2.7,6.16 6.2,6.16 h 37.2 c 3.4,0 6.2,-2.75 6.2,-6.16 0,-3.41 -2.8,-6.16 -6.2,-6.16 z m 74.6,0 h -37.3 c -3.4,0 -6.2,2.75 -6.2,6.16 0,3.41 2.8,6.16 6.2,6.16 h 37.3 c 3.4,0 6.2,-2.75 6.2,-6.16 0,-3.41 -2.8,-6.16 -6.2,-6.16 z m 74.6,0 h -37.3 c -3.4,0 -6.2,2.75 -6.2,6.16 0,3.41 2.8,6.16 6.2,6.16 h 37.3 c 3.4,0 6.1,-2.75 6.1,-6.16 0,-3.41 -2.7,-6.16 -6.1,-6.16 z m 74.5,0 h -37.3 c -3.4,0 -6.1,2.75 -6.1,6.16 0,3.41 2.7,6.16 6.1,6.16 h 37.3 c 3.5,0 6.2,-2.75 6.2,-6.16 0,-3.41 -2.7,-6.16 -6.2,-6.16 z m 74.6,0 h -37.3 c -3.4,0 -6.2,2.75 -6.2,6.16 0,3.41 2.8,6.16 6.2,6.16 h 37.3 c 3.4,0 6.2,-2.75 6.2,-6.16 0,-3.41 -2.8,-6.16 -6.2,-6.16 z m 74.5,0 h -37.2 c -3.4,0 -6.2,2.75 -6.2,6.16 0,3.41 2.8,6.16 6.2,6.16 h 37.2 c 3.4,0 6.2,-2.75 6.2,-6.16 0,-3.41 -2.8,-6.16 -6.2,-6.16 z m 74.6,0 h -37.3 c -3.4,0 -6.1,2.75 -6.1,6.16 0,3.41 2.7,6.16 6.1,6.16 h 37.3 c 3.4,0 6.2,-2.75 6.2,-6.16 0,-3.41 -2.8,-6.16 -6.2,-6.16 z m 74.6,0 h -37.3 c -3.4,0 -6.2,2.75 -6.2,6.16 0,3.41 2.8,6.16 6.2,6.16 h 37.3 c 3.4,0 6.1,-2.75 6.1,-6.16 0,-3.41 -2.7,-6.16 -6.1,-6.16 z m 74.8,0 h -37.5 c -3.4,0 -6.2,2.75 -6.2,6.16 0,3.41 2.8,6.16 6.2,6.16 h 37.2 c 3.5,0 6.3,-2.75 6.3,-6.16 0,-3.41 -2.6,-6.16 -6,-6.16"
         style="fill:#151f2c;fill-opacity:1;fill-rule:nonzero;stroke:none"
         id="path1753" /></g><g
       id="g1755"
       transform="scale(0.137314)"><path
         d="m 15631.2,8833.24 h -49.1 c -4.7,0 -8.5,3.73 -8.5,8.32 0,4.59 3.7,8.32 8.3,8.32 h 49.3 c 4.6,0 8.3,-3.73 8.3,-8.32 0,-4.59 -3.7,-8.32 -8.3,-8.32 z m 98.5,0 h -49.3 c -4.6,0 -8.3,3.73 -8.3,8.32 0,4.59 3.7,8.32 8.3,8.32 h 49.3 c 4.6,0 8.3,-3.73 8.3,-8.32 0,-4.59 -3.7,-8.32 -8.3,-8.32 z m 98.5,0 h -49.2 c -4.6,0 -8.4,3.73 -8.4,8.32 0,4.59 3.8,8.32 8.4,8.32 h 49.2 c 4.6,0 8.4,-3.73 8.4,-8.32 0,-4.59 -3.8,-8.32 -8.4,-8.32 z m 98.6,0 h -49.3 c -4.6,0 -8.3,3.73 -8.3,8.32 0,4.59 3.7,8.32 8.3,8.32 h 49.3 c 4.6,0 8.3,-3.73 8.3,-8.32 0,-4.59 -3.7,-8.32 -8.3,-8.32 z m 98.6,0 h -49.3 c -4.6,0 -8.3,3.73 -8.3,8.32 0,4.59 3.7,8.32 8.3,8.32 h 49.3 c 4.6,0 8.3,-3.73 8.3,-8.32 0,-4.59 -3.7,-8.32 -8.3,-8.32 z m 98.5,0 h -49.3 c -4.6,0 -8.3,3.73 -8.3,8.32 0,4.59 3.7,8.32 8.3,8.32 h 49.3 c 4.6,0 8.3,-3.73 8.3,-8.32 0,-4.59 -3.7,-8.32 -8.3,-8.32 z m 98.5,0 h -49.3 c -4.6,0 -8.3,3.73 -8.3,8.32 0,4.59 3.7,8.32 8.3,8.32 h 49.3 c 4.6,0 8.3,-3.73 8.3,-8.32 0,-4.59 -3.7,-8.32 -8.3,-8.32 z m 69.3,-46.82 c -4.6,0 -8.3,3.73 -8.3,8.32 v 5.89 c 0,11.77 -6.4,22.68 -16.7,28.45 -4,2.26 -5.4,7.33 -3.1,11.33 2.2,4.01 7.3,5.43 11.3,3.18 15.5,-8.73 25.1,-25.19 25.1,-42.96 v -5.89 c 0,-4.59 -3.7,-8.32 -8.3,-8.32 z m -750.6,-28.49 c -4.6,0 -8.3,3.72 -8.3,8.32 v 34.38 c 0,6.03 1.1,11.93 3.2,17.52 1.7,4.29 6.5,6.45 10.8,4.82 4.3,-1.64 6.4,-6.44 4.8,-10.73 -1.4,-3.71 -2.1,-7.61 -2.1,-11.61 v -34.38 c 0,-4.6 -3.8,-8.32 -8.4,-8.32 z m 750.6,-70.06 c -4.6,0 -8.3,3.73 -8.3,8.33 v 49.27 c 0,4.59 3.7,8.31 8.3,8.31 4.6,0 8.3,-3.72 8.3,-8.31 v -49.27 c 0,-4.6 -3.7,-8.33 -8.3,-8.33 z m -750.6,-28.49 c -4.6,0 -8.3,3.73 -8.3,8.32 v 49.27 c 0,4.6 3.7,8.33 8.3,8.33 4.6,0 8.4,-3.73 8.4,-8.33 v -49.27 c 0,-4.59 -3.8,-8.32 -8.4,-8.32 z m 750.6,-70.05 c -4.6,0 -8.3,3.73 -8.3,8.33 v 49.26 c 0,4.6 3.7,8.32 8.3,8.32 4.6,0 8.3,-3.72 8.3,-8.32 v -49.26 c 0,-4.6 -3.7,-8.33 -8.3,-8.33 z m -750.6,-28.5 c -4.6,0 -8.3,3.73 -8.3,8.33 v 49.26 c 0,4.6 3.7,8.33 8.3,8.33 4.6,0 8.4,-3.73 8.4,-8.33 v -49.26 c 0,-4.6 -3.8,-8.33 -8.4,-8.33 z m 750.6,-70.05 c -4.6,0 -8.3,3.73 -8.3,8.33 v 49.27 c 0,4.59 3.7,8.32 8.3,8.32 4.6,0 8.3,-3.73 8.3,-8.32 v -49.27 c 0,-4.6 -3.7,-8.33 -8.3,-8.33 z m -750.6,-28.5 c -4.6,0 -8.3,3.73 -8.3,8.33 v 49.27 c 0,4.6 3.7,8.33 8.3,8.33 4.6,0 8.4,-3.73 8.4,-8.33 v -49.27 c 0,-4.6 -3.8,-8.33 -8.4,-8.33 z m 750.6,-70.04 c -4.6,0 -8.3,3.72 -8.3,8.32 v 49.27 c 0,4.6 3.7,8.32 8.3,8.32 4.6,0 8.3,-3.72 8.3,-8.32 v -49.27 c 0,-4.6 -3.7,-8.32 -8.3,-8.32 z m -750.6,-28.5 c -4.6,0 -8.3,3.73 -8.3,8.32 v 49.27 c 0,4.6 3.7,8.33 8.3,8.33 4.6,0 8.4,-3.73 8.4,-8.33 v -49.27 c 0,-4.59 -3.8,-8.32 -8.4,-8.32 z m 750.6,-70.05 c -4.6,0 -8.3,3.73 -8.3,8.33 v 49.27 c 0,4.59 3.7,8.32 8.3,8.32 4.6,0 8.3,-3.73 8.3,-8.32 v -49.27 c 0,-4.6 -3.7,-8.33 -8.3,-8.33 z m -750.6,-28.49 c -4.6,0 -8.3,3.73 -8.3,8.32 v 49.27 c 0,4.59 3.7,8.32 8.3,8.32 4.6,0 8.4,-3.73 8.4,-8.32 v -49.27 c 0,-4.59 -3.8,-8.32 -8.4,-8.32 z m 748,-69.74 c -1,0 -2,0.17 -2.9,0.54 -4.3,1.61 -6.5,6.41 -4.9,10.72 1.4,3.66 2.1,7.53 2.1,11.48 v 34.54 c 0,4.6 3.7,8.32 8.3,8.32 4.6,0 8.3,-3.72 8.3,-8.32 v -34.54 c 0,-5.96 -1,-11.8 -3.1,-17.35 -1.3,-3.33 -4.5,-5.39 -7.8,-5.39 z m -727.2,-21.2 c -1.4,0 -2.8,0.34 -4.1,1.08 -15.4,8.74 -25,25.16 -25,42.87 v 6.04 c 0,4.59 3.7,8.31 8.3,8.31 4.6,0 8.4,-3.72 8.4,-8.31 v -6.05 c 0,-11.72 6.3,-22.6 16.5,-28.38 4,-2.28 5.4,-7.36 3.1,-11.34 -1.5,-2.71 -4.4,-4.22 -7.2,-4.22 z m 97.6,-5.3 h -49.2 c -4.7,0 -8.4,3.72 -8.4,8.31 0,4.6 3.7,8.33 8.4,8.33 h 49.2 c 4.6,0 8.3,-3.73 8.3,-8.33 0,-4.59 -3.7,-8.31 -8.3,-8.31 z m 98.5,0 h -49.2 c -4.6,0 -8.4,3.72 -8.4,8.31 0,4.6 3.8,8.33 8.4,8.33 h 49.2 c 4.6,0 8.4,-3.73 8.4,-8.33 0,-4.59 -3.8,-8.31 -8.4,-8.31 z m 98.6,0 h -49.3 c -4.6,0 -8.3,3.72 -8.3,8.31 0,4.6 3.7,8.33 8.3,8.33 h 49.3 c 4.6,0 8.3,-3.73 8.3,-8.33 0,-4.59 -3.7,-8.31 -8.3,-8.31 z m 98.6,0 h -49.3 c -4.6,0 -8.3,3.72 -8.3,8.31 0,4.6 3.7,8.33 8.3,8.33 h 49.3 c 4.6,0 8.3,-3.73 8.3,-8.33 0,-4.59 -3.7,-8.31 -8.3,-8.31 z m 98.5,0 h -49.3 c -4.6,0 -8.3,3.72 -8.3,8.31 0,4.6 3.7,8.33 8.3,8.33 h 49.3 c 4.6,0 8.3,-3.73 8.3,-8.33 0,-4.59 -3.7,-8.31 -8.3,-8.31 z m 98.5,0 h -49.3 c -4.6,0 -8.3,3.72 -8.3,8.31 0,4.6 3.7,8.33 8.3,8.33 h 49.3 c 4.6,0 8.3,-3.73 8.3,-8.33 0,-4.59 -3.7,-8.31 -8.3,-8.31 z m 98.9,0 h -49.6 c -4.6,0 -8.3,3.72 -8.3,8.31 0,4.6 3.7,8.33 8.3,8.33 h 49.3 c 4.6,0 8.4,-3.73 8.4,-8.33 0,-4.59 -3.6,-8.31 -8.1,-8.31"
         style="fill:#151f2c;fill-opacity:1;fill-rule:nonzero;stroke:none"
         id="path1757" /></g><g
       id="g1759"
       transform="scale(0.163999)"><path
         d="m 15599.5,4505.28 h -37.1 c -3.4,0 -6.2,2.74 -6.2,6.16 0,3.41 2.6,6.15 6,6.15 h 37.3 c 3.4,0 6.2,-2.74 6.2,-6.15 0,-3.42 -2.8,-6.16 -6.2,-6.16 z m 74.6,0 h -37.3 c -3.4,0 -6.2,2.74 -6.2,6.16 0,3.41 2.8,6.15 6.2,6.15 h 37.3 c 3.4,0 6.1,-2.74 6.1,-6.15 0,-3.42 -2.7,-6.16 -6.1,-6.16 z m 74.6,0 h -37.4 c -3.4,0 -6.1,2.74 -6.1,6.16 0,3.41 2.7,6.15 6.1,6.15 h 37.4 c 3.4,0 6.1,-2.74 6.1,-6.15 0,-3.42 -2.7,-6.16 -6.1,-6.16 z m 74.5,0 h -37.3 c -3.4,0 -6.1,2.74 -6.1,6.16 0,3.41 2.7,6.15 6.1,6.15 h 37.3 c 3.4,0 6.2,-2.74 6.2,-6.15 0,-3.42 -2.8,-6.16 -6.2,-6.16 z m 74.5,0 h -37.2 c -3.4,0 -6.2,2.74 -6.2,6.16 0,3.41 2.8,6.15 6.2,6.15 h 37.2 c 3.5,0 6.3,-2.74 6.3,-6.15 0,-3.42 -2.8,-6.16 -6.3,-6.16 z m 74.6,0 h -37.2 c -3.5,0 -6.2,2.74 -6.2,6.16 0,3.41 2.7,6.15 6.2,6.15 h 37.2 c 3.4,0 6.2,-2.74 6.2,-6.15 0,-3.42 -2.8,-6.16 -6.2,-6.16 z m 74.6,0 h -37.3 c -3.4,0 -6.2,2.74 -6.2,6.16 0,3.41 2.8,6.15 6.2,6.15 h 37.3 c 3.4,0 6.1,-2.74 6.1,-6.15 0,-3.42 -2.7,-6.16 -6.1,-6.16 z m 74.6,0 h -37.3 c -3.4,0 -6.2,2.74 -6.2,6.16 0,3.41 2.8,6.15 6.2,6.15 h 37.3 c 3.4,0 6.1,-2.74 6.1,-6.15 0,-3.42 -2.7,-6.16 -6.1,-6.16 z m 74.5,0 h -37.3 c -3.4,0 -6.1,2.74 -6.1,6.16 0,3.41 2.7,6.15 6.1,6.15 h 37.3 c 3.4,0 6.2,-2.74 6.2,-6.15 0,-3.42 -2.8,-6.16 -6.2,-6.16 z m 74.6,-0.06 h -0.3 l -0.9,0.06 h -36.1 c -3.4,0 -6.2,2.74 -6.2,6.16 0,3.41 2.8,6.15 6.2,6.15 h 36.1 l 1.5,-0.06 c 3.4,-0.12 6,-2.98 5.9,-6.4 -0.2,-3.29 -2.9,-5.91 -6.2,-5.91 z m -732.6,-60.73 c -3.4,0 -6.2,2.74 -6.2,6.15 v 36.41 1.16 c 0.1,3.41 2.9,6.03 6.4,5.91 3.4,-0.12 6.1,-3.05 5.9,-6.4 v -0.67 -36.41 c 0,-3.41 -2.7,-6.15 -6.1,-6.15 z m 755.8,-0.98 c -3.4,0 -6.1,2.74 -6.1,6.16 v 37.25 c 0,3.42 2.7,6.22 6.1,6.22 3.5,0 6.2,-2.8 6.2,-6.22 v -37.25 c 0,-3.42 -2.7,-6.16 -6.2,-6.16 z m -755.8,-73.6 c -3.4,0 -6.2,2.8 -6.2,6.16 v 37.32 c 0,3.41 2.8,6.16 6.2,6.16 3.4,0 6.1,-2.75 6.1,-6.16 v -37.32 c 0,-3.36 -2.7,-6.16 -6.1,-6.16 z m 755.8,-0.98 c -3.4,0 -6.1,2.75 -6.1,6.16 v 37.26 c 0,3.41 2.7,6.22 6.1,6.22 3.5,0 6.2,-2.81 6.2,-6.22 v -37.26 c 0,-3.41 -2.7,-6.16 -6.2,-6.16 z m -755.8,-73.59 c -3.4,0 -6.2,2.8 -6.2,6.22 v 37.25 c 0,3.42 2.8,6.16 6.2,6.16 3.4,0 6.1,-2.74 6.1,-6.16 v -37.25 c 0,-3.42 -2.7,-6.22 -6.1,-6.22 z m 755.8,-0.98 h -0.1 c -3.5,0.12 -6.1,2.99 -6,6.4 v 0.55 36.53 c 0,3.41 2.7,6.16 6.1,6.16 3.5,0 6.2,-2.75 6.2,-6.16 v -37.5 c -0.1,-3.36 -2.9,-5.98 -6.2,-5.98 z m -695.5,-23.6 h -35.9 -1.6 c -3.4,0.19 -6,3.11 -5.9,6.47 0.2,3.41 3,6.1 6.5,5.91 l 1,-0.06 h 35.9 c 3.5,0 6.3,-2.74 6.3,-6.16 0,-3.41 -2.8,-6.16 -6.3,-6.16 z m 74.6,0 h -37.2 c -3.5,0 -6.2,2.75 -6.2,6.16 0,3.42 2.7,6.16 6.2,6.16 h 37.2 c 3.4,0 6.2,-2.74 6.2,-6.16 0,-3.41 -2.8,-6.16 -6.2,-6.16 z m 74.6,0 h -37.3 c -3.4,0 -6.2,2.75 -6.2,6.16 0,3.42 2.8,6.16 6.2,6.16 h 37.3 c 3.4,0 6.2,-2.74 6.2,-6.16 0,-3.41 -2.8,-6.16 -6.2,-6.16 z m 74.6,0 h -37.3 c -3.4,0 -6.2,2.75 -6.2,6.16 0,3.42 2.8,6.16 6.2,6.16 h 37.3 c 3.4,0 6.1,-2.74 6.1,-6.16 0,-3.41 -2.7,-6.16 -6.1,-6.16 z m 74.5,0 h -37.3 c -3.4,0 -6.1,2.75 -6.1,6.16 0,3.42 2.7,6.16 6.1,6.16 h 37.3 c 3.5,0 6.2,-2.74 6.2,-6.16 0,-3.41 -2.7,-6.16 -6.2,-6.16 z m 74.6,0 h -37.3 c -3.4,0 -6.2,2.75 -6.2,6.16 0,3.42 2.8,6.16 6.2,6.16 h 37.3 c 3.4,0 6.2,-2.74 6.2,-6.16 0,-3.41 -2.8,-6.16 -6.2,-6.16 z m 74.5,0 h -37.2 c -3.4,0 -6.2,2.75 -6.2,6.16 0,3.42 2.8,6.16 6.2,6.16 h 37.2 c 3.4,0 6.2,-2.74 6.2,-6.16 0,-3.41 -2.8,-6.16 -6.2,-6.16 z m 74.6,0 h -37.3 c -3.4,0 -6.1,2.75 -6.1,6.16 0,3.42 2.7,6.16 6.1,6.16 h 37.3 c 3.4,0 6.2,-2.74 6.2,-6.16 0,-3.41 -2.8,-6.16 -6.2,-6.16 z m 74.6,0 h -37.3 c -3.4,0 -6.2,2.75 -6.2,6.16 0,3.42 2.8,6.16 6.2,6.16 h 37.3 c 3.4,0 6.1,-2.74 6.1,-6.16 0,-3.41 -2.7,-6.16 -6.1,-6.16 z m 74.8,0 h -37.5 c -3.4,0 -6.2,2.75 -6.2,6.16 0,3.42 2.8,6.16 6.2,6.16 h 37.2 c 3.5,0 6.3,-2.74 6.3,-6.16 0,-3.41 -2.6,-6.16 -6,-6.16"
         style="fill:#151f2c;fill-opacity:1;fill-rule:nonzero;stroke:none"
         id="path1761" /></g><g
       id="g1763"
       transform="scale(0.134785)"><path
         d="m 14875.7,6647.69 h -44.9 c -4.1,0 -7.5,3.33 -7.5,7.49 0,4.15 3.2,7.49 7.4,7.49 h 45 c 4.1,0 7.5,-3.34 7.5,-7.49 0,-4.16 -3.4,-7.49 -7.5,-7.49 z m 89.9,0 h -45 c -4.1,0 -7.5,3.33 -7.5,7.49 0,4.15 3.4,7.49 7.5,7.49 h 45 c 4.1,0 7.5,-3.34 7.5,-7.49 0,-4.16 -3.4,-7.49 -7.5,-7.49 z m 89.9,0 h -45 c -4.1,0 -7.5,3.33 -7.5,7.49 0,4.15 3.4,7.49 7.5,7.49 h 45 c 4.2,0 7.6,-3.34 7.6,-7.49 0,-4.16 -3.4,-7.49 -7.6,-7.49 z m 90,0 h -45 c -4.1,0 -7.5,3.33 -7.5,7.49 0,4.15 3.4,7.49 7.5,7.49 h 45 c 4.2,0 7.5,-3.34 7.5,-7.49 0,-4.16 -3.3,-7.49 -7.5,-7.49 z m 89.9,0 h -44.9 c -4.2,0 -7.5,3.33 -7.5,7.49 0,4.15 3.3,7.49 7.5,7.49 h 44.9 c 4.2,0 7.5,-3.34 7.5,-7.49 0,-4.16 -3.3,-7.49 -7.5,-7.49 z m 89.9,0 h -44.9 c -4.2,0 -7.5,3.33 -7.5,7.49 0,4.15 3.3,7.49 7.5,7.49 h 44.9 c 4.2,0 7.6,-3.34 7.6,-7.49 0,-4.16 -3.4,-7.49 -7.6,-7.49 z m 90,0 h -45 c -4.1,0 -7.5,3.33 -7.5,7.49 0,4.15 3.4,7.49 7.5,7.49 h 45 c 4.2,0 7.5,-3.34 7.5,-7.49 0,-4.16 -3.3,-7.49 -7.5,-7.49 z m 90,0 h -45 c -4.2,0 -7.5,3.33 -7.5,7.49 0,4.15 3.3,7.49 7.5,7.49 h 45 c 4.1,0 7.4,-3.34 7.4,-7.49 0,-4.16 -3.3,-7.49 -7.4,-7.49 z m 89.9,0 h -45 c -4.1,0 -7.5,3.33 -7.5,7.49 0,4.15 3.4,7.49 7.5,7.49 h 45 c 4.1,0 7.5,-3.34 7.5,-7.49 0,-4.16 -3.4,-7.49 -7.5,-7.49 z m 89.9,0 h -45 c -4.1,0 -7.5,3.33 -7.5,7.49 0,4.15 3.4,7.49 7.5,7.49 h 45 c 4.2,0 7.6,-3.34 7.6,-7.49 0,-4.16 -3.4,-7.49 -7.6,-7.49 z m 90,0 h -45 c -4.1,0 -7.5,3.33 -7.5,7.49 0,4.15 3.4,7.49 7.5,7.49 h 45 c 4.1,0 7.5,-3.34 7.5,-7.49 0,-4.16 -3.4,-7.49 -7.5,-7.49 z m 89.9,0 h -44.9 c -4.2,0 -7.5,3.33 -7.5,7.49 0,4.15 3.3,7.49 7.5,7.49 h 44.9 c 4.2,0 7.5,-3.34 7.5,-7.49 0,-4.16 -3.3,-7.49 -7.5,-7.49 z m 89.9,0 h -44.9 c -4.2,0 -7.5,3.33 -7.5,7.49 0,4.15 3.3,7.49 7.5,7.49 h 44.9 c 4.2,0 7.5,-3.34 7.5,-7.49 0,-4.16 -3.3,-7.49 -7.5,-7.49 z m 90,0 h -45 c -4.1,0 -7.5,3.33 -7.5,7.49 0,4.15 3.4,7.49 7.5,7.49 h 45 c 4.1,0 7.5,-3.34 7.5,-7.49 0,-4.16 -3.4,-7.49 -7.5,-7.49 z m 90,0 h -45 c -4.2,0 -7.5,3.33 -7.5,7.49 0,4.15 3.3,7.49 7.5,7.49 h 45 c 4.1,0 7.4,-3.34 7.4,-7.49 0,-4.16 -3.3,-7.49 -7.4,-7.49 z m 89.9,-0.53 -0.9,0.08 c -2.7,0.3 -5.4,0.45 -8,0.45 h -36.1 c -4.1,0 -7.5,3.33 -7.5,7.49 0,4.15 3.4,7.49 7.5,7.49 h 36.1 c 3.2,0 6.5,-0.15 9.7,-0.52 4.1,-0.52 7.1,-4.22 6.6,-8.31 -0.5,-3.86 -3.6,-6.68 -7.4,-6.68 z m -1464.7,-46.59 c -0.9,0 -2,0.15 -2.8,0.6 -3.9,1.55 -5.7,6.01 -4.1,9.79 6.3,15.36 17.1,28.34 30.9,37.54 3.5,2.3 8.1,1.41 10.5,-2.08 2.3,-3.41 1.3,-8.08 -2.1,-10.38 -11.4,-7.57 -20.2,-18.25 -25.5,-30.87 -1.1,-2.89 -4,-4.6 -6.9,-4.6 z m 1529.4,-8.23 c -3.3,0 -6.3,2.08 -7.2,5.41 -3.8,13.06 -11.3,24.71 -21.8,33.54 -3.1,2.67 -3.5,7.42 -0.9,10.61 2.8,3.11 7.5,3.56 10.7,0.81 12.7,-10.75 21.8,-24.85 26.4,-40.8 1.2,-4.01 -1.2,-8.16 -5.1,-9.28 -0.7,-0.22 -1.4,-0.29 -2.1,-0.29 z m -1535.3,-80.94 c -4.1,0 -7.5,3.41 -7.5,7.56 v 44.96 c 0,4.16 3.4,7.5 7.5,7.5 4.2,0 7.5,-3.34 7.5,-7.5 v -44.96 c 0,-4.15 -3.3,-7.56 -7.5,-7.56 z m 1538.3,-8.76 c -4.1,0 -7.6,3.34 -7.6,7.49 v 45.04 c 0,4.08 3.5,7.49 7.6,7.49 4.2,0 7.5,-3.41 7.5,-7.49 v -45.04 c 0,-4.15 -3.3,-7.49 -7.5,-7.49 z m -1538.3,-81.17 c -4.1,0 -7.5,3.34 -7.5,7.5 v 44.96 c 0,4.15 3.4,7.57 7.5,7.57 4.2,0 7.5,-3.42 7.5,-7.57 v -44.96 c 0,-4.16 -3.3,-7.5 -7.5,-7.5 z m 1538.3,-8.75 c -4.1,0 -7.6,3.34 -7.6,7.49 v 44.96 c 0,4.16 3.5,7.5 7.6,7.5 4.2,0 7.5,-3.34 7.5,-7.5 v -44.96 c 0,-4.15 -3.3,-7.49 -7.5,-7.49 z m -1538.3,-81.17 c -4.1,0 -7.5,3.34 -7.5,7.5 v 44.96 c 0,4.15 3.4,7.49 7.5,7.49 4.2,0 7.5,-3.34 7.5,-7.49 v -44.96 c 0,-4.16 -3.3,-7.5 -7.5,-7.5 z m 1538.3,-8.75 c -4.1,0 -7.6,3.34 -7.6,7.49 v 44.96 c 0,4.16 3.5,7.49 7.6,7.49 4.2,0 7.5,-3.33 7.5,-7.49 v -44.96 c 0,-4.15 -3.3,-7.49 -7.5,-7.49 z m -1538.3,-81.24 c -4.1,0 -7.5,3.41 -7.5,7.57 v 44.96 c 0,4.15 3.4,7.49 7.5,7.49 4.2,0 7.5,-3.34 7.5,-7.49 v -44.96 c 0,-4.16 -3.3,-7.57 -7.5,-7.57 z m 1538.3,-8.76 c -4.1,0 -7.6,3.42 -7.6,7.57 v 44.96 c 0,4.16 3.5,7.49 7.6,7.49 4.2,0 7.5,-3.33 7.5,-7.49 v -44.96 c 0,-4.15 -3.3,-7.57 -7.5,-7.57 z m -1538.3,-81.16 c -4.1,0 -7.5,3.34 -7.5,7.49 v 44.96 c 0,4.16 3.4,7.57 7.5,7.57 4.2,0 7.5,-3.41 7.5,-7.57 v -44.96 c 0,-4.15 -3.3,-7.49 -7.5,-7.49 z m 1538.3,-8.76 c -4.1,0 -7.6,3.34 -7.6,7.5 v 44.96 c 0,4.15 3.5,7.56 7.6,7.56 4.2,0 7.5,-3.41 7.5,-7.56 v -44.96 c 0,-4.16 -3.3,-7.5 -7.5,-7.5 z m -1538.3,-81.16 c -4.1,0 -7.5,3.33 -7.5,7.49 v 44.96 c 0,4.16 3.4,7.49 7.5,7.49 4.2,0 7.5,-3.33 7.5,-7.49 v -44.96 c 0,-4.16 -3.3,-7.49 -7.5,-7.49 z m 1538.3,-8.76 c -4.1,0 -7.6,3.34 -7.6,7.5 v 44.95 c 0,4.16 3.5,7.5 7.6,7.5 4.2,0 7.5,-3.34 7.5,-7.5 v -44.95 c 0,-4.16 -3.3,-7.5 -7.5,-7.5 z m -1538.3,-81.16 c -4.1,0 -7.5,3.33 -7.5,7.49 v 44.96 c 0,4.16 3.4,7.49 7.5,7.49 4.2,0 7.5,-3.33 7.5,-7.49 v -44.96 c 0,-4.16 -3.3,-7.49 -7.5,-7.49 z m 1538.3,-8.76 c -4.1,0 -7.6,3.34 -7.6,7.5 v 44.95 c 0,4.16 3.5,7.5 7.6,7.5 4.2,0 7.5,-3.34 7.5,-7.5 v -44.95 c 0,-4.16 -3.3,-7.5 -7.5,-7.5 z m -1538.3,-81.24 c -4.1,0 -7.5,3.41 -7.5,7.5 v 45.03 c 0,4.15 3.4,7.49 7.5,7.49 4.2,0 7.5,-3.34 7.5,-7.49 v -45.03 c 0,-4.09 -3.3,-7.5 -7.5,-7.5 z m 1538.3,-8.75 c -4.1,0 -7.6,3.33 -7.6,7.49 v 45.03 c 0,4.08 3.5,7.5 7.6,7.5 4.2,0 7.5,-3.42 7.5,-7.5 v -45.03 c 0,-4.16 -3.3,-7.49 -7.5,-7.49 z m -1538.3,-81.17 c -4.1,0 -7.5,3.34 -7.5,7.49 v 44.96 c 0,4.16 3.4,7.57 7.5,7.57 4.2,0 7.5,-3.41 7.5,-7.57 v -44.96 c 0,-4.15 -3.3,-7.49 -7.5,-7.49 z m 1538.3,-8.75 c -4.1,0 -7.6,3.33 -7.6,7.49 v 44.96 c 0,4.15 3.5,7.49 7.6,7.49 4.2,0 7.5,-3.34 7.5,-7.49 v -44.96 c 0,-4.16 -3.3,-7.49 -7.5,-7.49 z m -1538.3,-81.17 c -4.1,0 -7.5,3.34 -7.5,7.49 v 44.96 c 0,4.16 3.4,7.49 7.5,7.49 4.2,0 7.5,-3.33 7.5,-7.49 v -44.96 c 0,-4.15 -3.3,-7.49 -7.5,-7.49 z m 1538.3,-8.76 c -4.1,0 -7.6,3.34 -7.6,7.5 v 44.96 c 0,4.15 3.5,7.49 7.6,7.49 4.2,0 7.5,-3.34 7.5,-7.49 v -44.96 c 0,-4.16 -3.3,-7.5 -7.5,-7.5 z m -1538.3,-81.16 c -4.1,0 -7.5,3.34 -7.5,7.49 v 44.96 c 0,4.16 3.4,7.49 7.5,7.49 4.2,0 7.5,-3.33 7.5,-7.49 v -44.96 c 0,-4.15 -3.3,-7.49 -7.5,-7.49 z m 1538.3,-8.83 c -4.1,0 -7.6,3.41 -7.6,7.57 v 44.96 c 0,4.15 3.5,7.49 7.6,7.49 4.2,0 7.5,-3.34 7.5,-7.49 v -44.96 c 0,-4.16 -3.3,-7.57 -7.5,-7.57 z m -1511.3,-73.16 c -1.8,0 -3.5,0.6 -4.9,1.79 -12.7,10.83 -21.8,25 -26.4,40.88 -1.1,4 1.2,8.16 5.2,9.34 4,1.12 8.2,-1.18 9.3,-5.19 3.8,-13.06 11.3,-24.71 21.6,-33.61 3.2,-2.67 3.6,-7.42 0.9,-10.53 -1.5,-1.78 -3.6,-2.68 -5.7,-2.68 z m 1477.3,-5.26 c -2.3,0 -4.7,1.11 -6.2,3.34 -2.3,3.41 -1.4,8.08 2.1,10.38 11.3,7.65 20.1,18.33 25.3,30.94 1.6,3.78 6,5.64 9.8,4.01 3.8,-1.56 5.7,-5.94 4,-9.8 -6.3,-15.35 -16.9,-28.34 -30.7,-37.61 -1.4,-0.89 -2.8,-1.26 -4.3,-1.26 z m -1391.7,-12.98 h -36 c -3.3,0 -6.6,0.14 -9.9,0.59 -4.1,0.44 -7,4.23 -6.6,8.31 0.5,4.15 4.2,7.05 8.4,6.6 2.7,-0.3 5.4,-0.52 8.1,-0.52 h 36 c 4.1,0 7.5,-3.34 7.5,-7.49 0,-4.16 -3.4,-7.49 -7.5,-7.49 z m 89.9,0 h -45 c -4.1,0 -7.5,3.33 -7.5,7.49 0,4.15 3.4,7.49 7.5,7.49 h 45 c 4.1,0 7.5,-3.34 7.5,-7.49 0,-4.16 -3.4,-7.49 -7.5,-7.49 z m 89.9,0 h -45 c -4.1,0 -7.5,3.33 -7.5,7.49 0,4.15 3.4,7.49 7.5,7.49 h 45 c 4.2,0 7.6,-3.34 7.6,-7.49 0,-4.16 -3.4,-7.49 -7.6,-7.49 z m 90,0 h -45 c -4.1,0 -7.5,3.33 -7.5,7.49 0,4.15 3.4,7.49 7.5,7.49 h 45 c 4.1,0 7.5,-3.34 7.5,-7.49 0,-4.16 -3.4,-7.49 -7.5,-7.49 z m 89.9,0 h -44.9 c -4.2,0 -7.6,3.33 -7.6,7.49 0,4.15 3.4,7.49 7.6,7.49 h 44.9 c 4.2,0 7.5,-3.34 7.5,-7.49 0,-4.16 -3.3,-7.49 -7.5,-7.49 z m 89.9,0 h -44.9 c -4.2,0 -7.5,3.33 -7.5,7.49 0,4.15 3.3,7.49 7.5,7.49 h 44.9 c 4.2,0 7.5,-3.34 7.5,-7.49 0,-4.16 -3.3,-7.49 -7.5,-7.49 z m 90,0 h -45 c -4.2,0 -7.5,3.33 -7.5,7.49 0,4.15 3.3,7.49 7.5,7.49 h 45 c 4.1,0 7.5,-3.34 7.5,-7.49 0,-4.16 -3.4,-7.49 -7.5,-7.49 z m 90,0 h -45 c -4.2,0 -7.6,3.33 -7.6,7.49 0,4.15 3.4,7.49 7.6,7.49 h 45 c 4.1,0 7.4,-3.34 7.4,-7.49 0,-4.16 -3.3,-7.49 -7.4,-7.49 z m 89.9,0 h -45 c -4.1,0 -7.5,3.33 -7.5,7.49 0,4.15 3.4,7.49 7.5,7.49 h 45 c 4.1,0 7.5,-3.34 7.5,-7.49 0,-4.16 -3.4,-7.49 -7.5,-7.49 z m 89.9,0 h -45 c -4.1,0 -7.5,3.33 -7.5,7.49 0,4.15 3.4,7.49 7.5,7.49 h 45 c 4.1,0 7.5,-3.34 7.5,-7.49 0,-4.16 -3.4,-7.49 -7.5,-7.49 z m 89.9,0 h -44.9 c -4.2,0 -7.5,3.33 -7.5,7.49 0,4.15 3.3,7.49 7.5,7.49 h 44.9 c 4.2,0 7.6,-3.34 7.6,-7.49 0,-4.16 -3.4,-7.49 -7.6,-7.49 z m 90,0 h -44.9 c -4.2,0 -7.6,3.33 -7.6,7.49 0,4.15 3.4,7.49 7.6,7.49 h 44.9 c 4.2,0 7.5,-3.34 7.5,-7.49 0,-4.16 -3.3,-7.49 -7.5,-7.49 z m 89.9,0 h -44.9 c -4.2,0 -7.5,3.33 -7.5,7.49 0,4.15 3.3,7.49 7.5,7.49 h 44.9 c 4.2,0 7.5,-3.34 7.5,-7.49 0,-4.16 -3.3,-7.49 -7.5,-7.49 z m 90,0 h -45 c -4.2,0 -7.5,3.33 -7.5,7.49 0,4.15 3.3,7.49 7.5,7.49 h 45 c 4.1,0 7.5,-3.34 7.5,-7.49 0,-4.16 -3.4,-7.49 -7.5,-7.49 z m 89.9,0 h -44.9 c -4.2,0 -7.6,3.33 -7.6,7.49 0,4.15 3.4,7.49 7.6,7.49 h 44.9 c 4.2,0 7.5,-3.34 7.5,-7.49 0,-4.16 -3.3,-7.49 -7.5,-7.49 z m 90.3,0 h -45.3 c -4.1,0 -7.5,3.33 -7.5,7.49 0,4.15 3.4,7.49 7.5,7.49 h 45 c 4.1,0 7.6,-3.34 7.6,-7.49 0,-4.16 -3.2,-7.49 -7.3,-7.49"
         style="fill:#151f2c;fill-opacity:1;fill-rule:nonzero;stroke:none"
         id="path1765" /></g><g
       id="g1767"
       transform="scale(0.138294)"><path
         d="m 16230.8,6715.41 h -1771.5 c -38.2,0 -69.2,31.02 -69.2,69.2 v 968.64 c 0,38.22 31,69.22 69.2,69.22 h 1771.5 c 38.3,0 69.2,-31 69.2,-69.22 v -968.64 c 0,-38.18 -30.9,-69.2 -69.2,-69.2"
         style="fill:#e9e9e9;fill-opacity:1;fill-rule:nonzero;stroke:none"
         id="path1769" /></g><g
       id="g1771"
       transform="scale(0.131825)"><path
         d="m 15872,7856.03 v -460.75 c 0,-28.82 32,-46.04 56.1,-30.26 l 350.1,230.4 c 21.8,14.29 21.8,46.19 0,60.48 l -350.1,230.37 c -24.1,15.83 -56.1,-1.43 -56.1,-30.24"
         style="fill:#43a1f6;fill-opacity:1;fill-rule:nonzero;stroke:none"
         id="path1773" /></g><g
       id="g1775"
       transform="scale(0.123513)"><path
         d="m 16223.2,7630.83 c 0,21.21 17.2,38.37 38.4,38.37 21.2,0 38.4,-17.16 38.4,-38.37 0,-21.21 -17.2,-38.38 -38.4,-38.38 -21.2,0 -38.4,17.17 -38.4,38.38"
         style="fill:#aec3ff;fill-opacity:1;fill-rule:nonzero;stroke:none"
         id="path1777" /></g><g
       id="g1779"
       transform="scale(0.136533)"><path
         d="m 16290.6,6893.78 h -1570.3 c -5.2,0 -9.4,4.18 -9.4,9.38 0,5.13 4.2,9.38 9.4,9.38 h 1570.3 c 5.2,0 9.4,-4.25 9.4,-9.38 0,-5.2 -4.2,-9.38 -9.4,-9.38"
         style="fill:#aec3ff;fill-opacity:1;fill-rule:nonzero;stroke:none"
         id="path1781" /></g><g
       id="g1783"
       transform="scale(0.145627)"><path
         d="m 16300,4759.01 h -938.4 v 1400.7 h 938.4 v -1400.7"
         style="fill:#e9e9e9;fill-opacity:1;fill-rule:nonzero;stroke:none"
         id="path1785" /></g><g
       id="g1787"
       transform="scale(0.144455)"><path
         d="m 16050.1,5756 h -13 v 58.22 c 0,20.83 17.1,37.86 37.9,37.86 h 160.1 c 11.2,0 21.1,7.62 24.1,18.55 l 25.3,96.23 c 1.9,7.54 0.3,15.37 -4.4,21.53 -4.7,6.16 -11.9,9.69 -19.7,9.69 h -208.9 v 12.94 h 208.9 c 11.8,0 22.7,-5.33 30,-14.74 7.2,-9.35 9.6,-21.25 6.6,-32.74 l -25.3,-96.23 c -4.4,-16.61 -19.5,-28.17 -36.6,-28.17 H 16075 c -13.7,0 -24.9,-11.22 -24.9,-24.92 V 5756"
         style="fill:#384152;fill-opacity:1;fill-rule:nonzero;stroke:none"
         id="path1789" /></g><g
       id="g1791"
       transform="scale(0.143946)"><path
         d="m 16257.8,5970.99 h -276 c -23.3,0 -42.1,18.89 -42.1,42.17 v 25.21 c 0,23.35 18.8,42.17 42.1,42.17 h 276 c 23.3,0 42.2,-18.82 42.2,-42.17 v -25.21 c 0,-23.28 -18.9,-42.17 -42.2,-42.17"
         style="fill:#43a1f6;fill-opacity:1;fill-rule:nonzero;stroke:none"
         id="path1793" /></g><g
       id="g1795"
       transform="scale(0.142498)"><path
         d="m 16263.9,5590.18 v 0 c -19.9,0 -36,16.14 -36,36.07 v 218.6 c 0,19.93 16.1,36.14 36,36.14 20,0 36.1,-16.21 36.1,-36.14 v -218.6 c 0,-19.93 -16.1,-36.07 -36.1,-36.07"
         style="fill:#384152;fill-opacity:1;fill-rule:nonzero;stroke:none"
         id="path1797" /></g><g
       id="g1799"
       transform="scale(0.154468)"><path
         d="m 16277.1,4719.68 c 0,0 22.9,-70.56 21,-86.68 -2.1,-16.12 -16.4,-71.22 -26.7,-85.33 -10.2,-14.11 -15.3,57.42 -23.4,68.24 -8.1,10.74 -1.7,-26.94 -7.4,-30.43 -5.7,-3.5 -17.7,27.7 -22.8,38.71 -5.2,11.07 12.5,51.66 12.6,79.95 0,28.36 46.7,15.54 46.7,15.54"
         style="fill:#ee805f;fill-opacity:1;fill-rule:nonzero;stroke:none"
         id="path1801" /></g><g
       id="g1803"
       transform="scale(0.154448)"><path
         d="m 15740.7,5280.4 c -6.4,80.87 81.5,136.36 150.8,94.27 1.4,-0.84 2.9,-1.75 4.2,-2.65 103.9,-66.82 328,-378.7 343.4,-409.91 15.4,-31.27 60.9,-279.84 60.9,-279.84 0,0 -56.3,-20.58 -82.6,0.78 0,0 -91.2,235.74 -104.6,247.53 -13.5,11.78 -364.9,208.93 -367.9,282.81 -0.8,19.55 -2.4,43.06 -4.2,67.01"
         style="fill:#151f2c;fill-opacity:1;fill-rule:nonzero;stroke:none"
         id="path1805" /></g><g
       id="g1807"
       transform="scale(0.155486)"><path
         d="m 16258.5,3431.89 c 0,0 41.5,-37.95 33.4,-64.9 -8.1,-26.94 -45.6,-44.95 -50.7,-77.88 -5.1,-32.99 -25.4,-50.94 -43.6,-50.94 -18.3,0 -87.1,0 -87.1,0 0,0 -13.4,23.15 19.1,30.17 32.4,7.01 44.7,45.72 42.6,81.68 -2,35.95 3.1,83.86 3.1,83.86 l 68.9,16.02 14.3,-18.01"
         style="fill:#2a4a7c;fill-opacity:1;fill-rule:nonzero;stroke:none"
         id="path1809" /></g><g
       id="g1811"
       transform="scale(0.150294)"><path
         d="m 16292.3,3448.91 c 0,0 7.7,-89.36 -11.2,-98.67 l -241.7,0.53 c 0,0 0,27.88 38.8,34.06 38.8,6.19 107,28.95 118.6,79.58 11.5,50.64 95.5,-15.5 95.5,-15.5"
         style="fill:#2a4a7c;fill-opacity:1;fill-rule:nonzero;stroke:none"
         id="path1813" /></g><g
       id="g1815"
       transform="scale(0.151626)"><path
         d="m 15946.8,4669.79 c 0,0 12.7,-155.25 27.5,-341.9 20.2,-253.52 44.5,-564.94 46.9,-623.9 4.2,-102.49 20.9,-266.31 20.9,-266.31 0,0 39.5,-38.92 118.5,-22.56 0,0 70.5,233.93 90.6,481.45 0.3,4.02 0.7,8.11 0.9,12.2 18.8,252 47.9,782.52 47.9,782.52 l -353.2,-21.5"
         style="fill:#43a1f6;fill-opacity:1;fill-rule:nonzero;stroke:none"
         id="path1817" /></g><g
       id="g1819"
       transform="scale(0.151626)"><path
         d="m 15946.8,4669.79 c 0,0 12.7,-155.25 27.5,-341.9 l 276.9,-431.32 c 0.3,4.02 0.7,8.11 0.9,12.2 18.8,252 47.9,782.52 47.9,782.52 l -353.2,-21.5"
         style="fill:#2b6eb2;fill-opacity:1;fill-rule:nonzero;stroke:none"
         id="path1821" /></g><g
       id="g1823"
       transform="scale(0.15509)"><path
         d="m 15647.2,4547.44 c 0,0 222.7,-549.68 369.1,-808.05 146.4,-258.37 192.1,-330.46 192.1,-330.46 0,0 84,33.08 91.6,55.58 0,0 -56,498.75 -154.1,620.35 -55.4,68.67 -120.5,274.88 -123.5,346.97 -3.1,72.08 -19.8,214.78 -19.8,214.78 l -355.4,-99.17"
         style="fill:#43a1f6;fill-opacity:1;fill-rule:nonzero;stroke:none"
         id="path1825" /></g><g
       id="g1827"
       transform="scale(0.150705)"><path
         d="m 16300,5528.35 c 0,0 -153.5,-77.83 -243.5,-51.89 0,0 21.5,28.2 59.6,49.64 -3.5,17.85 -6.2,33.37 -7.9,46.58 -4.3,30.39 -4.7,47.64 -4.7,47.64 l 58.9,48.24 55.8,46.12 c -1.9,-126.67 81.8,-186.33 81.8,-186.33"
         style="fill:#ee805f;fill-opacity:1;fill-rule:nonzero;stroke:none"
         id="path1829" /></g><g
       id="g1831"
       transform="scale(0.152365)"><path
         d="m 16273.2,4685.39 c -61.3,-37.08 -119.3,-64.97 -187.3,-80.66 -80.1,-19.03 -178.6,-13.45 -211.6,-18.44 -3.3,-0.46 -6.6,0.46 -9.6,2.43 -2.5,1.31 -17.1,99.1 -31.7,222.49 -0.6,4.92 -1.3,9.98 -1.5,14.96 l -0.2,1.64 c -5.8,48.24 -10.7,98.91 -15,149.71 -3.5,39.51 -6.4,78.63 -8.4,115.31 -2.6,45.95 -3.6,88.15 -2.6,122.87 0.5,15.82 1.4,30.06 2.9,42.46 8.6,72.07 43,123.59 75.4,161.92 l 26.8,30.58 c 31.2,-1.97 63,3.87 92.9,23.69 32.9,21.6 68.2,44.83 74.9,40.96 50.3,-27.57 91.3,-98.78 120.5,-192.89 16.7,-54.22 29.6,-115.71 37.8,-180.82 2.7,-20.15 4.9,-40.89 6.6,-61.56 0.4,-3.81 0.7,-7.62 1,-11.36 3.9,-56.44 10.4,-109.34 17.5,-156.53 9.6,-63.73 20.5,-117.02 28.2,-154.63 3.9,-19.1 6.9,-33.93 8.6,-44.5 1.6,-9.25 -16.9,-22.51 -25.2,-27.63"
         style="fill:#384152;fill-opacity:1;fill-rule:nonzero;stroke:none"
         id="path1833" /></g><g
       id="g1835"
       transform="scale(0.149967)"><path
         d="m 16300,5694.17 c 0,0 -38,-72.55 -112.6,-94.09 -4.4,30.54 -4.7,47.88 -4.7,47.88 l 59.2,48.48 58.1,-2.27"
         style="fill:#de6b4d;fill-opacity:1;fill-rule:nonzero;stroke:none"
         id="path1837" /></g><g
       id="g1839"
       transform="scale(0.150483)"><path
         d="m 16099.8,5630.12 c 0,0 148.6,-21.26 160.7,70.04 12.1,91.31 39.5,150.12 -54.9,167.53 -94.3,17.48 -117.5,-15.02 -129,-44.52 -11.6,-29.51 -15.1,-185.14 23.2,-193.05"
         style="fill:#ee805f;fill-opacity:1;fill-rule:nonzero;stroke:none"
         id="path1841" /></g><g
       id="g1843"
       transform="scale(0.150711)"><path
         d="m 16286.2,5871.83 c 1.3,1.59 4.4,2.86 11.3,3.39 0,0 -5.6,3.31 -13,3.38 -1.6,9.56 -7.1,26.41 -23.7,30.19 0,0 9,-4.58 10.4,-14.73 -19.5,19.24 -60.7,32.71 -173.9,21.5 -149.1,-14.73 -98,-109.42 -78.4,-120.43 19.5,-11.02 67.6,21.23 103.7,19.11 36.1,-2.19 44,-54.08 56.3,-60.98 12.4,-6.9 7.3,5.64 23.7,13.4 16.4,7.83 18.5,-19.57 14.1,-37.49 -4.4,-17.91 18.7,-40.93 18.7,-40.93 0,0 0,0 22.5,25.14 22.5,25.22 42.1,130.38 31.2,152.55 -1,1.92 -1.9,3.91 -2.9,5.9"
         style="fill:#151f2c;fill-opacity:1;fill-rule:nonzero;stroke:none"
         id="path1845" /></g><g
       id="g1847"
       transform="scale(0.150148)"><path
         d="m 16300,5284.52 c 0,0 -125.6,-95.5 -258.7,-116.48 -2.6,46.62 -3.6,89.44 -2.6,124.67 l 261.3,-8.19"
         style="fill:#151f2c;fill-opacity:1;fill-rule:nonzero;stroke:none"
         id="path1849" /></g><g
       id="g1851"
       transform="scale(0.143044)"><path
         d="m 16300,5676.36 c -2.1,2.24 -28.9,92.07 -75.4,85.57 -30.4,-4.34 -79.9,-21.88 -66.8,-61.8 5.2,-15.73 97.6,-69.84 97.6,-69.84 l 44.6,46.07"
         style="fill:#ee805f;fill-opacity:1;fill-rule:nonzero;stroke:none"
         id="path1853" /></g><g
       id="g1855"
       transform="scale(0.15095)"><path
         d="m 16228.8,5440.07 c 71.2,-42.6 65.4,-148.73 -10.7,-181.72 -1.6,-0.66 -3.2,-1.32 -4.8,-1.92 -117.2,-47.03 -510.1,-49.22 -545.3,-43.59 -35.2,5.63 -269.6,114.87 -269.6,114.87 0,0 16.2,59.16 49.6,68.44 0,0 250.7,-63.53 268.5,-59.23 17.8,4.24 390.4,180.59 453.9,139.32 16.7,-10.93 37.2,-23.52 58.4,-36.17"
         style="fill:#384152;fill-opacity:1;fill-rule:nonzero;stroke:none"
         id="path1857" /></g><g
       id="g1859"
       transform="scale(0.17499)"><path
         d="m 16279.4,7104.05 h -269.8 c -11.3,0 -20.6,9.27 -20.6,20.62 0,11.34 9.3,20.61 20.6,20.61 h 269.8 c 11.3,0 20.6,-9.27 20.6,-20.61 0,-11.35 -9.3,-20.62 -20.6,-20.62"
         style="fill:#ebf3fa;fill-opacity:1;fill-rule:nonzero;stroke:none"
         id="path1861" /></g><g
       id="g1863"
       transform="scale(0.17499)"><path
         d="m 16279.4,7023.49 h -269.8 c -11.3,0 -20.6,9.28 -20.6,20.62 0,11.34 9.3,20.62 20.6,20.62 h 269.8 c 11.3,0 20.6,-9.28 20.6,-20.62 0,-11.34 -9.3,-20.62 -20.6,-20.62"
         style="fill:#ebf3fa;fill-opacity:1;fill-rule:nonzero;stroke:none"
         id="path1865" /></g><g
       id="g1867"
       transform="scale(0.17499)"><path
         d="m 16279.4,6940.85 h -269.8 c -11.3,0 -20.6,9.28 -20.6,20.62 0,11.34 9.3,20.62 20.6,20.62 h 269.8 c 11.3,0 20.6,-9.28 20.6,-20.62 0,-11.34 -9.3,-20.62 -20.6,-20.62"
         style="fill:#ebf3fa;fill-opacity:1;fill-rule:nonzero;stroke:none"
         id="path1869" /></g><g
       id="g1871"
       transform="scale(0.16372)"><path
         d="m 16270.8,5339.37 h -686.5 c -16.1,0 -29.2,13.19 -29.2,29.26 0,16.06 13.1,29.2 29.2,29.2 h 686.5 c 16.1,0 29.2,-13.14 29.2,-29.2 0,-16.07 -13.1,-29.26 -29.2,-29.26"
         style="fill:#ebf3fa;fill-opacity:1;fill-rule:nonzero;stroke:none"
         id="path1873" /></g><g
       id="g1875"
       transform="scale(0.130013)"><path
         d="m 16263.2,9249.48 h -864.5 c -20.2,0 -36.8,16.56 -36.8,36.8 0,20.24 16.6,36.8 36.8,36.8 h 864.5 c 20.3,0 36.8,-16.56 36.8,-36.8 0,-20.24 -16.5,-36.8 -36.8,-36.8"
         style="fill:#ebf3fa;fill-opacity:1;fill-rule:nonzero;stroke:none"
         id="path1877" /></g><g
       id="g1879"
       transform="scale(0.16372)"><path
         d="m 16270.8,5049.49 h -686.5 c -16.1,0 -29.2,13.13 -29.2,29.19 0,16.07 13.1,29.26 29.2,29.26 h 686.5 c 16.1,0 29.2,-13.19 29.2,-29.26 0,-16.06 -13.1,-29.19 -29.2,-29.19"
         style="fill:#ebf3fa;fill-opacity:1;fill-rule:nonzero;stroke:none"
         id="path1881" /></g><g
       id="g1883"
       transform="scale(0.16372)"><path
         d="m 16270.8,5194.43 h -821.1 c -16.1,0 -29.3,13.13 -29.3,29.26 0,16.06 13.2,29.19 29.3,29.19 h 821.1 c 16.1,0 29.2,-13.13 29.2,-29.19 0,-16.13 -13.1,-29.26 -29.2,-29.26"
         style="fill:#ebf3fa;fill-opacity:1;fill-rule:nonzero;stroke:none"
         id="path1885" /></g><g
       id="g1887"
       transform="scale(0.127896)"><path
         d="m 16271.5,9167.32 h -495.9 c -15.6,0 -28.5,12.82 -28.5,28.49 v 17.85 c 0,15.66 12.9,28.48 28.5,28.48 h 495.9 c 15.7,0 28.5,-12.82 28.5,-28.48 v -17.85 c 0,-15.67 -12.8,-28.49 -28.5,-28.49"
         style="fill:#ebf3fa;fill-opacity:1;fill-rule:nonzero;stroke:none"
         id="path1889" /></g><g
       id="g1891"
       transform="scale(0.122857)"><path
         d="m 16222.1,9582.28 c 0,21.52 17.4,38.95 38.9,38.95 21.5,0 39,-17.43 39,-38.95 0,-21.5 -17.5,-38.93 -39,-38.93 -21.5,0 -38.9,17.43 -38.9,38.93"
         style="fill:#ebf3fa;fill-opacity:1;fill-rule:nonzero;stroke:none"
         id="path1893" /></g><g
       id="g1895"
       transform="scale(0.128653)"><path
         d="m 16269.3,8965.38 h -584.1 c -16.9,0 -30.7,13.81 -30.7,30.69 v 13 c 0,16.87 13.8,30.68 30.7,30.68 h 584.1 c 16.9,0 30.7,-13.81 30.7,-30.68 v -13 c 0,-16.88 -13.8,-30.69 -30.7,-30.69"
         style="fill:#ebf3fa;fill-opacity:1;fill-rule:nonzero;stroke:none"
         id="path1897" /></g><g
       id="g1899"
       transform="scale(0.122857)"><path
         d="m 16222.1,9427.31 c 0,21.5 17.4,38.94 38.9,38.94 21.5,0 39,-17.44 39,-38.94 0,-21.52 -17.5,-38.95 -39,-38.95 -21.5,0 -38.9,17.43 -38.9,38.95"
         style="fill:#ebf3fa;fill-opacity:1;fill-rule:nonzero;stroke:none"
         id="path1901" /></g><g
       id="g1903"
       transform="scale(0.127896)"><path
         d="m 16271.5,8856.85 h -495.9 c -15.6,0 -28.5,12.81 -28.5,28.47 v 17.86 c 0,15.66 12.9,28.48 28.5,28.48 h 495.9 c 15.7,0 28.5,-12.82 28.5,-28.48 v -17.86 c 0,-15.66 -12.8,-28.47 -28.5,-28.47"
         style="fill:#ebf3fa;fill-opacity:1;fill-rule:nonzero;stroke:none"
         id="path1905" /></g><g
       id="g1907"
       transform="scale(0.122857)"><path
         d="m 16222.1,9259.07 c 0,21.5 17.4,38.95 38.9,38.95 21.5,0 39,-17.45 39,-38.95 0,-21.5 -17.5,-38.94 -39,-38.94 -21.5,0 -38.9,17.44 -38.9,38.94"
         style="fill:#ebf3fa;fill-opacity:1;fill-rule:nonzero;stroke:none"
         id="path1909" /></g><g
       id="g1911"
       transform="scale(0.135747)"><path
         d="m 16090.6,8755.71 c -41,-40.02 -41.7,-105.92 -1.7,-146.88 19.3,-19.85 45.3,-30.95 73,-31.27 27.8,-0.32 54,10.17 73.9,29.56 40.9,40.03 41.7,105.92 1.7,146.89 -40,40.96 -106,41.72 -146.9,1.7 z m 89.8,-197.47 c -6.1,-0.84 -12.4,-1.24 -18.7,-1.16 -33.2,0.38 -64.3,13.68 -87.5,37.43 -47.9,49.04 -47,127.93 2.1,175.85 v 0 c 49,47.92 127.9,47 175.8,-2.04 47.9,-49.05 47,-127.93 -2,-175.85 -19.3,-18.8 -43.6,-30.63 -69.7,-34.23"
         style="fill:#151f2c;fill-opacity:1;fill-rule:nonzero;stroke:none"
         id="path1913" /></g><g
       id="g1915"
       transform="scale(0.133987)"><path
         d="m 16177,8587.06 -14.5,14.83 123,120.16 14.5,-14.85 -123,-120.14"
         style="fill:#151f2c;fill-opacity:1;fill-rule:nonzero;stroke:none"
         id="path1917" /></g><g
       id="g1919"
       transform="scale(0.133437)"><path
         d="m 16193.4,8587.95 v 0 c -7.1,7.35 -6.9,19.12 0.4,26.31 l 72.7,71.05 c 7.3,7.18 19.1,7.04 26.3,-0.31 7.2,-7.34 7.1,-19.12 -0.3,-26.3 l -72.8,-71.06 c -7.3,-7.18 -19.1,-7.03 -26.3,0.31"
         style="fill:#151f2c;fill-opacity:1;fill-rule:nonzero;stroke:none"
         id="path1921" /></g><g
       id="g1923"
       transform="scale(0.183236)"><path
         d="m 16281.6,2746.03 v 0 c -11.8,-0.06 -24.2,8.4 -27.6,18.94 L 15546.2,4920 c -3.5,10.59 3.2,19.16 15,19.22 11.8,0.1 24.1,-8.41 27.5,-18.94 l 707.8,-2155.04 c 3.5,-10.53 -3.2,-19.16 -14.9,-19.21"
         style="fill:#151f2c;fill-opacity:1;fill-rule:nonzero;stroke:none"
         id="path1925" /></g><g
       id="g1927"
       transform="scale(0.189648)"><path
         d="m 16282.2,2656.34 v 0 c -11.4,-0.05 -23.3,8.18 -26.7,18.35 l -683.8,2082.18 c -3.3,10.18 3.2,18.51 14.5,18.56 11.3,0.05 23.3,-8.12 26.6,-18.35 l 683.9,-2082.17 c 3.3,-10.18 -3.2,-18.46 -14.5,-18.57"
         style="fill:#151f2c;fill-opacity:1;fill-rule:nonzero;stroke:none"
         id="path1929" /></g><g
       id="g1931"
       transform="scale(0.182732)"><path
         d="m 16282.5,4635.81 -574.4,-3.34 c -11.1,-0.05 -22.8,7.99 -26.1,17.95 -3.2,9.96 3.2,18.11 14.3,18.17 l 574.4,3.34 c 11,0.05 22.7,-7.99 26,-17.95 3.3,-9.96 -3.1,-18.12 -14.2,-18.17"
         style="fill:#151f2c;fill-opacity:1;fill-rule:nonzero;stroke:none"
         id="path1933" /></g><g
       id="g1935"
       transform="scale(0.184121)"><path
         d="m 16282.7,4226.36 -570.1,-3.32 c -11,-0.05 -22.6,7.98 -25.8,17.82 -3.3,9.88 3.1,18.03 14,18.08 l 570.1,3.31 c 11,0.06 22.6,-7.98 25.9,-17.81 3.2,-9.88 -3.2,-18.03 -14.1,-18.08"
         style="fill:#151f2c;fill-opacity:1;fill-rule:nonzero;stroke:none"
         id="path1937" /></g><g
       id="g1939"
       transform="scale(0.185459)"><path
         d="m 16282.8,3837.83 -565.9,-3.29 c -10.9,-0.05 -22.5,7.93 -25.8,17.69 -3.2,9.81 3.2,17.9 14.1,17.95 l 565.9,3.29 c 10.9,0.06 22.5,-7.92 25.7,-17.74 3.2,-9.76 -3.1,-17.85 -14,-17.9"
         style="fill:#151f2c;fill-opacity:1;fill-rule:nonzero;stroke:none"
         id="path1941" /></g><g
       id="g1943"
       transform="scale(0.186965)"><path
         d="m 16282.9,3407.11 -561.4,-3.27 c -10.8,-0.05 -22.3,7.81 -25.4,17.55 -3.2,9.73 3,17.7 13.8,17.76 l 561.4,3.26 c 10.8,0.05 22.3,-7.81 25.5,-17.54 3.2,-9.74 -3.1,-17.71 -13.9,-17.76"
         style="fill:#151f2c;fill-opacity:1;fill-rule:nonzero;stroke:none"
         id="path1945" /></g><g
       id="g1947"
       transform="scale(0.188542)"><path
         d="m 16283.1,2963.59 -556.7,-3.18 c -10.8,-0.11 -22.1,7.74 -25.3,17.39 -3.1,9.6 3,17.56 13.8,17.61 l 556.7,3.24 c 10.7,0.05 22.1,-7.8 25.2,-17.4 3.2,-9.65 -3,-17.56 -13.7,-17.66"
         style="fill:#151f2c;fill-opacity:1;fill-rule:nonzero;stroke:none"
         id="path1949" /></g><g
       id="g1951"
       transform="scale(0.174568)"><path
         d="m 16292.2,6200.33 v 0 c -4.7,-0.91 -9.4,2.2 -10.2,6.91 l -9.7,49.7 c -0.9,4.72 2.2,9.32 6.9,10.23 4.7,0.92 9.3,-2.19 10.3,-6.91 l 9.6,-49.7 c 0.9,-4.71 -2.3,-9.31 -6.9,-10.23"
         style="fill:#151f2c;fill-opacity:1;fill-rule:nonzero;stroke:none"
         id="path1953" /></g><g
       id="g1955"
       transform="scale(0.174352)"><path
         d="m 16300,6287.51 -5.9,-1.14 -13.9,71.93 5.9,1.14 13.9,-71.93"
         style="fill:#151f2c;fill-opacity:1;fill-rule:nonzero;stroke:none"
         id="path1957" /></g><g
       id="g1959"
       transform="scale(0.174204)"><path
         d="m 16300,6770.05 c 0,0 -5.7,49.58 -17.7,68.53 -12,18.95 -57.4,31.13 -60.3,28.35 -8.9,-8.62 26.2,-39.07 27.6,-50.29 1.4,-11.23 -17.9,-3.47 -8.6,-25.35 7.8,-18.48 33.5,-42.44 33.5,-42.44 l 25.5,21.2"
         style="fill:#ee805f;fill-opacity:1;fill-rule:nonzero;stroke:none"
         id="path1961" /></g><g
       id="g1963"
       transform="scale(0.17899)"><path
         d="m 15842.8,6594.38 c 16.1,12.65 19.5,12.41 19.5,12.41 0,0 149.1,-129.18 163.7,-140.68 14.5,-11.5 238.4,-76.45 238.4,-76.45 l 35.6,-182.05 c 0,0 -303,146.37 -339.2,176.24 -59.9,49.35 -135.4,187.49 -135.4,187.49 0,0 4.7,13.11 17.4,23.04"
         style="fill:#2b6eb2;fill-opacity:1;fill-rule:nonzero;stroke:none"
         id="path1965" /></g><g
       id="g1967"
       transform="scale(0.178652)"><path
         d="m 16300,4853.9 c 0,0 -2.6,-62.35 -14.6,-77.47 l -166.5,-1 c 1.2,6.43 1.9,21.32 24.9,25.35 29.1,5.04 63.3,25.36 80.9,63.81 18.5,40.47 75.3,-10.69 75.3,-10.69"
         style="fill:#151f2c;fill-opacity:1;fill-rule:nonzero;stroke:none"
         id="path1969" /></g><g
       id="g1971"
       transform="scale(0.182361)"><path
         d="m 16288.6,4764 c 0,0 11.4,-81.16 -4.1,-82.58 -2,-0.16 -65.7,-1.21 -93.3,-1.64 -32.4,-0.55 -85.7,0.6 -85.7,0.6 -6.7,-0.28 -11.1,6.96 -7.7,12.72 3.7,6.36 10.9,13.11 24.5,15.74 28.4,5.48 75.8,26.32 92.4,64.32 17.5,39.92 73.9,-9.16 73.9,-9.16"
         style="fill:#151f2c;fill-opacity:1;fill-rule:nonzero;stroke:none"
         id="path1973" /></g><g
       id="g1975"
       transform="scale(0.182234)"><path
         d="m 15894.8,5599.3 c 0,0 45.3,-158.81 175.4,-434.67 130.1,-275.85 135.8,-408.76 135.8,-408.76 0,0 19.7,-6.97 45.8,-4.17 28.3,3.02 48.2,15.64 48.2,15.64 0,0 -8.4,328.31 -69.9,467.48 -61.4,139.21 -73.9,520.11 -73.9,520.11 l -261.4,-155.63"
         style="fill:#151f2c;fill-opacity:1;fill-rule:nonzero;stroke:none"
         id="path1977" /></g><g
       id="g1979"
       transform="scale(0.180196)"><path
         d="m 16000.8,5800.83 c 0,0 -3.7,-248.74 39.4,-554.16 43,-305.39 22.9,-447.4 22.9,-447.4 0,0 11.4,-8.33 46.5,-8.22 41.1,0.17 62.1,17.15 62.1,17.15 0,0 61.6,305.56 43.9,458.39 -17.7,152.89 84.4,524.54 84.4,524.54 l -299.2,9.7"
         style="fill:#384152;fill-opacity:1;fill-rule:nonzero;stroke:none"
         id="path1981" /></g><g
       id="g1983"
       transform="scale(0.179137)"><path
         d="m 16300,6420.66 -48.9,-36.23 -70.7,14.89 c 1,6.44 5.7,33.15 9.9,57.34 0.3,1.43 0.5,2.86 0.8,4.26 3.6,20.59 6.7,38.27 6.7,38.27 l 66.1,32.9 24.6,12.26 c -0.1,-0.43 -2,-22.84 -2.2,-26.11 -4.6,-58.11 13.7,-97.58 13.7,-97.58"
         style="fill:#ee805f;fill-opacity:1;fill-rule:nonzero;stroke:none"
         id="path1985" /></g><g
       id="g1987"
       transform="scale(0.180791)"><path
         d="m 16289.6,5751.11 c -15.8,-72.46 -354.9,-40.65 -350.5,3.58 0.2,1.48 1.1,21.95 2.3,49.55 2.6,59.69 6.5,152.96 7,160.25 v 0.38 c 6.1,61.59 12,121.83 12.4,161.18 0.3,34.13 5,69.01 11.3,100.69 5.7,29.23 12.8,55.78 19,76.46 4.3,14.58 12.4,27.38 23.1,37.45 7.6,7.16 16.5,12.94 26.4,16.85 2.7,1.14 5.5,2.07 8.2,2.87 39.9,11.58 95.2,25.9 110.1,21.53 40.5,-11.93 70.6,-83.29 92,-174.24 39.9,-170.25 49.1,-409.32 38.7,-456.55"
         style="fill:#43a1f6;fill-opacity:1;fill-rule:nonzero;stroke:none"
         id="path1989" /></g><g
       id="g1991"
       transform="scale(0.178998)"><path
         d="m 16294,6522.28 c -14.5,-27.76 -68.5,-51.77 -91.1,-60.59 0.3,1.43 0.5,2.86 0.8,4.25 3.6,20.61 6.7,38.31 6.7,38.31 l 66.1,32.92 c 14.6,0.22 23.5,-3.47 17.5,-14.89"
         style="fill:#de6b4d;fill-opacity:1;fill-rule:nonzero;stroke:none"
         id="path1993" /></g><g
       id="g1995"
       transform="scale(0.179786)"><path
         d="m 16107.4,6479.57 c 0,0 118.7,-37.01 140.6,37.24 21.9,74.25 52,119.48 -22.9,146.25 -74.8,26.77 -97.9,2.8 -111.3,-20.2 -13.3,-23 -36.7,-151.74 -6.4,-163.29"
         style="fill:#ee805f;fill-opacity:1;fill-rule:nonzero;stroke:none"
         id="path1997" /></g><g
       id="g1999"
       transform="scale(0.180197)"><path
         d="m 16081.7,6634.85 c 0,0 7.6,-86.21 25.4,-82.47 17.8,3.74 34,6.52 31.4,-19.47 -2.7,-25.98 -27.3,-55.99 27.6,-60.59 54.9,-4.6 133.9,137.1 118.8,163.93 -43.6,77.4 -266.1,93.03 -203.2,-1.4"
         style="fill:#151f2c;fill-opacity:1;fill-rule:nonzero;stroke:none"
         id="path2001" /></g><g
       id="g2003"
       transform="scale(0.1792)"><path
         d="m 16083,5855.78 c 2.5,60.22 6.5,154.33 7,161.68 l 0.1,0.38 202,120.84 c 0,0 7.9,-282.1 -209.1,-282.9"
         style="fill:#2b6eb2;fill-opacity:1;fill-rule:nonzero;stroke:none"
         id="path2005" /></g><g
       id="g2007"
       transform="scale(0.175228)"><path
         d="m 16283.2,6247.1 c 0,0 -42,28.41 -50,30.89 -7.9,2.48 -34,5.16 -35.2,3.1 -1.2,-2.06 -4.8,-8.35 -0.3,-10.49 4.6,-2.13 10.3,-1.39 8.5,-2.88 -1.6,-1.49 -18.8,6.69 -22.8,-2.07 -3.9,-8.76 -7.4,-38.75 12.7,-47.85 20.2,-9.1 69.9,-0.88 73.5,-1.92 30.4,-8.84 13.6,31.22 13.6,31.22"
         style="fill:#ee805f;fill-opacity:1;fill-rule:nonzero;stroke:none"
         id="path2009" /></g><g
       id="g2011"
       transform="scale(0.179357)"><path
         d="m 15908,6110.79 c 0,0 200.3,-34.05 218,-25.4 28.4,13.79 -11,217 -11,217 0,0 -1.7,46.05 52.1,56.91 46.8,9.44 91.9,-25.57 91.9,-25.57 0,0 41,-36.7 35.8,-77.42 -11.6,-90.24 -29.7,-273.77 -90.1,-301.91 -77.8,-36.28 -303.1,100.63 -303.1,100.63 0,0 -7.5,9.18 -6.4,26.24 0.9,15.05 12.8,29.52 12.8,29.52"
         style="fill:#43a1f6;fill-opacity:1;fill-rule:nonzero;stroke:none"
         id="path2013" /></g><g
       id="g2015"
       transform="scale(0.173764)"><path
         d="m 16281.1,6810.96 c 0,0 -13.3,26.3 -15.3,31.24 -2.2,4.94 2.9,3.87 8.1,1.12 5,-2.76 12,-18.02 19.8,-16.19 6.3,1.47 -12.6,-16.17 -12.6,-16.17"
         style="fill:#ee805f;fill-opacity:1;fill-rule:nonzero;stroke:none"
         id="path2017" /></g></g></svg>
