<?xml version="1.0" encoding="UTF-8" standalone="no"?>
<svg
   xmlns:dc="http://purl.org/dc/elements/1.1/"
   xmlns:cc="http://creativecommons.org/ns#"
   xmlns:rdf="http://www.w3.org/1999/02/22-rdf-syntax-ns#"
   xmlns:svg="http://www.w3.org/2000/svg"
   xmlns="http://www.w3.org/2000/svg"
   xmlns:sodipodi="http://sodipodi.sourceforge.net/DTD/sodipodi-0.dtd"
   xmlns:inkscape="http://www.inkscape.org/namespaces/inkscape"
   width="41.643486mm"
   height="42.006454mm"
   viewBox="0 0 41.643486 42.006454"
   version="1.1"
   id="svg1287"
   inkscape:version="1.0.2 (e86c8708, 2021-01-15)"
   sodipodi:docname="seo.svg">
  <defs
     id="defs1281" />
  <sodipodi:namedview
     id="base"
     pagecolor="#ffffff"
     bordercolor="#666666"
     borderopacity="1.0"
     inkscape:pageopacity="0.0"
     inkscape:pageshadow="2"
     inkscape:zoom="0.35"
     inkscape:cx="-9.8750763"
     inkscape:cy="170.81178"
     inkscape:document-units="mm"
     inkscape:current-layer="layer1"
     inkscape:document-rotation="0"
     showgrid="false"
     inkscape:window-width="1248"
     inkscape:window-height="943"
     inkscape:window-x="0"
     inkscape:window-y="25"
     inkscape:window-maximized="0" />
  <metadata
     id="metadata1284">
    <rdf:RDF>
      <cc:Work
         rdf:about="">
        <dc:format>image/svg+xml</dc:format>
        <dc:type
           rdf:resource="http://purl.org/dc/dcmitype/StillImage" />
        <dc:title></dc:title>
      </cc:Work>
    </rdf:RDF>
  </metadata>
  <g
     inkscape:label="Ebene 1"
     inkscape:groupmode="layer"
     id="layer1"
     transform="translate(-108.44611,-102.97272)">
    <path
       d="m 125.09601,141.32161 c 0,1.38642 -1.12395,2.51037 -2.51072,2.51037 -1.38642,0 -2.51037,-1.12395 -2.51037,-2.51037 0,-1.38641 1.12395,-2.51036 2.51037,-2.51036 1.38677,0 2.51072,1.12395 2.51072,2.51036"
       style="fill:#f04668;fill-opacity:1;fill-rule:nonzero;stroke:none;stroke-width:0.0352778"
       id="path849" />
    <path
       d="m 149.01434,115.99922 c 0,1.38642 -1.12395,2.51037 -2.51037,2.51037 -1.38641,0 -2.51036,-1.12395 -2.51036,-2.51037 0,-1.38641 1.12395,-2.51036 2.51036,-2.51036 1.38642,0 2.51037,1.12395 2.51037,2.51036"
       style="fill:#d1d3d4;fill-opacity:1;fill-rule:nonzero;stroke:none;stroke-width:0.0352778"
       id="path851" />
    <path
       d="m 116.83854,110.06444 c 0,1.38642 -1.12395,2.51037 -2.51072,2.51037 -1.38642,0 -2.51037,-1.12395 -2.51037,-2.51037 0,-1.38677 1.12395,-2.51072 2.51037,-2.51072 1.38677,0 2.51072,1.12395 2.51072,2.51072"
       style="fill:#84c2d9;fill-opacity:1;fill-rule:nonzero;stroke:none;stroke-width:0.0352778"
       id="path853" />
    <path
       d="m 109.30109,120.98927 c 0.0406,0.006 0.0811,0.009 0.12135,0.009 0.39088,0 0.73378,-0.2854 0.79411,-0.68369 0.1023,-0.67627 0.24377,-1.35255 0.42016,-2.01048 0.11535,-0.42862 -0.13935,-0.8703 -0.56833,-0.98531 -0.42862,-0.11253 -0.86995,0.1397 -0.98531,0.56868 -0.19226,0.71579 -0.34572,1.45098 -0.45684,2.18617 -0.0667,0.4392 0.23565,0.84948 0.67486,0.91581"
       style="fill:#333333;fill-opacity:1;fill-rule:nonzero;stroke:none;stroke-width:0.0352778"
       id="path855" />
    <path
       d="m 110.30933,126.45379 c -0.12242,-0.66992 -0.20885,-1.35537 -0.25612,-2.03799 -0.031,-0.44309 -0.41345,-0.7867 -0.85866,-0.74648 -0.44309,0.031 -0.77717,0.41522 -0.74648,0.85831 0.0519,0.74154 0.1457,1.48731 0.2787,2.21509 0.0709,0.38805 0.40922,0.65969 0.79022,0.65969 0.048,0 0.0967,-0.004 0.14534,-0.0131 0.4371,-0.0794 0.72673,-0.49883 0.647,-0.93557"
       style="fill:#333333;fill-opacity:1;fill-rule:nonzero;stroke:none;stroke-width:0.0352778"
       id="path857" />
    <path
       d="m 114.80866,135.54629 c -0.29845,-0.32809 -0.80716,-0.35349 -1.13595,-0.0547 -0.32914,0.29845 -0.35383,0.8068 -0.0554,1.13559 0.49812,0.54892 1.03222,1.07632 1.5882,1.5681 0.15311,0.13546 0.34325,0.20179 0.53269,0.20179 0.22225,0 0.4438,-0.0914 0.60255,-0.27094 0.29457,-0.33337 0.26317,-0.84102 -0.0695,-1.13559 -0.51188,-0.45297 -1.004,-0.93874 -1.46261,-1.44427"
       style="fill:#333333;fill-opacity:1;fill-rule:nonzero;stroke:none;stroke-width:0.0352778"
       id="path859" />
    <path
       d="m 111.49184,130.38056 c -0.17498,-0.40851 -0.64805,-0.59901 -1.05551,-0.42298 -0.40852,0.17427 -0.59831,0.647 -0.42369,1.05551 0.29175,0.68298 0.62548,1.35643 0.99166,2.00202 0.14817,0.2607 0.42016,0.40746 0.70026,0.40746 0.13441,0 0.27094,-0.0335 0.39617,-0.10478 0.3863,-0.21907 0.52211,-0.71014 0.30269,-1.09643 -0.33655,-0.59337 -0.64312,-1.21285 -0.91158,-1.8408"
       style="fill:#333333;fill-opacity:1;fill-rule:nonzero;stroke:none;stroke-width:0.0352778"
       id="path861" />
    <path
       d="m 147.84418,124.23376 c -0.43956,-0.0512 -0.83573,0.2787 -0.87948,0.72073 -0.0674,0.6798 -0.17356,1.36243 -0.31573,2.03023 -0.0924,0.43392 0.1852,0.86149 0.61947,0.95356 0.0568,0.012 0.11289,0.0176 0.16828,0.0176 0.37147,0 0.70555,-0.25929 0.78599,-0.63711 0.15416,-0.72532 0.26952,-1.46721 0.3429,-2.20522 0.0434,-0.44238 -0.27905,-0.83608 -0.72143,-0.87983"
       style="fill:#333333;fill-opacity:1;fill-rule:nonzero;stroke:none;stroke-width:0.0352778"
       id="path863" />
    <path
       d="m 136.96381,139.60535 c -0.60855,0.3115 -1.24002,0.59161 -1.87678,0.83255 -0.41557,0.15699 -0.62512,0.6216 -0.46814,1.03682 0.12171,0.32208 0.42792,0.51999 0.75283,0.51999 0.0942,0 0.1905,-0.0166 0.28399,-0.0519 0.6932,-0.26176 1.37971,-0.56656 2.04187,-0.90593 0.39511,-0.20249 0.55139,-0.68686 0.3489,-1.08232 -0.20285,-0.39546 -0.68721,-0.55245 -1.08267,-0.34925"
       style="fill:#333333;fill-opacity:1;fill-rule:nonzero;stroke:none;stroke-width:0.0352778"
       id="path865" />
    <path
       d="m 141.88788,135.94246 c -0.47378,0.49248 -0.97931,0.96379 -1.50319,1.40017 -0.34113,0.28434 -0.38735,0.79128 -0.10301,1.13277 0.1591,0.19085 0.3877,0.28928 0.61842,0.28928 0.18133,0 0.36407,-0.061 0.51435,-0.18627 0.56938,-0.47448 1.11866,-0.98601 1.63336,-1.52188 0.30762,-0.31997 0.29739,-0.82938 -0.0229,-1.13736 -0.31997,-0.30727 -0.82938,-0.29774 -1.137,0.0233"
       style="fill:#333333;fill-opacity:1;fill-rule:nonzero;stroke:none;stroke-width:0.0352778"
       id="path867" />
    <path
       d="m 146.42072,130.48322 c -0.40358,-0.18803 -0.88089,-0.0109 -1.06786,0.39229 -0.2861,0.61877 -0.61101,1.22908 -0.96485,1.81328 -0.23036,0.38029 -0.10865,0.87453 0.27164,1.1049 0.12982,0.0787 0.27376,0.11641 0.41557,0.11641 0.272,0 0.53764,-0.13793 0.68898,-0.3877 0.38453,-0.6357 0.73766,-1.29857 1.04881,-1.97132 0.18626,-0.40323 0.0109,-0.88159 -0.39229,-1.06786"
       style="fill:#333333;fill-opacity:1;fill-rule:nonzero;stroke:none;stroke-width:0.0352778"
       id="path869" />
    <path
       d="m 131.11404,141.45285 c -0.67592,0.0935 -1.36454,0.15134 -2.04681,0.17074 -0.44415,0.0123 -0.79411,0.38206 -0.78141,0.82621 0.0123,0.43674 0.37007,0.78175 0.80363,0.78175 0.008,0 0.0155,0 0.0233,-3.5e-4 0.74118,-0.0212 1.48907,-0.0833 2.22285,-0.18556 0.44027,-0.0607 0.74683,-0.46708 0.6858,-0.90735 -0.061,-0.43991 -0.4699,-0.74683 -0.90735,-0.68544"
       style="fill:#333333;fill-opacity:1;fill-rule:nonzero;stroke:none;stroke-width:0.0352778"
       id="path871" />
    <path
       d="m 128.06357,104.58792 c 0.68087,-0.0169 1.37443,0.004 2.05388,0.0614 0.0233,10e-4 0.0462,0.002 0.0688,0.002 0.41345,0 0.76517,-0.31679 0.80045,-0.7366 0.0377,-0.44273 -0.29104,-0.83185 -0.73342,-0.86959 -0.73837,-0.0617 -1.49155,-0.0857 -2.23097,-0.0653 -0.44415,0.0109 -0.79516,0.38065 -0.78352,0.8248 0.0116,0.44415 0.37112,0.81174 0.82479,0.78281"
       style="fill:#333333;fill-opacity:1;fill-rule:nonzero;stroke:none;stroke-width:0.0352778"
       id="path873" />
    <path
       d="m 139.60188,108.24976 c 0.5461,0.4071 1.07667,0.85054 1.57691,1.31797 0.15523,0.14464 0.35208,0.21626 0.54857,0.21626 0.21555,0 0.42969,-0.0857 0.58808,-0.25542 0.30339,-0.32455 0.28611,-0.83361 -0.0384,-1.137 -0.54398,-0.50729 -1.12042,-0.98883 -1.71309,-1.43086 -0.3563,-0.266 -0.85972,-0.19333 -1.12571,0.16368 -0.26564,0.35631 -0.19227,0.86008 0.16369,1.12537"
       style="fill:#333333;fill-opacity:1;fill-rule:nonzero;stroke:none;stroke-width:0.0352778"
       id="path875" />
    <path
       d="m 134.14194,105.44552 c 0.65122,0.20638 1.29716,0.45191 1.92052,0.72955 0.10618,0.0476 0.21731,0.0698 0.32667,0.0698 0.30798,0 0.60184,-0.1778 0.73519,-0.47731 0.18097,-0.40569 -0.001,-0.88124 -0.40746,-1.06186 -0.67769,-0.30233 -1.38042,-0.56868 -2.0888,-0.7934 -0.42227,-0.13405 -0.87559,0.10054 -1.00965,0.52352 -0.1344,0.42334 0.10019,0.8756 0.52353,1.00965"
       style="fill:#333333;fill-opacity:1;fill-rule:nonzero;stroke:none;stroke-width:0.0352778"
       id="path877" />
    <path
       d="m 121.7552,105.80324 c 0.0938,0 0.18944,-0.0162 0.28222,-0.0512 0.64065,-0.23989 1.29964,-0.44521 1.95933,-0.61066 0.4311,-0.10795 0.69251,-0.54504 0.58456,-0.97543 -0.10795,-0.4318 -0.54469,-0.69144 -0.97579,-0.58526 -0.7179,0.18027 -1.4351,0.40393 -2.13254,0.66534 -0.41592,0.15522 -0.62689,0.61948 -0.47096,1.03505 0.12136,0.32314 0.42757,0.52211 0.75318,0.52211"
       style="fill:#333333;fill-opacity:1;fill-rule:nonzero;stroke:none;stroke-width:0.0352778"
       id="path879" />
    <path
       d="m 147.0917,117.87988 c -0.18203,0.0607 -0.37888,0.0917 -0.5849,0.0917 -1.0915,0 -1.97979,-0.8883 -1.97979,-1.98015 0,-0.756 0.44097,-1.45556 1.12677,-1.78399 0.26741,-0.12983 0.55457,-0.1958 0.85302,-0.1958 1.08867,0 1.97414,0.88795 1.97414,1.97979 0,0.85408 -0.56621,1.62878 -1.38924,1.88842 z m -0.5849,-5.47687 c -0.29598,0 -0.58456,0.0388 -0.86501,0.10901 -0.15346,-0.24695 -0.29987,-0.49848 -0.4625,-0.73696 -0.25082,-0.36689 -0.75071,-0.46037 -1.11795,-0.21096 -0.36654,0.25083 -0.46108,0.75071 -0.21061,1.11796 0.12524,0.18344 0.23636,0.37817 0.3556,0.56726 -0.79904,0.6724 -1.28799,1.67393 -1.28799,2.74214 0,1.97909 1.60973,3.58881 3.58846,3.58881 0.0705,0 0.13829,-0.0123 0.20814,-0.0162 0.0818,0.42616 0.15451,0.85478 0.20637,1.28553 0.0494,0.40851 0.39617,0.70837 0.79763,0.70837 0.0321,0 0.0646,-0.002 0.097,-0.006 0.44098,-0.0529 0.75565,-0.45367 0.70274,-0.89429 -0.0628,-0.52 -0.15311,-1.03682 -0.25577,-1.5494 1.11267,-0.62407 1.82669,-1.79635 1.82669,-3.11715 0,-1.97873 -1.60726,-3.58845 -3.58281,-3.58845"
       style="fill:#333333;fill-opacity:1;fill-rule:nonzero;stroke:none;stroke-width:0.0352778"
       id="path881" />
    <path
       d="m 124.49805,141.92204 c -0.26247,0.85302 -1.06821,1.44815 -1.96003,1.44815 -1.13136,0 -2.05141,-0.92004 -2.05141,-2.05105 0,-0.23777 0.0378,-0.4639 0.11536,-0.68015 0.28469,-0.81668 1.06257,-1.36631 1.93605,-1.36631 1.12853,0 2.04611,0.91793 2.04611,2.04646 0,0.20426 -0.0303,0.41099 -0.0861,0.6029 z m -1.96003,-4.25803 c -1.24601,0 -2.37561,0.63571 -3.0406,1.63301 -0.363,-0.12453 -0.77258,0.0243 -0.96378,0.37218 -0.21379,0.38912 -0.072,0.87807 0.3175,1.0922 0.0229,0.0127 0.0469,0.0243 0.0702,0.037 -0.0243,0.1711 -0.0434,0.34396 -0.0434,0.5207 0,2.01825 1.64182,3.66007 3.66007,3.66007 1.61607,0 3.02154,-1.03857 3.50096,-2.59538 0.10231,-0.34996 0.15381,-0.70803 0.15381,-1.06469 0,-2.01542 -1.63971,-3.65513 -3.65477,-3.65513"
       style="fill:#333333;fill-opacity:1;fill-rule:nonzero;stroke:none;stroke-width:0.0352778"
       id="path883" />
    <path
       d="m 119.36549,127.41476 c 0.47413,0 0.91369,-0.0557 1.31938,-0.16722 0.4057,-0.11112 0.75707,-0.27798 1.05375,-0.50129 0.29704,-0.22225 0.52705,-0.49954 0.68968,-0.83079 0.16299,-0.33091 0.24448,-0.71403 0.24448,-1.14794 0,-0.3482 -0.0547,-0.64982 -0.16299,-0.90382 -0.10865,-0.254 -0.25117,-0.47272 -0.42827,-0.65546 -0.17709,-0.18309 -0.37853,-0.3369 -0.60395,-0.46249 -0.22578,-0.12559 -0.45403,-0.23566 -0.68545,-0.32985 -0.23142,-0.0945 -0.46002,-0.18133 -0.68545,-0.26141 -0.22542,-0.0801 -0.42686,-0.16545 -0.60395,-0.25717 -0.1771,-0.091 -0.31997,-0.19685 -0.42828,-0.3168 -0.10865,-0.11994 -0.16298,-0.26846 -0.16298,-0.44556 0,-0.1143 0.0229,-0.22154 0.0688,-0.32173 0.0455,-0.0995 0.11395,-0.18662 0.20532,-0.26106 0.0914,-0.0741 0.20849,-0.13088 0.35137,-0.17145 0.14287,-0.0395 0.3115,-0.0596 0.50553,-0.0596 0.2741,0 0.51823,0.03 0.73236,0.09 0.21449,0.06 0.40288,0.12418 0.56586,0.19297 0.16228,0.0684 0.2981,0.13229 0.40675,0.19262 0.1083,0.0596 0.18838,0.09 0.23989,0.09 0.0455,0 0.0857,-0.01 0.11994,-0.0303 0.0342,-0.0198 0.061,-0.0582 0.0811,-0.11571 0.0201,-0.0572 0.0346,-0.13406 0.043,-0.23107 0.008,-0.0974 0.0131,-0.22296 0.0131,-0.37677 0,-0.13158 -0.005,-0.24165 -0.0131,-0.32985 -0.008,-0.0885 -0.0183,-0.16298 -0.03,-0.2226 -0.0117,-0.0603 -0.0286,-0.11183 -0.0515,-0.15451 -0.0229,-0.043 -0.0614,-0.0861 -0.11571,-0.12842 -0.0543,-0.043 -0.14429,-0.0942 -0.26988,-0.15451 -0.12558,-0.0596 -0.27975,-0.11571 -0.46249,-0.16687 -0.18274,-0.0515 -0.38699,-0.0942 -0.61242,-0.12841 -0.22578,-0.0346 -0.45861,-0.0511 -0.6985,-0.0511 -0.47942,0 -0.91228,0.0596 -1.29787,0.17956 -0.38558,0.11995 -0.71261,0.28858 -0.98107,0.50518 -0.26811,0.21731 -0.47414,0.47872 -0.61666,0.78387 -0.14287,0.30586 -0.21414,0.64171 -0.21414,1.00718 0,0.35984 0.0529,0.66817 0.15875,0.92534 0.10513,0.25682 0.24519,0.47696 0.41946,0.65934 0.17427,0.18309 0.37147,0.3369 0.59125,0.46285 0.21978,0.12559 0.44556,0.23706 0.67698,0.33408 0.23107,0.0974 0.45685,0.18591 0.67663,0.26529 0.21978,0.0801 0.41698,0.16615 0.5909,0.25717 0.17463,0.0917 0.31433,0.19861 0.42016,0.32138 0.10548,0.12277 0.1584,0.26988 0.1584,0.44097 0,0.14888 -0.0286,0.28046 -0.0857,0.39441 -0.0572,0.1143 -0.14146,0.20849 -0.25258,0.28293 -0.11148,0.0737 -0.24307,0.13123 -0.39441,0.17109 -0.15134,0.0399 -0.3242,0.0596 -0.51823,0.0596 -0.30833,0 -0.5842,-0.037 -0.82656,-0.11077 -0.24306,-0.0744 -0.45579,-0.15452 -0.63853,-0.23989 -0.18274,-0.0861 -0.33549,-0.16439 -0.45825,-0.23565 -0.12277,-0.072 -0.21555,-0.10725 -0.2787,-0.10725 -0.0512,0 -0.0938,0.01 -0.12806,0.0296 -0.0342,0.0205 -0.0631,0.0603 -0.0861,0.11994 -0.0226,0.0603 -0.0395,0.14041 -0.0512,0.24024 -0.0116,0.0995 -0.0169,0.23248 -0.0169,0.39794 0,0.25153 0.0169,0.44167 0.0512,0.56973 0.0342,0.12912 0.0829,0.22331 0.1457,0.28293 0.0628,0.0603 0.16263,0.12418 0.29951,0.19262 0.13723,0.0688 0.30868,0.13582 0.51435,0.20178 0.20567,0.0653 0.4385,0.11995 0.6985,0.16264 0.25964,0.0427 0.53199,0.0642 0.81774,0.0642"
       style="fill:#333333;fill-opacity:1;fill-rule:nonzero;stroke:none;stroke-width:0.0352778"
       id="path887" />
    <path
       d="m 126.16387,121.50785 c 0.0713,-0.23742 0.17427,-0.44274 0.30832,-0.61701 0.13441,-0.17427 0.30269,-0.31256 0.50553,-0.41557 0.2025,-0.10266 0.44098,-0.15416 0.71544,-0.15416 0.54257,0 0.94368,0.17286 1.20368,0.51858 0.25964,0.34537 0.38135,0.82091 0.36406,1.42628 h -3.22121 c 0.0113,-0.26846 0.0529,-0.52141 0.12418,-0.75812 z m 3.71369,5.66279 c 0.25717,-0.0656 0.46849,-0.133 0.63429,-0.20108 0.16546,-0.0688 0.2667,-0.12312 0.3041,-0.16299 0.037,-0.0399 0.067,-0.0818 0.09,-0.12453 0.0229,-0.0423 0.0399,-0.0953 0.0515,-0.15804 0.0113,-0.0632 0.0198,-0.139 0.0254,-0.22754 0.006,-0.0885 0.009,-0.19509 0.009,-0.32103 0,-0.14288 -0.004,-0.26106 -0.013,-0.35525 -0.008,-0.0945 -0.0243,-0.16722 -0.0469,-0.21837 -0.0229,-0.0519 -0.0515,-0.0875 -0.0857,-0.1076 -0.0342,-0.0198 -0.0773,-0.0296 -0.12841,-0.0296 -0.0857,0 -0.1972,0.0272 -0.33408,0.0811 -0.13723,0.0543 -0.31009,0.11465 -0.51858,0.17992 -0.20849,0.0656 -0.45544,0.12594 -0.74084,0.17991 -0.28575,0.0543 -0.617,0.0815 -0.99412,0.0815 -0.37113,0 -0.68933,-0.0487 -0.95497,-0.14569 -0.266,-0.0974 -0.48296,-0.23883 -0.65123,-0.42404 -0.16863,-0.18592 -0.29139,-0.41169 -0.3683,-0.67698 -0.0773,-0.26564 -0.11571,-0.56092 -0.11571,-0.88653 h 4.65208 c 0.20532,0 0.36689,-0.0628 0.48401,-0.18874 0.11677,-0.12559 0.17533,-0.31997 0.17533,-0.58208 v -0.34326 c 0,-0.53657 -0.0681,-1.03363 -0.20532,-1.49083 -0.13687,-0.4565 -0.35136,-0.85232 -0.6424,-1.1864 -0.29175,-0.33408 -0.66428,-0.59548 -1.11831,-0.78387 -0.45402,-0.18873 -1.00083,-0.28222 -1.64042,-0.28222 -0.60572,0 -1.1497,0.0995 -1.6323,0.29951 -0.4826,0.20002 -0.89253,0.49001 -1.22943,0.8696 -0.33726,0.37958 -0.59408,0.84278 -0.77082,1.38782 -0.17709,0.5454 -0.26564,1.15817 -0.26564,1.83798 0,0.71366 0.084,1.33632 0.25259,1.86725 0.16863,0.53128 0.42439,0.97155 0.76658,1.31974 0.3429,0.34819 0.76977,0.60784 1.28094,0.77929 0.51118,0.1718 1.10666,0.25717 1.78647,0.25717 0.37676,0 0.73095,-0.0243 1.06221,-0.073 0.33126,-0.0487 0.62548,-0.10584 0.8823,-0.1711"
       style="fill:#333333;fill-opacity:1;fill-rule:nonzero;stroke:none;stroke-width:0.0352778"
       id="path889" />
    <path
       d="m 138.52238,124.19778 c -0.0744,0.31679 -0.18874,0.58702 -0.3429,0.80963 -0.15417,0.2226 -0.35102,0.39264 -0.59126,0.50941 -0.23989,0.11747 -0.52246,0.17603 -0.84808,0.17603 -0.35418,0 -0.65122,-0.0646 -0.89076,-0.19261 -0.23989,-0.12912 -0.43004,-0.3101 -0.56974,-0.54434 -0.1404,-0.23389 -0.24165,-0.50976 -0.30444,-0.82691 -0.0628,-0.3168 -0.0938,-0.66393 -0.0938,-1.0407 0,-0.40534 0.0385,-0.76693 0.11536,-1.08373 0.0772,-0.31715 0.19261,-0.58843 0.34678,-0.81421 0.15451,-0.22507 0.35136,-0.39688 0.59125,-0.51364 0.23989,-0.11713 0.51964,-0.17604 0.83961,-0.17604 0.35984,0 0.65829,0.066 0.89535,0.19755 0.23707,0.13124 0.42686,0.31433 0.56974,0.54822 0.14252,0.23425 0.24412,0.50941 0.30409,0.82621 0.06,0.3175 0.09,0.66392 0.09,1.04104 0,0.40605 -0.037,0.7673 -0.11112,1.08409 z m 2.33009,-1.16946 c 0,-0.67945 -0.0801,-1.28235 -0.23988,-1.80763 -0.15981,-0.52564 -0.40429,-0.96802 -0.73237,-1.32786 -0.32844,-0.35983 -0.74401,-0.63253 -1.24672,-0.81844 -0.50235,-0.18556 -1.09643,-0.27799 -1.78188,-0.27799 -0.70273,0 -1.31515,0.10513 -1.83762,0.31679 -0.52246,0.21132 -0.95814,0.50942 -1.30669,0.89535 -0.34819,0.38524 -0.6096,0.84773 -0.78387,1.38783 -0.17427,0.53975 -0.26105,1.13524 -0.26105,1.78612 0,0.6738 0.0797,1.27388 0.23953,1.79916 0.15981,0.52564 0.4057,0.96838 0.73695,1.32786 0.33126,0.35983 0.74789,0.63394 1.2506,0.82232 0.50271,0.18839 1.09397,0.28293 1.77377,0.28293 0.70238,0 1.31621,-0.10583 1.84185,-0.31679 0.52529,-0.21132 0.96238,-0.51118 1.31092,-0.89994 0.3482,-0.38841 0.60819,-0.8509 0.77964,-1.38747 0.1711,-0.53693 0.25682,-1.13136 0.25682,-1.78224"
       style="fill:#333333;fill-opacity:1;fill-rule:nonzero;stroke:none;stroke-width:0.0352778"
       id="path891" />
  </g>
</svg>
