<?xml version="1.0" encoding="UTF-8" standalone="no"?>
<svg
   xmlns:dc="http://purl.org/dc/elements/1.1/"
   xmlns:cc="http://creativecommons.org/ns#"
   xmlns:rdf="http://www.w3.org/1999/02/22-rdf-syntax-ns#"
   xmlns:svg="http://www.w3.org/2000/svg"
   xmlns="http://www.w3.org/2000/svg"
   xmlns:sodipodi="http://sodipodi.sourceforge.net/DTD/sodipodi-0.dtd"
   xmlns:inkscape="http://www.inkscape.org/namespaces/inkscape"
   width="42.081093mm"
   height="31.36759mm"
   viewBox="0 0 42.081093 31.36759"
   version="1.1"
   id="svg2192"
   inkscape:version="1.0.2 (e86c8708, 2021-01-15)"
   sodipodi:docname="features_website.svg">
  <defs
     id="defs2186" />
  <sodipodi:namedview
     id="base"
     pagecolor="#ffffff"
     bordercolor="#666666"
     borderopacity="1.0"
     inkscape:pageopacity="0.0"
     inkscape:pageshadow="2"
     inkscape:zoom="0.35"
     inkscape:cx="150.95189"
     inkscape:cy="173.56304"
     inkscape:document-units="mm"
     inkscape:current-layer="layer1"
     inkscape:document-rotation="0"
     showgrid="false"
     inkscape:window-width="1248"
     inkscape:window-height="943"
     inkscape:window-x="0"
     inkscape:window-y="25"
     inkscape:window-maximized="0" />
  <metadata
     id="metadata2189">
    <rdf:RDF>
      <cc:Work
         rdf:about="">
        <dc:format>image/svg+xml</dc:format>
        <dc:type
           rdf:resource="http://purl.org/dc/dcmitype/StillImage" />
        <dc:title></dc:title>
      </cc:Work>
    </rdf:RDF>
  </metadata>
  <g
     inkscape:label="Ebene 1"
     inkscape:groupmode="layer"
     id="layer1"
     transform="translate(-65.893978,-102.24478)">
    <path
       d="M 107.02646,107.28315 H 66.866939 v -3.80823 h 40.159521 v 3.80823"
       style="fill:#84c2d9;fill-opacity:1;fill-rule:nonzero;stroke:none;stroke-width:0.0352778"
       id="path1221" />
    <path
       d="m 86.93435,113.04507 -2.608791,4.69865 -4.401961,0.49424 3.214863,3.51155 -0.890411,5.16855 4.6863,-2.5968 4.587169,2.3742 -0.815975,-5.06942 3.41242,-3.51155 -5.118806,-0.6925 -2.064808,-4.37692"
       style="fill:#f79e34;fill-opacity:1;fill-rule:nonzero;stroke:none;stroke-width:0.0352778"
       id="path1223" />
    <path
       d="M 105.80302,132.0037 H 68.066031 c -0.310797,0 -0.563386,-0.25294 -0.563386,-0.56373 v -23.13482 h 38.863765 v 23.13482 c 0,0.31079 -0.25259,0.56373 -0.56339,0.56373 z M 68.066031,103.85345 h 37.736989 c 0.3108,0 0.56339,0.25259 0.56339,0.56339 v 2.27965 H 67.502645 v -2.27965 c 0,-0.3108 0.252589,-0.56339 0.563386,-0.56339 z m 37.736989,-1.60867 H 68.066031 c -1.19768,0 -2.172053,0.97437 -2.172053,2.17206 v 27.02313 c 0,1.19803 0.974373,2.1724 2.172053,2.1724 h 37.736989 c 1.19768,0 2.17205,-0.97437 2.17205,-2.1724 v -27.02313 c 0,-1.19769 -0.97437,-2.17206 -2.17205,-2.17206"
       style="fill:#333333;fill-opacity:1;fill-rule:nonzero;stroke:none;stroke-width:0.0352778"
       id="path1225" />
    <path
       d="m 104.28149,105.99375 h 0.31821 c 0.4445,0 0.80468,-0.35983 0.80468,-0.80433 0,-0.44415 -0.36018,-0.80433 -0.80468,-0.80433 h -0.31821 c -0.4445,0 -0.80433,0.36018 -0.80433,0.80433 0,0.4445 0.35983,0.80433 0.80433,0.80433"
       style="fill:#333333;fill-opacity:1;fill-rule:nonzero;stroke:none;stroke-width:0.0352778"
       id="path1227" />
    <path
       d="m 101.0504,105.99375 h 0.31821 c 0.4445,0 0.80433,-0.35983 0.80433,-0.80433 0,-0.44415 -0.35983,-0.80433 -0.80433,-0.80433 h -0.31821 c -0.4445,0 -0.80433,0.36018 -0.80433,0.80433 0,0.4445 0.35983,0.80433 0.80433,0.80433"
       style="fill:#333333;fill-opacity:1;fill-rule:nonzero;stroke:none;stroke-width:0.0352778"
       id="path1229" />
    <path
       d="m 97.818955,105.99375 h 0.318912 c 0.444147,0 0.804333,-0.35983 0.804333,-0.80433 0,-0.44415 -0.360186,-0.80433 -0.804333,-0.80433 h -0.318912 c -0.444147,0 -0.804333,0.36018 -0.804333,0.80433 0,0.4445 0.360186,0.80433 0.804333,0.80433"
       style="fill:#333333;fill-opacity:1;fill-rule:nonzero;stroke:none;stroke-width:0.0352778"
       id="path1231" />
    <path
       d="m 90.008456,121.14168 c -0.189442,0.18485 -0.276225,0.4512 -0.231423,0.7119 l 0.582789,3.39725 L 87.309,123.6471 c -0.234597,-0.12312 -0.51435,-0.12312 -0.748947,0 l -3.050822,1.60373 0.582789,-3.39725 c 0.0448,-0.2607 -0.04198,-0.52705 -0.231423,-0.7119 l -2.468386,-2.4056 3.411009,-0.496 c 0.261761,-0.0381 0.488597,-0.20285 0.605719,-0.43991 l 1.525764,-3.09104 1.525058,3.09104 c 0.117122,0.23706 0.343959,0.40181 0.60572,0.43991 l 3.411361,0.496 z m 4.312355,-3.76344 -4.605514,-0.66922 -2.059516,-4.173 c -0.135467,-0.27447 -0.41522,-0.44839 -0.721078,-0.44839 -0.306211,0 -0.585964,0.17392 -0.721431,0.44839 l -2.059869,4.173 -4.605161,0.66922 c -0.303036,0.0441 -0.554567,0.25647 -0.649464,0.54751 -0.09454,0.29105 -0.01552,0.61102 0.203906,0.82445 l 3.331986,3.24837 -0.786695,4.58682 c -0.05151,0.30163 0.07232,0.60678 0.31997,0.78669 0.248355,0.17992 0.576439,0.2032 0.847372,0.0614 l 4.119386,-2.1657 4.119033,2.1657 c 0.117828,0.0617 0.246239,0.0924 0.374297,0.0924 0.0039,0 0.0071,0 0.01094,0 0.444148,0 0.804334,-0.36019 0.804334,-0.80434 0,-0.0924 -0.01552,-0.18097 -0.04445,-0.26388 l -0.764822,-4.45911 3.332338,-3.24837 c 0.219428,-0.21343 0.298098,-0.5334 0.203553,-0.82445 -0.09454,-0.29104 -0.346075,-0.50341 -0.649111,-0.54751"
       style="fill:#333333;fill-opacity:1;fill-rule:nonzero;stroke:none;stroke-width:0.0352778"
       id="path1233" />
  </g>
</svg>
