<?xml version="1.0" encoding="UTF-8" standalone="no"?>
<svg
   xmlns:dc="http://purl.org/dc/elements/1.1/"
   xmlns:cc="http://creativecommons.org/ns#"
   xmlns:rdf="http://www.w3.org/1999/02/22-rdf-syntax-ns#"
   xmlns:svg="http://www.w3.org/2000/svg"
   xmlns="http://www.w3.org/2000/svg"
   xmlns:sodipodi="http://sodipodi.sourceforge.net/DTD/sodipodi-0.dtd"
   xmlns:inkscape="http://www.inkscape.org/namespaces/inkscape"
   width="50.280708mm"
   height="38.651882mm"
   viewBox="0 0 50.280708 38.651882"
   version="1.1"
   id="svg2867"
   inkscape:version="1.0.2 (e86c8708, 2021-01-15)"
   sodipodi:docname="features_services.svg">
  <defs
     id="defs2861" />
  <sodipodi:namedview
     id="base"
     pagecolor="#ffffff"
     bordercolor="#666666"
     borderopacity="1.0"
     inkscape:pageopacity="0.0"
     inkscape:pageshadow="2"
     inkscape:zoom="0.35"
     inkscape:cx="-22.12417"
     inkscape:cy="84.471486"
     inkscape:document-units="mm"
     inkscape:current-layer="layer1"
     inkscape:document-rotation="0"
     showgrid="false"
     inkscape:window-width="1248"
     inkscape:window-height="943"
     inkscape:window-x="46"
     inkscape:window-y="152"
     inkscape:window-maximized="0" />
  <metadata
     id="metadata2864">
    <rdf:RDF>
      <cc:Work
         rdf:about="">
        <dc:format>image/svg+xml</dc:format>
        <dc:type
           rdf:resource="http://purl.org/dc/dcmitype/StillImage" />
        <dc:title></dc:title>
      </cc:Work>
    </rdf:RDF>
  </metadata>
  <g
     inkscape:label="Ebene 1"
     inkscape:groupmode="layer"
     id="layer1"
     transform="translate(-111.68702,-125.81692)">
    <path
       d="m 151.94532,140.57093 c 0,1.60231 -1.3014,2.90406 -2.90019,2.90406 -1.60232,0 -2.90407,-1.30175 -2.90407,-2.90406 0,-1.59844 1.30175,-2.90407 2.90407,-2.90407 1.59879,0 2.90019,1.30563 2.90019,2.90407 z m 7.88176,-3.65972 h -1.45204 c -0.0476,-0.12277 -0.0949,-0.24165 -0.15028,-0.36019 l 1.0287,-1.02482 c 0.83079,-0.83467 0.83079,-2.1918 0,-3.02295 l -2.15265,-2.1523 c -0.80715,-0.80715 -2.21544,-0.80715 -3.0226,0 l -1.03293,1.03259 c -0.11854,-0.0512 -0.23742,-0.0988 -0.35596,-0.14641 v -1.46367 c 0,-1.17511 -0.95743,-2.13678 -2.13642,-2.13678 h -3.04271 c -1.1751,0 -2.13677,0.96167 -2.13677,2.13678 v 1.47179 c -0.11853,0.0473 -0.23319,0.0949 -0.34819,0.1464 l -1.04034,-1.0407 c -0.80716,-0.80715 -2.2158,-0.80715 -3.02296,0 l -2.15229,2.14842 c -0.40358,0.40746 -0.62513,0.94157 -0.62513,1.51553 0,0.56974 0.22155,1.10773 0.62513,1.5113 l 1.04457,1.0407 c -0.0515,0.11465 -0.0991,0.2293 -0.14252,0.34431 h -1.47179 c -1.17934,0 -2.14066,0.95744 -2.14066,2.13642 v 3.04271 c 0,1.17898 0.96132,2.1403 2.14066,2.1403 h 1.47179 c 0.0434,0.11501 0.091,0.22966 0.14252,0.34431 l -1.04457,1.04458 c -0.40358,0.40358 -0.62513,0.94156 -0.62513,1.5113 0,0.56974 0.22155,1.10807 0.62513,1.51165 l 2.15229,2.1523 c 0.40358,0.40358 0.93769,0.62512 1.5113,0.62512 0.56974,0 1.10808,-0.22154 1.51166,-0.62512 l 1.04034,-1.0407 c 0.115,0.0515 0.22966,0.0991 0.34819,0.14641 v 1.46403 c 0,1.17898 0.96167,2.14065 2.13677,2.14065 h 3.04271 c 1.17899,0 2.13642,-0.96167 2.13642,-2.14065 v -1.45592 c 0.11854,-0.0476 0.23742,-0.0949 0.35596,-0.1464 l 1.03293,1.03258 c 0.40358,0.40358 0.94156,0.62512 1.5113,0.62512 0.56974,0 1.10772,-0.22154 1.5113,-0.62512 l 2.15265,-2.1523 c 0.83079,-0.83079 0.83079,-2.18793 0,-3.02295 l -1.0287,-1.02482 c 0.0554,-0.12241 0.10654,-0.24518 0.15416,-0.36407 h 1.44816 c 1.17898,0 2.14065,-0.96132 2.14065,-2.1403 v -3.04271 c 0,-1.17898 -0.96167,-2.13642 -2.14065,-2.13642"
       style="fill:#f79e34;fill-opacity:1;fill-rule:nonzero;stroke:none;stroke-width:0.0352778"
       id="path1235" />
    <path
       d="m 129.02887,151.53879 c 0,2.42534 -1.97449,4.39561 -4.39984,4.39561 -2.42535,0 -4.39597,-1.97027 -4.39597,-4.39561 0,-2.4257 1.97062,-4.39597 4.39597,-4.39597 2.42535,0 4.39984,1.97027 4.39984,4.39597 z m 6.38599,-3.66007 h -1.45204 c -0.0476,-0.12242 -0.0991,-0.2413 -0.15063,-0.35984 l 1.02482,-1.02481 c 0.83502,-0.83503 0.83502,-2.19217 0,-3.02684 l -2.14842,-2.14841 c -0.80716,-0.80716 -2.2158,-0.80716 -3.02295,0 l -1.03258,1.03258 c -0.11854,-0.0515 -0.23742,-0.0988 -0.35596,-0.14641 v -1.46402 c 0,-1.17899 -0.96167,-2.13643 -2.14065,-2.13643 h -3.03848 c -1.17933,0 -2.13677,0.95744 -2.13677,2.13643 v 1.47178 c -0.11854,0.0476 -0.23354,0.0952 -0.35207,0.14641 l -1.03682,-1.04034 c -0.83467,-0.83503 -2.19181,-0.83503 -3.02683,0 l -2.14842,2.14841 c -0.40358,0.40358 -0.62512,0.94157 -0.62512,1.5113 0,0.57362 0.22154,1.11196 0.62512,1.51554 l 1.04458,1.04034 c -0.0512,0.115 -0.0988,0.22966 -0.14217,0.34431 h -1.47602 c -1.17899,0 -2.13643,0.95744 -2.13643,2.13677 v 3.04236 c 0,1.17933 0.95744,2.14065 2.13643,2.14065 h 1.47602 c 0.0434,0.11466 0.091,0.22966 0.14217,0.34432 l -1.04458,1.04457 c -0.40358,0.40358 -0.62512,0.94156 -0.62512,1.5113 0,0.56974 0.22154,1.10772 0.62512,1.5113 l 2.14842,2.14877 c 0.41945,0.4191 0.96555,0.62512 1.51165,0.62512 0.54998,0 1.09608,-0.20602 1.51518,-0.62512 l 1.03682,-1.03681 c 0.11853,0.0515 0.23353,0.0988 0.35207,0.14252 v 1.46791 c 0,1.17898 0.95744,2.13642 2.13677,2.13642 h 3.03848 c 1.17898,0 2.14065,-0.95744 2.14065,-2.13642 v -1.45627 c 0.11854,-0.0473 0.23742,-0.0988 0.35596,-0.15028 l 1.03258,1.03293 c 0.40357,0.40358 0.94191,0.629 1.51165,0.629 0.56974,0 1.10772,-0.22542 1.5113,-0.629 l 2.14842,-2.14877 c 0.83502,-0.83467 0.83502,-2.18793 0,-3.0226 l -1.02482,-1.02482 c 0.0515,-0.12277 0.10301,-0.24518 0.15063,-0.36407 h 1.45204 c 1.17898,0 2.13642,-0.96132 2.13642,-2.14065 v -3.04236 c 0,-1.17933 -0.95744,-2.13677 -2.13642,-2.13677"
       style="fill:#84c2d9;fill-opacity:1;fill-rule:nonzero;stroke:none;stroke-width:0.0352778"
       id="path1237" />
    <path
       d="m 149.04513,143.47499 c -1.60232,0 -2.90407,-1.30175 -2.90407,-2.90406 0,-1.59844 1.30175,-2.90407 2.90407,-2.90407 1.59879,0 2.90019,1.30563 2.90019,2.90407 0,1.60231 -1.3014,2.90406 -2.90019,2.90406 z m 0,-7.41468 c -2.48849,0 -4.5145,2.02177 -4.5145,4.51062 0,2.48884 2.02601,4.51061 4.5145,4.51061 2.48497,0 4.51062,-2.02177 4.51062,-4.51061 0,-2.48885 -2.02565,-4.51062 -4.51062,-4.51062"
       style="fill:#333333;fill-opacity:1;fill-rule:nonzero;stroke:none;stroke-width:0.0352778"
       id="path1239" />
    <path
       d="m 160.3573,142.09034 c 0,0.29281 -0.23742,0.53023 -0.53022,0.53023 h -2.01401 c -0.008,0 -0.0198,0.004 -0.0275,0.004 -0.0356,0 -0.0674,0.004 -0.0991,0.008 -0.0236,0.004 -0.0434,0.008 -0.0632,0.012 -0.0279,0.008 -0.0593,0.0198 -0.0871,0.0279 -0.0198,0.008 -0.0395,0.0155 -0.0593,0.0236 -0.0279,0.0159 -0.0515,0.0275 -0.0794,0.0434 -0.0198,0.012 -0.0353,0.0236 -0.055,0.0356 -0.024,0.0197 -0.0437,0.0356 -0.0674,0.0554 -0.0159,0.0159 -0.0318,0.0318 -0.0476,0.0476 -0.0198,0.0198 -0.0356,0.0434 -0.0554,0.067 -0.0116,0.0197 -0.0275,0.0395 -0.0395,0.0596 -0.0159,0.0236 -0.0275,0.0473 -0.0395,0.0709 -0.012,0.024 -0.0236,0.0476 -0.0318,0.0755 -0.004,0.0116 -0.0116,0.0236 -0.0159,0.0356 -0.12664,0.39935 -0.2928,0.8068 -0.50235,1.21461 -0.008,0.0117 -0.012,0.0314 -0.0159,0.0473 -0.008,0.012 -0.012,0.024 -0.0159,0.0356 -0.0314,0.0871 -0.0515,0.17815 -0.0515,0.26529 v 0.0356 c 0.004,0.091 0.0201,0.18203 0.0515,0.26881 0.004,0.008 0.012,0.0198 0.0159,0.0317 0.0356,0.0871 0.0871,0.16616 0.15417,0.23742 0.004,0.004 0.008,0.008 0.012,0.012 l 1.42064,1.42416 c 0.20567,0.20567 0.20567,0.53834 0,0.74789 l -2.14877,2.14842 c -0.20144,0.20179 -0.54963,0.20179 -0.74754,0 l -1.43227,-1.4284 c -0.004,-0.004 -0.008,-0.008 -0.0159,-0.0116 -0.0674,-0.0674 -0.1464,-0.11889 -0.23354,-0.15452 -0.012,-0.004 -0.0197,-0.012 -0.0317,-0.0159 -0.0868,-0.0314 -0.1778,-0.0473 -0.26882,-0.0515 h -0.0318 c -0.091,0 -0.17815,0.0201 -0.26493,0.0515 -0.0159,0.004 -0.0279,0.008 -0.0399,0.0159 -0.0155,0.008 -0.0356,0.012 -0.0511,0.0198 -0.37994,0.19791 -0.7874,0.36406 -1.21073,0.50271 -0.012,0.004 -0.0198,0.008 -0.0317,0.0116 -0.0279,0.012 -0.0515,0.024 -0.0751,0.0356 -0.0236,0.012 -0.0476,0.0236 -0.0674,0.0356 -0.0236,0.012 -0.0434,0.0279 -0.0631,0.0434 -0.024,0.0159 -0.0438,0.0356 -0.0635,0.0515 -0.0159,0.0159 -0.0356,0.0356 -0.0515,0.0554 -0.0155,0.0198 -0.0356,0.0395 -0.0473,0.0596 -0.0159,0.0198 -0.0317,0.0434 -0.0437,0.0631 -0.0116,0.0236 -0.0236,0.0476 -0.0353,0.0674 -0.012,0.0236 -0.0198,0.0512 -0.0279,0.0751 -0.012,0.0236 -0.0198,0.0473 -0.0236,0.0751 -0.008,0.0236 -0.012,0.0473 -0.0159,0.0713 -0.004,0.0275 -0.008,0.0593 -0.008,0.0868 0,0.012 -0.004,0.024 -0.004,0.0318 v 2.01789 c 0,0.2928 -0.23742,0.53022 -0.52599,0.53022 h -3.04271 c -0.28892,0 -0.52634,-0.23742 -0.52634,-0.53022 V 149.339 c 0,-0.012 -0.004,-0.024 -0.004,-0.0356 -0.004,-0.0318 -0.004,-0.0593 -0.008,-0.0871 -0.004,-0.0236 -0.0117,-0.0515 -0.0155,-0.0751 -0.008,-0.0236 -0.0159,-0.0476 -0.024,-0.0751 -0.008,-0.0236 -0.0198,-0.0476 -0.0275,-0.0713 -0.012,-0.0236 -0.024,-0.0434 -0.0395,-0.0674 -0.012,-0.0197 -0.024,-0.0434 -0.0399,-0.0631 -0.0155,-0.0236 -0.0314,-0.0434 -0.0511,-0.0635 -0.0159,-0.0155 -0.0318,-0.0356 -0.0515,-0.0512 -0.0198,-0.0197 -0.0395,-0.0356 -0.0635,-0.0515 -0.0197,-0.0159 -0.0395,-0.0317 -0.0593,-0.0437 -0.0236,-0.0116 -0.0473,-0.0236 -0.067,-0.0353 -0.0279,-0.012 -0.0515,-0.024 -0.0794,-0.0356 -0.0117,-0.004 -0.0236,-0.008 -0.0356,-0.012 -0.39158,-0.12665 -0.79904,-0.2928 -1.19873,-0.49847 -0.0159,-0.008 -0.0317,-0.012 -0.0476,-0.0198 -0.0155,-0.004 -0.0275,-0.012 -0.0395,-0.0159 -0.0871,-0.0317 -0.17815,-0.0476 -0.26494,-0.0515 h -0.0356 c -0.091,0.004 -0.18203,0.0198 -0.26529,0.0515 -0.0116,0.008 -0.0236,0.0116 -0.0356,0.0159 -0.0868,0.0395 -0.16192,0.091 -0.23318,0.15416 -0.004,0.008 -0.012,0.008 -0.0159,0.012 l -1.43616,1.43616 c -0.1979,0.20179 -0.5461,0.20179 -0.74788,0 l -2.14842,-2.14842 c -0.10301,-0.10301 -0.15452,-0.23354 -0.15452,-0.37606 0,-0.14217 0.0515,-0.2727 0.15452,-0.37183 l 1.44004,-1.44392 c 0.004,-0.004 0.004,-0.008 0.008,-0.012 0.067,-0.0713 0.11853,-0.15029 0.15417,-0.23354 0.008,-0.012 0.012,-0.0236 0.0159,-0.0356 0.0318,-0.0871 0.0515,-0.17392 0.0515,-0.26494 0,-0.012 0.004,-0.024 0.004,-0.0356 -0.004,-0.091 -0.0198,-0.17815 -0.0515,-0.26529 -0.008,-0.0116 -0.012,-0.0275 -0.0159,-0.0395 -0.008,-0.0159 -0.0117,-0.0317 -0.0198,-0.0473 -0.19791,-0.38806 -0.36795,-0.79128 -0.49459,-1.19909 -0.004,-0.0116 -0.0117,-0.0236 -0.0159,-0.0356 -0.008,-0.0236 -0.0198,-0.0512 -0.0314,-0.0751 -0.012,-0.0236 -0.024,-0.0473 -0.0399,-0.067 -0.0116,-0.024 -0.0275,-0.0437 -0.0395,-0.0635 -0.0198,-0.0198 -0.0356,-0.0434 -0.0554,-0.0632 l -0.0473,-0.0476 c -0.024,-0.0198 -0.0437,-0.0395 -0.0674,-0.0554 -0.0198,-0.012 -0.0395,-0.0236 -0.0554,-0.0356 -0.0275,-0.0159 -0.0515,-0.0318 -0.079,-0.0434 -0.0197,-0.008 -0.0395,-0.0159 -0.0593,-0.0236 -0.0279,-0.008 -0.0596,-0.0201 -0.091,-0.0279 l -0.0596,-0.012 c -0.0314,-0.004 -0.0631,-0.008 -0.0988,-0.008 -0.008,0 -0.0197,-0.004 -0.0279,-0.004 h -2.03341 c -0.29281,0 -0.53022,-0.23742 -0.53022,-0.53023 v -3.04271 c 0,-0.28892 0.23741,-0.52634 0.53022,-0.52634 h 2.03764 c 0.0752,-0.004 0.15029,-0.0159 0.21732,-0.0356 0.0159,-0.004 0.0318,-0.008 0.0476,-0.0155 0.0674,-0.024 0.13441,-0.0557 0.19403,-0.0991 0.008,-0.004 0.0159,-0.012 0.0236,-0.0198 0.0515,-0.0395 0.10302,-0.0871 0.14253,-0.14252 0.008,-0.008 0.0159,-0.0159 0.0236,-0.0275 0.0434,-0.0635 0.079,-0.13053 0.10301,-0.20179 0.004,-0.008 0.008,-0.012 0.0117,-0.0198 0.12664,-0.40358 0.2928,-0.80328 0.49459,-1.19486 0.008,-0.0159 0.012,-0.0318 0.0198,-0.0476 0.004,-0.0159 0.008,-0.0279 0.0159,-0.0395 0.0317,-0.0871 0.0476,-0.17815 0.0515,-0.26529 0,-0.0116 -0.004,-0.0236 -0.004,-0.0356 0,-0.091 -0.0198,-0.18168 -0.0515,-0.26493 -0.004,-0.012 -0.008,-0.0236 -0.0159,-0.0356 -0.0356,-0.0871 -0.0871,-0.16615 -0.15417,-0.23353 -0.004,-0.004 -0.004,-0.0117 -0.008,-0.0155 l -1.44004,-1.44039 c -0.10301,-0.0988 -0.15452,-0.23354 -0.15452,-0.37183 0,-0.14252 0.0515,-0.27693 0.15452,-0.37606 l 2.14842,-2.14841 c 0.20178,-0.20179 0.54998,-0.20179 0.74788,0 l 1.43616,1.43616 c 0.008,0.004 0.0159,0.008 0.0236,0.0159 0.0635,0.0554 0.13441,0.10301 0.20955,0.13864 0.024,0.008 0.0437,0.0198 0.0674,0.0275 0.0871,0.0317 0.17815,0.0515 0.26917,0.0515 0.091,0 0.18203,-0.0198 0.26917,-0.0515 0.0198,-0.008 0.0356,-0.0116 0.0554,-0.0198 0.0117,-0.008 0.0275,-0.008 0.0434,-0.0159 0.39969,-0.20567 0.80715,-0.37571 1.19873,-0.49848 0.012,-0.004 0.024,-0.0116 0.0356,-0.0159 0.0279,-0.008 0.0515,-0.0198 0.0794,-0.0314 0.0198,-0.012 0.0434,-0.024 0.067,-0.0356 0.0197,-0.0159 0.0395,-0.0279 0.0635,-0.0437 0.0197,-0.0198 0.0395,-0.0356 0.0593,-0.0512 0.0198,-0.0201 0.0356,-0.0356 0.0515,-0.0554 0.0198,-0.0201 0.0356,-0.0399 0.0511,-0.0596 0.0159,-0.0198 0.0279,-0.0434 0.0399,-0.0632 0.0155,-0.0236 0.0275,-0.0476 0.0395,-0.0674 0.008,-0.0236 0.0197,-0.0473 0.0275,-0.0751 0.008,-0.0236 0.0159,-0.0476 0.024,-0.0751 0.004,-0.0236 0.0117,-0.0476 0.0155,-0.0713 0.004,-0.0275 0.004,-0.0593 0.008,-0.0871 0,-0.0116 0.004,-0.0236 0.004,-0.0356 v -2.03341 c 0,-0.28893 0.23742,-0.52635 0.52634,-0.52635 h 3.04271 c 0.28857,0 0.52599,0.23742 0.52599,0.52635 v 2.02177 c 0,0.0116 0.004,0.0236 0.004,0.0317 0,0.0314 0.004,0.0593 0.008,0.0868 0.004,0.0279 0.008,0.0515 0.0159,0.0751 0.004,0.024 0.0117,0.0515 0.0236,0.0751 0.008,0.024 0.0159,0.0476 0.0279,0.0713 0.0116,0.024 0.0236,0.0476 0.0353,0.0674 0.012,0.0236 0.0279,0.0434 0.0437,0.0674 0.0116,0.0197 0.0317,0.0395 0.0473,0.0593 0.0159,0.0198 0.0356,0.0356 0.0515,0.0515 0.0197,0.0197 0.0395,0.0356 0.0635,0.0515 0.0197,0.0155 0.0395,0.0314 0.0631,0.0473 0.0198,0.012 0.0437,0.0236 0.0674,0.0356 0.0236,0.012 0.0473,0.0236 0.0751,0.0317 0.012,0.004 0.0197,0.0116 0.0317,0.0159 0.42333,0.13441 0.83079,0.30445 1.21073,0.50236 0.0155,0.008 0.0314,0.008 0.0473,0.0159 0.0159,0.008 0.0356,0.0159 0.0515,0.0198 0.091,0.0317 0.18203,0.0554 0.26917,0.0554 0.0949,0 0.18591,-0.0236 0.26882,-0.0554 0.024,-0.008 0.0476,-0.0159 0.0674,-0.0279 0.079,-0.0356 0.15028,-0.079 0.20955,-0.13829 0.008,-0.008 0.0201,-0.008 0.024,-0.0159 l 1.43227,-1.42839 c 0.19791,-0.20179 0.5461,-0.20179 0.74754,0 l 2.14877,2.14841 c 0.20567,0.20603 0.20567,0.54222 0,0.74789 l -1.42064,1.42452 -0.012,0.0116 c -0.067,0.0713 -0.11854,0.15028 -0.15417,0.23742 -0.004,0.012 -0.012,0.0198 -0.0159,0.0318 -0.0314,0.0871 -0.0473,0.17392 -0.0515,0.26494 v 0.0356 c 0,0.091 0.0201,0.17815 0.0515,0.26529 0.004,0.0159 0.008,0.0275 0.0159,0.0395 0.008,0.0159 0.012,0.0356 0.0198,0.0515 0.19791,0.37959 0.36407,0.7874 0.50271,1.21074 0,0.008 0.008,0.0116 0.008,0.0198 0.0279,0.0713 0.0593,0.14252 0.10301,0.20179 0.008,0.0116 0.0155,0.0198 0.0236,0.0275 0.0434,0.0554 0.091,0.10301 0.1464,0.1464 0.008,0.004 0.0159,0.012 0.0236,0.0159 0.0593,0.0434 0.12276,0.0751 0.19402,0.0991 0.0116,0.008 0.0275,0.0116 0.0434,0.0155 0.0713,0.0198 0.14253,0.0318 0.21767,0.0356 0.004,0 0.004,0 0.004,0 h 2.01401 c 0.2928,0 0.53022,0.23742 0.53022,0.52634 z m -0.53022,-5.17913 h -1.45204 c -0.0476,-0.12277 -0.0949,-0.24165 -0.15028,-0.36019 l 1.0287,-1.02482 c 0.83079,-0.83467 0.83079,-2.1918 0,-3.02295 l -2.15265,-2.1523 c -0.80715,-0.80715 -2.21544,-0.80715 -3.0226,0 l -1.03293,1.03259 c -0.11854,-0.0512 -0.23742,-0.0988 -0.35596,-0.14641 v -1.46367 c 0,-1.17511 -0.95743,-2.13678 -2.13642,-2.13678 h -3.04271 c -1.1751,0 -2.13677,0.96167 -2.13677,2.13678 v 1.47179 c -0.11853,0.0473 -0.23319,0.0949 -0.34819,0.1464 l -1.04034,-1.0407 c -0.80716,-0.80715 -2.2158,-0.80715 -3.02296,0 l -2.15229,2.14842 c -0.40358,0.40746 -0.62513,0.94157 -0.62513,1.51553 0,0.56974 0.22155,1.10773 0.62513,1.5113 l 1.04457,1.0407 c -0.0515,0.11465 -0.0991,0.2293 -0.14252,0.34431 h -1.47179 c -1.17934,0 -2.14066,0.95744 -2.14066,2.13642 v 3.04271 c 0,1.17898 0.96132,2.1403 2.14066,2.1403 h 1.47179 c 0.0434,0.11501 0.091,0.22966 0.14252,0.34431 l -1.04457,1.04458 c -0.40358,0.40358 -0.62513,0.94156 -0.62513,1.5113 0,0.56974 0.22155,1.10807 0.62513,1.51165 l 2.15229,2.1523 c 0.40358,0.40358 0.93769,0.62512 1.5113,0.62512 0.56974,0 1.10808,-0.22154 1.51166,-0.62512 l 1.04034,-1.0407 c 0.115,0.0515 0.22966,0.0991 0.34819,0.14641 v 1.46403 c 0,1.17898 0.96167,2.14065 2.13677,2.14065 h 3.04271 c 1.17899,0 2.13642,-0.96167 2.13642,-2.14065 v -1.45592 c 0.11854,-0.0476 0.23742,-0.0949 0.35596,-0.1464 l 1.03293,1.03258 c 0.40358,0.40358 0.94156,0.62512 1.5113,0.62512 0.56974,0 1.10772,-0.22154 1.5113,-0.62512 l 2.15265,-2.1523 c 0.83079,-0.83079 0.83079,-2.18793 0,-3.02295 l -1.0287,-1.02482 c 0.0554,-0.12241 0.10654,-0.24518 0.15416,-0.36407 h 1.44816 c 1.17898,0 2.14065,-0.96132 2.14065,-2.1403 v -3.04271 c 0,-1.17898 -0.96167,-2.13642 -2.14065,-2.13642"
       style="fill:#333333;fill-opacity:1;fill-rule:nonzero;stroke:none;stroke-width:0.0352778"
       id="path1241" />
    <path
       d="m 124.62903,155.9344 c -2.42535,0 -4.39597,-1.97027 -4.39597,-4.39561 0,-2.4257 1.97062,-4.39597 4.39597,-4.39597 2.42535,0 4.39984,1.97027 4.39984,4.39597 0,2.42534 -1.97449,4.39561 -4.39984,4.39561 z m 0,-10.40201 c -3.31153,0 -6.00604,2.69452 -6.00604,6.0064 0,3.31152 2.69451,6.00604 6.00604,6.00604 3.31152,0 6.00604,-2.69452 6.00604,-6.00604 0,-3.31188 -2.69452,-6.0064 -6.00604,-6.0064"
       style="fill:#333333;fill-opacity:1;fill-rule:nonzero;stroke:none;stroke-width:0.0352778"
       id="path1243" />
    <path
       d="m 135.94508,153.05785 c 0,0.2928 -0.23742,0.53022 -0.53022,0.53022 h -2.01401 c -0.012,0 -0.0198,0.004 -0.0317,0.004 -0.0356,0 -0.067,0.004 -0.0988,0.008 -0.0198,0.004 -0.0395,0.008 -0.0593,0.012 -0.0317,0.008 -0.0635,0.0198 -0.091,0.0275 -0.0198,0.008 -0.0399,0.0159 -0.0554,0.0236 -0.0279,0.0159 -0.0554,0.0279 -0.0833,0.0476 -0.0159,0.008 -0.0356,0.0198 -0.0515,0.0318 -0.0236,0.0198 -0.0473,0.0356 -0.0713,0.0593 -0.0159,0.012 -0.0314,0.0275 -0.0434,0.0434 -0.0198,0.0198 -0.0395,0.0437 -0.0554,0.0674 -0.0159,0.0197 -0.0317,0.0395 -0.0434,0.0593 -0.012,0.024 -0.024,0.0437 -0.0356,0.0674 -0.012,0.0275 -0.024,0.0515 -0.0356,0.079 -0.004,0.012 -0.008,0.024 -0.012,0.0356 -0.12664,0.3997 -0.2928,0.80715 -0.50235,1.21073 -0.008,0.0159 -0.012,0.0356 -0.0198,0.0515 -0.004,0.012 -0.008,0.0236 -0.012,0.0356 -0.0356,0.0871 -0.0515,0.17815 -0.0515,0.26493 v 0.0356 c 0,0.091 0.0198,0.18203 0.0515,0.26528 0.004,0.0117 0.008,0.0236 0.0159,0.0356 0.0356,0.0868 0.0871,0.16616 0.15417,0.23319 0.004,0.004 0.004,0.012 0.008,0.0159 l 1.42416,1.42063 c 0.20567,0.20955 0.20567,0.54187 0,0.75177 l -2.14841,2.14842 c -0.20179,0.19755 -0.54998,0.20179 -0.75177,0 l -1.4284,-1.4284 c -0.004,-0.008 -0.0116,-0.008 -0.0155,-0.012 -0.0674,-0.067 -0.1464,-0.11854 -0.23354,-0.15417 -0.012,-0.004 -0.0236,-0.012 -0.0356,-0.0159 -0.0833,-0.0318 -0.17427,-0.0476 -0.26529,-0.0515 h -0.0353 c -0.0871,0 -0.17815,0.0198 -0.26529,0.0515 -0.012,0.004 -0.0236,0.008 -0.0356,0.0159 -0.0197,0.008 -0.0356,0.0116 -0.0515,0.0198 -0.37959,0.19367 -0.7874,0.36406 -1.21074,0.50235 -0.0116,0.004 -0.0198,0.008 -0.0314,0.012 -0.0279,0.0116 -0.0515,0.0236 -0.0794,0.0356 -0.0236,0.0116 -0.0434,0.0236 -0.067,0.0356 -0.0198,0.0116 -0.0399,0.0275 -0.0596,0.0434 -0.0236,0.0159 -0.0434,0.0318 -0.0631,0.0515 -0.0198,0.0159 -0.0356,0.0356 -0.0515,0.0515 -0.0159,0.0236 -0.0356,0.0434 -0.0515,0.0631 -0.0155,0.0198 -0.0275,0.0437 -0.0395,0.0635 -0.0117,0.0236 -0.0275,0.0434 -0.0356,0.067 -0.0116,0.024 -0.0198,0.0476 -0.0314,0.0751 -0.008,0.024 -0.0159,0.0476 -0.024,0.0751 -0.004,0.024 -0.008,0.0476 -0.0116,0.0713 -0.004,0.0279 -0.008,0.0596 -0.008,0.0871 0,0.012 -0.004,0.0198 -0.004,0.0318 v 2.01789 c 0,0.2928 -0.23742,0.53022 -0.53022,0.53022 h -3.03848 c -0.2928,0 -0.53022,-0.23742 -0.53022,-0.53022 v -2.02989 c 0,-0.0116 0,-0.0198 -0.004,-0.0318 0,-0.0314 -0.004,-0.0593 -0.008,-0.0868 -0.004,-0.0279 -0.008,-0.0515 -0.012,-0.0751 -0.008,-0.024 -0.0159,-0.0515 -0.0236,-0.0751 -0.008,-0.024 -0.0198,-0.0476 -0.0318,-0.0713 -0.008,-0.024 -0.0236,-0.0437 -0.0356,-0.0674 -0.0116,-0.0236 -0.0275,-0.0434 -0.0395,-0.0631 -0.0159,-0.024 -0.0356,-0.0437 -0.0515,-0.0635 -0.0155,-0.0159 -0.0356,-0.0356 -0.0512,-0.0515 -0.0198,-0.0198 -0.0399,-0.0356 -0.0635,-0.0512 -0.0197,-0.0159 -0.0395,-0.0317 -0.0631,-0.0437 -0.0198,-0.0159 -0.0438,-0.0236 -0.0674,-0.0356 -0.0236,-0.0159 -0.0515,-0.0236 -0.0752,-0.0356 -0.012,-0.004 -0.0236,-0.0116 -0.0356,-0.0116 -0.39581,-0.12665 -0.79939,-0.2928 -1.20297,-0.49883 -0.0116,-0.008 -0.0314,-0.0116 -0.0473,-0.0197 -0.012,-0.008 -0.0236,-0.0116 -0.0356,-0.0159 -0.0871,-0.0314 -0.17815,-0.0511 -0.26529,-0.0511 h -0.0353 c -0.091,0.004 -0.18203,0.0198 -0.26917,0.0511 -0.008,0.004 -0.0198,0.012 -0.0318,0.0159 -0.0871,0.0356 -0.16616,0.091 -0.23354,0.15452 -0.004,0.004 -0.0116,0.008 -0.0155,0.0116 l -1.43651,1.43651 c -0.20567,0.20567 -0.54187,0.20567 -0.74754,0 l -2.14877,-2.15265 c -0.10265,-0.0988 -0.15804,-0.22931 -0.15804,-0.37183 0,-0.14252 0.0554,-0.27305 0.15804,-0.37571 l 1.43652,-1.44039 c 0.008,-0.004 0.008,-0.008 0.0116,-0.0116 0.0674,-0.0713 0.11888,-0.15064 0.15451,-0.23354 0.004,-0.012 0.0117,-0.024 0.0159,-0.0356 0.0314,-0.0871 0.0473,-0.17427 0.0512,-0.26529 v -0.0356 c 0,-0.0907 -0.0198,-0.1778 -0.0512,-0.26494 -0.004,-0.012 -0.008,-0.0275 -0.0159,-0.0395 -0.004,-0.0159 -0.008,-0.0318 -0.0159,-0.0476 -0.20179,-0.38771 -0.36795,-0.79128 -0.49848,-1.19874 0,-0.012 -0.008,-0.0236 -0.012,-0.0356 -0.012,-0.0236 -0.0198,-0.0515 -0.0356,-0.0751 -0.008,-0.0236 -0.0198,-0.0476 -0.0356,-0.0674 -0.0116,-0.0236 -0.0275,-0.0434 -0.0434,-0.0632 -0.0159,-0.0198 -0.0318,-0.0437 -0.0515,-0.0635 -0.0159,-0.0159 -0.0356,-0.0314 -0.0515,-0.0473 -0.0198,-0.0198 -0.0395,-0.0395 -0.0632,-0.0554 -0.0198,-0.012 -0.0395,-0.0279 -0.0635,-0.0395 -0.0198,-0.012 -0.0434,-0.024 -0.067,-0.0356 -0.024,-0.012 -0.0476,-0.0198 -0.0713,-0.0279 -0.0236,-0.0116 -0.0515,-0.0198 -0.0794,-0.0236 -0.0198,-0.008 -0.0434,-0.012 -0.0709,-0.0159 -0.0279,-0.004 -0.0554,-0.008 -0.0871,-0.008 -0.012,0 -0.0198,-0.004 -0.0318,-0.004 h -2.03764 c -0.28893,0 -0.53023,-0.23742 -0.53023,-0.53022 v -3.04236 c 0,-0.28892 0.2413,-0.52634 0.53023,-0.52634 h 2.03764 c 0,0 0,-0.004 0.004,-0.004 0.0751,0 0.1464,-0.012 0.21766,-0.0318 0.0159,-0.008 0.0318,-0.012 0.0438,-0.0159 0.0713,-0.0236 0.13829,-0.0554 0.19367,-0.0988 0.012,-0.004 0.0159,-0.012 0.0279,-0.0198 0.0512,-0.0395 0.0988,-0.0871 0.14217,-0.14252 0.008,-0.008 0.0159,-0.0198 0.024,-0.0279 0.0434,-0.0632 0.0751,-0.13053 0.10266,-0.20179 0,-0.008 0.008,-0.0116 0.008,-0.0198 0.13053,-0.40357 0.29669,-0.80292 0.49848,-1.19485 0.008,-0.0159 0.012,-0.0356 0.0159,-0.0515 0.008,-0.0116 0.0117,-0.0236 0.0159,-0.0356 0.0314,-0.0868 0.0512,-0.1778 0.0512,-0.26494 v -0.0356 c -0.004,-0.091 -0.0198,-0.18203 -0.0512,-0.26917 -0.004,-0.008 -0.008,-0.0197 -0.0159,-0.0314 -0.0356,-0.0871 -0.0871,-0.16616 -0.15451,-0.23354 -0.004,-0.004 -0.008,-0.012 -0.0116,-0.0159 l -1.43652,-1.44004 c -0.10265,-0.0991 -0.15804,-0.23354 -0.15804,-0.37606 0,-0.13829 0.0554,-0.27305 0.15804,-0.37183 l 2.14877,-2.14841 c 0.20567,-0.20991 0.54187,-0.20991 0.74754,0 l 1.43651,1.43616 c 0.008,0.004 0.0155,0.008 0.0236,0.0159 0.0631,0.0554 0.13441,0.10301 0.20955,0.13829 0.024,0.008 0.0437,0.0201 0.0674,0.0279 0.0871,0.0317 0.17392,0.0515 0.26917,0.0515 0.091,0 0.18203,-0.0198 0.26881,-0.0515 0.0159,-0.008 0.0356,-0.012 0.0515,-0.0198 0.0159,-0.008 0.0318,-0.008 0.0434,-0.0159 0.40358,-0.20567 0.80716,-0.37571 1.20297,-0.49848 0.012,-0.004 0.0236,-0.012 0.0356,-0.0159 0.0236,-0.008 0.0515,-0.0198 0.0752,-0.0317 0.0236,-0.0116 0.0476,-0.0236 0.0674,-0.0356 0.0236,-0.0155 0.0434,-0.0314 0.0631,-0.0473 0.0236,-0.0159 0.0438,-0.0317 0.0635,-0.0476 0.0155,-0.0197 0.0356,-0.0356 0.0512,-0.0554 0.0159,-0.0197 0.0356,-0.0395 0.0515,-0.0593 0.012,-0.0198 0.0279,-0.0434 0.0395,-0.0674 0.012,-0.0198 0.0279,-0.0434 0.0356,-0.0631 0.012,-0.0236 0.024,-0.0515 0.0318,-0.0751 0.008,-0.024 0.0159,-0.0476 0.0236,-0.0751 0.004,-0.024 0.008,-0.0476 0.012,-0.0713 0.004,-0.0318 0.008,-0.0593 0.008,-0.0871 0.004,-0.012 0.004,-0.0236 0.004,-0.0356 v -2.03376 c 0,-0.28858 0.23742,-0.526 0.53022,-0.526 h 3.03848 c 0.2928,0 0.53022,0.23742 0.53022,0.526 v 2.02176 c 0,0.012 0.004,0.024 0.004,0.0317 0,0.0318 0.004,0.0593 0.008,0.0871 0.004,0.0275 0.008,0.0515 0.0116,0.0751 0.008,0.0236 0.0159,0.0515 0.024,0.0751 0.0116,0.0236 0.0198,0.0476 0.0314,0.0713 0.008,0.0236 0.024,0.0476 0.0356,0.0674 0.012,0.0236 0.024,0.0434 0.0395,0.0631 0.0159,0.0236 0.0356,0.0434 0.0515,0.0635 0.0159,0.0198 0.0318,0.0353 0.0515,0.0512 0.0198,0.0197 0.0395,0.0356 0.0631,0.0515 0.0198,0.0159 0.0399,0.0318 0.0596,0.0438 0.0236,0.0155 0.0434,0.0275 0.067,0.0395 0.0279,0.0116 0.0515,0.0236 0.0794,0.0314 0.0116,0.004 0.0198,0.012 0.0314,0.0159 0.42334,0.13476 0.83115,0.3048 1.21074,0.50271 0.0159,0.008 0.0318,0.008 0.0476,0.0155 0.0159,0.008 0.0356,0.012 0.0515,0.0201 0.0868,0.0314 0.1778,0.0511 0.26881,0.0511 0.0952,0 0.18204,-0.0197 0.26917,-0.0511 0.0236,-0.008 0.0434,-0.0159 0.0674,-0.0279 0.0751,-0.0356 0.14641,-0.079 0.20955,-0.13829 0.008,-0.008 0.0159,-0.008 0.0236,-0.0159 l 1.4284,-1.42839 c 0.20179,-0.20179 0.54998,-0.20179 0.75177,0 l 2.14841,2.14841 c 0.20567,0.20567 0.20567,0.54187 0,0.74789 l -1.42416,1.42417 c -0.004,0.004 -0.004,0.008 -0.008,0.012 -0.067,0.0713 -0.11854,0.15028 -0.15417,0.23354 -0.008,0.0116 -0.012,0.0236 -0.0159,0.0356 -0.0317,0.0868 -0.0515,0.17392 -0.0515,0.26494 v 0.0356 c 0,0.091 0.0159,0.17815 0.0515,0.26493 0.004,0.012 0.008,0.0279 0.0159,0.0399 0.004,0.0155 0.008,0.0353 0.0198,0.0512 0.19367,0.37994 0.36406,0.7874 0.49847,1.21073 0.004,0.008 0.008,0.012 0.012,0.0198 0.0236,0.0713 0.0593,0.14252 0.10266,0.20179 0.008,0.012 0.0159,0.0198 0.024,0.0279 0.0395,0.0554 0.091,0.10301 0.14217,0.14252 0.008,0.008 0.0159,0.0159 0.024,0.0198 0.0593,0.0434 0.12665,0.0751 0.19368,0.0988 0.0159,0.004 0.0318,0.012 0.0476,0.0159 0.067,0.0198 0.14253,0.0318 0.21767,0.0318 0,0 0,0.004 0.004,0.004 h 2.01401 c 0.2928,0 0.53022,0.23742 0.53022,0.52634 z m -0.53022,-5.17913 h -1.45204 c -0.0476,-0.12242 -0.0991,-0.2413 -0.15063,-0.35984 l 1.02482,-1.02481 c 0.83502,-0.83503 0.83502,-2.19217 0,-3.02684 l -2.14842,-2.14841 c -0.80716,-0.80716 -2.2158,-0.80716 -3.02295,0 l -1.03258,1.03258 c -0.11854,-0.0515 -0.23742,-0.0988 -0.35596,-0.14641 v -1.46402 c 0,-1.17899 -0.96167,-2.13643 -2.14065,-2.13643 h -3.03848 c -1.17933,0 -2.13677,0.95744 -2.13677,2.13643 v 1.47178 c -0.11854,0.0476 -0.23354,0.0952 -0.35207,0.14641 l -1.03682,-1.04034 c -0.83467,-0.83503 -2.19181,-0.83503 -3.02683,0 l -2.14842,2.14841 c -0.40358,0.40358 -0.62512,0.94157 -0.62512,1.5113 0,0.57362 0.22154,1.11196 0.62512,1.51554 l 1.04458,1.04034 c -0.0512,0.115 -0.0988,0.22966 -0.14217,0.34431 h -1.47602 c -1.17899,0 -2.13643,0.95744 -2.13643,2.13677 v 3.04236 c 0,1.17933 0.95744,2.14065 2.13643,2.14065 h 1.47602 c 0.0434,0.11466 0.091,0.22966 0.14217,0.34432 l -1.04458,1.04457 c -0.40358,0.40358 -0.62512,0.94156 -0.62512,1.5113 0,0.56974 0.22154,1.10772 0.62512,1.5113 l 2.14842,2.14877 c 0.41945,0.4191 0.96555,0.62512 1.51165,0.62512 0.54998,0 1.09608,-0.20602 1.51518,-0.62512 l 1.03682,-1.03681 c 0.11853,0.0515 0.23353,0.0988 0.35207,0.14252 v 1.46791 c 0,1.17898 0.95744,2.13642 2.13677,2.13642 h 3.03848 c 1.17898,0 2.14065,-0.95744 2.14065,-2.13642 v -1.45627 c 0.11854,-0.0473 0.23742,-0.0988 0.35596,-0.15028 l 1.03258,1.03293 c 0.40357,0.40358 0.94191,0.629 1.51165,0.629 0.56974,0 1.10772,-0.22542 1.5113,-0.629 l 2.14842,-2.14877 c 0.83502,-0.83467 0.83502,-2.18793 0,-3.0226 l -1.02482,-1.02482 c 0.0515,-0.12277 0.10301,-0.24518 0.15063,-0.36407 h 1.45204 c 1.17898,0 2.13642,-0.96132 2.13642,-2.14065 v -3.04236 c 0,-1.17933 -0.95744,-2.13677 -2.13642,-2.13677"
       style="fill:#333333;fill-opacity:1;fill-rule:nonzero;stroke:none;stroke-width:0.0352778"
       id="path1245" />
    <path
       d="m 124.63009,136.5863 c 0.44414,0 0.80433,-0.35983 0.80433,-0.80433 v -3.85445 c 0,-0.70662 0.57538,-1.282 1.28235,-1.282 h 8.22607 l -1.78012,1.85879 c -0.30762,0.32103 -0.29668,0.83009 0.0243,1.13771 0.15558,0.14922 0.35631,0.22331 0.55633,0.22331 0.21132,0 0.42299,-0.0833 0.58068,-0.24801 l 3.08327,-3.2198 c 0.0342,-0.0356 0.0497,-0.0801 0.0759,-0.11994 0.03,-0.0452 0.066,-0.0864 0.0857,-0.13547 0.0198,-0.0483 0.0229,-0.0991 0.0328,-0.14993 0.01,-0.0508 0.0261,-0.0995 0.0261,-0.15099 0,-0.0515 -0.0162,-0.10019 -0.0261,-0.15099 -0.01,-0.0508 -0.0131,-0.1016 -0.0328,-0.15028 -0.0198,-0.049 -0.0557,-0.0903 -0.0857,-0.13512 -0.0261,-0.0399 -0.0416,-0.0843 -0.0759,-0.11994 l -3.08327,-3.2198 c -0.30692,-0.32138 -0.81704,-0.33161 -1.13701,-0.0247 -0.32102,0.30763 -0.33196,0.81633 -0.0243,1.13736 l 1.78012,1.85914 h -8.22607 c -1.59385,0 -2.89102,1.29681 -2.89102,2.89066 v 3.85445 c 0,0.4445 0.36019,0.80433 0.80434,0.80433"
       style="fill:#333333;fill-opacity:1;fill-rule:nonzero;stroke:none;stroke-width:0.0352778"
       id="path1247" />
  </g>
</svg>
